%TF.GenerationSoftware,KiCad,Pcbnew,9.0.0*%
%TF.CreationDate,2026-02-26T19:26:20+01:00*%
%TF.ProjectId,LaserOps_PCB,4c617365-724f-4707-935f-5043422e6b69,rev?*%
%TF.SameCoordinates,Original*%
%TF.FileFunction,Copper,L1,Top*%
%TF.FilePolarity,Positive*%
%FSLAX46Y46*%
G04 Gerber Fmt 4.6, Leading zero omitted, Abs format (unit mm)*
G04 Created by KiCad (PCBNEW 9.0.0) date 2026-02-26 19:26:20*
%MOMM*%
%LPD*%
G01*
G04 APERTURE LIST*
G04 Aperture macros list*
%AMRoundRect*
0 Rectangle with rounded corners*
0 $1 Rounding radius*
0 $2 $3 $4 $5 $6 $7 $8 $9 X,Y pos of 4 corners*
0 Add a 4 corners polygon primitive as box body*
4,1,4,$2,$3,$4,$5,$6,$7,$8,$9,$2,$3,0*
0 Add four circle primitives for the rounded corners*
1,1,$1+$1,$2,$3*
1,1,$1+$1,$4,$5*
1,1,$1+$1,$6,$7*
1,1,$1+$1,$8,$9*
0 Add four rect primitives between the rounded corners*
20,1,$1+$1,$2,$3,$4,$5,0*
20,1,$1+$1,$4,$5,$6,$7,0*
20,1,$1+$1,$6,$7,$8,$9,0*
20,1,$1+$1,$8,$9,$2,$3,0*%
%AMFreePoly0*
4,1,23,0.550000,-0.750000,0.000000,-0.750000,0.000000,-0.745722,-0.065263,-0.745722,-0.191342,-0.711940,-0.304381,-0.646677,-0.396677,-0.554381,-0.461940,-0.441342,-0.495722,-0.315263,-0.495722,-0.250000,-0.500000,-0.250000,-0.500000,0.250000,-0.495722,0.250000,-0.495722,0.315263,-0.461940,0.441342,-0.396677,0.554381,-0.304381,0.646677,-0.191342,0.711940,-0.065263,0.745722,0.000000,0.745722,
0.000000,0.750000,0.550000,0.750000,0.550000,-0.750000,0.550000,-0.750000,$1*%
%AMFreePoly1*
4,1,23,0.000000,0.745722,0.065263,0.745722,0.191342,0.711940,0.304381,0.646677,0.396677,0.554381,0.461940,0.441342,0.495722,0.315263,0.495722,0.250000,0.500000,0.250000,0.500000,-0.250000,0.495722,-0.250000,0.495722,-0.315263,0.461940,-0.441342,0.396677,-0.554381,0.304381,-0.646677,0.191342,-0.711940,0.065263,-0.745722,0.000000,-0.745722,0.000000,-0.750000,-0.550000,-0.750000,
-0.550000,0.750000,0.000000,0.750000,0.000000,0.745722,0.000000,0.745722,$1*%
%AMFreePoly2*
4,1,23,0.500000,-0.750000,0.000000,-0.750000,0.000000,-0.745722,-0.065263,-0.745722,-0.191342,-0.711940,-0.304381,-0.646677,-0.396677,-0.554381,-0.461940,-0.441342,-0.495722,-0.315263,-0.495722,-0.250000,-0.500000,-0.250000,-0.500000,0.250000,-0.495722,0.250000,-0.495722,0.315263,-0.461940,0.441342,-0.396677,0.554381,-0.304381,0.646677,-0.191342,0.711940,-0.065263,0.745722,0.000000,0.745722,
0.000000,0.750000,0.500000,0.750000,0.500000,-0.750000,0.500000,-0.750000,$1*%
%AMFreePoly3*
4,1,23,0.000000,0.745722,0.065263,0.745722,0.191342,0.711940,0.304381,0.646677,0.396677,0.554381,0.461940,0.441342,0.495722,0.315263,0.495722,0.250000,0.500000,0.250000,0.500000,-0.250000,0.495722,-0.250000,0.495722,-0.315263,0.461940,-0.441342,0.396677,-0.554381,0.304381,-0.646677,0.191342,-0.711940,0.065263,-0.745722,0.000000,-0.745722,0.000000,-0.750000,-0.500000,-0.750000,
-0.500000,0.750000,0.000000,0.750000,0.000000,0.745722,0.000000,0.745722,$1*%
G04 Aperture macros list end*
%TA.AperFunction,EtchedComponent*%
%ADD10C,0.000000*%
%TD*%
%TA.AperFunction,SMDPad,CuDef*%
%ADD11RoundRect,0.248780X-0.261220X-0.451220X0.261220X-0.451220X0.261220X0.451220X-0.261220X0.451220X0*%
%TD*%
%TA.AperFunction,SMDPad,CuDef*%
%ADD12RoundRect,0.249999X1.425001X-0.450001X1.425001X0.450001X-1.425001X0.450001X-1.425001X-0.450001X0*%
%TD*%
%TA.AperFunction,SMDPad,CuDef*%
%ADD13RoundRect,0.248780X0.451220X-0.261220X0.451220X0.261220X-0.451220X0.261220X-0.451220X-0.261220X0*%
%TD*%
%TA.AperFunction,SMDPad,CuDef*%
%ADD14C,3.000000*%
%TD*%
%TA.AperFunction,SMDPad,CuDef*%
%ADD15RoundRect,0.150000X-0.512500X-0.150000X0.512500X-0.150000X0.512500X0.150000X-0.512500X0.150000X0*%
%TD*%
%TA.AperFunction,SMDPad,CuDef*%
%ADD16RoundRect,0.248780X-0.451220X0.261220X-0.451220X-0.261220X0.451220X-0.261220X0.451220X0.261220X0*%
%TD*%
%TA.AperFunction,SMDPad,CuDef*%
%ADD17RoundRect,0.250000X-0.475000X0.250000X-0.475000X-0.250000X0.475000X-0.250000X0.475000X0.250000X0*%
%TD*%
%TA.AperFunction,SMDPad,CuDef*%
%ADD18RoundRect,0.250000X0.250000X0.475000X-0.250000X0.475000X-0.250000X-0.475000X0.250000X-0.475000X0*%
%TD*%
%TA.AperFunction,SMDPad,CuDef*%
%ADD19RoundRect,0.250000X-0.250000X-0.475000X0.250000X-0.475000X0.250000X0.475000X-0.250000X0.475000X0*%
%TD*%
%TA.AperFunction,SMDPad,CuDef*%
%ADD20RoundRect,0.250000X0.475000X-0.250000X0.475000X0.250000X-0.475000X0.250000X-0.475000X-0.250000X0*%
%TD*%
%TA.AperFunction,ComponentPad*%
%ADD21C,1.800000*%
%TD*%
%TA.AperFunction,SMDPad,CuDef*%
%ADD22RoundRect,0.249999X-0.450001X-1.425001X0.450001X-1.425001X0.450001X1.425001X-0.450001X1.425001X0*%
%TD*%
%TA.AperFunction,ComponentPad*%
%ADD23R,1.700000X1.700000*%
%TD*%
%TA.AperFunction,ComponentPad*%
%ADD24O,1.700000X1.700000*%
%TD*%
%TA.AperFunction,SMDPad,CuDef*%
%ADD25R,2.469157X0.622132*%
%TD*%
%TA.AperFunction,SMDPad,CuDef*%
%ADD26RoundRect,0.150000X-0.400000X-0.150000X0.400000X-0.150000X0.400000X0.150000X-0.400000X0.150000X0*%
%TD*%
%TA.AperFunction,SMDPad,CuDef*%
%ADD27RoundRect,0.150000X-0.150000X0.400000X-0.150000X-0.400000X0.150000X-0.400000X0.150000X0.400000X0*%
%TD*%
%TA.AperFunction,SMDPad,CuDef*%
%ADD28RoundRect,0.087500X-0.187500X-0.087500X0.187500X-0.087500X0.187500X0.087500X-0.187500X0.087500X0*%
%TD*%
%TA.AperFunction,SMDPad,CuDef*%
%ADD29RoundRect,0.087500X-0.087500X-0.187500X0.087500X-0.187500X0.087500X0.187500X-0.087500X0.187500X0*%
%TD*%
%TA.AperFunction,SMDPad,CuDef*%
%ADD30R,1.524000X0.457200*%
%TD*%
%TA.AperFunction,SMDPad,CuDef*%
%ADD31RoundRect,0.062500X-0.350000X-0.062500X0.350000X-0.062500X0.350000X0.062500X-0.350000X0.062500X0*%
%TD*%
%TA.AperFunction,SMDPad,CuDef*%
%ADD32RoundRect,0.062500X-0.062500X-0.350000X0.062500X-0.350000X0.062500X0.350000X-0.062500X0.350000X0*%
%TD*%
%TA.AperFunction,HeatsinkPad*%
%ADD33R,1.230000X1.230000*%
%TD*%
%TA.AperFunction,SMDPad,CuDef*%
%ADD34R,1.500000X0.900000*%
%TD*%
%TA.AperFunction,SMDPad,CuDef*%
%ADD35R,0.900000X1.500000*%
%TD*%
%TA.AperFunction,HeatsinkPad*%
%ADD36C,0.600000*%
%TD*%
%TA.AperFunction,HeatsinkPad*%
%ADD37R,3.900000X3.900000*%
%TD*%
%TA.AperFunction,SMDPad,CuDef*%
%ADD38RoundRect,0.250000X-0.300000X1.000000X-0.300000X-1.000000X0.300000X-1.000000X0.300000X1.000000X0*%
%TD*%
%TA.AperFunction,ComponentPad*%
%ADD39C,0.500000*%
%TD*%
%TA.AperFunction,SMDPad,CuDef*%
%ADD40RoundRect,0.250000X-1.550000X0.920000X-1.550000X-0.920000X1.550000X-0.920000X1.550000X0.920000X0*%
%TD*%
%TA.AperFunction,SMDPad,CuDef*%
%ADD41RoundRect,0.250000X-0.350000X-0.450000X0.350000X-0.450000X0.350000X0.450000X-0.350000X0.450000X0*%
%TD*%
%TA.AperFunction,SMDPad,CuDef*%
%ADD42RoundRect,0.150000X-0.590000X-0.150000X0.590000X-0.150000X0.590000X0.150000X-0.590000X0.150000X0*%
%TD*%
%TA.AperFunction,SMDPad,CuDef*%
%ADD43R,0.972000X0.802000*%
%TD*%
%TA.AperFunction,SMDPad,CuDef*%
%ADD44FreePoly0,0.000000*%
%TD*%
%TA.AperFunction,SMDPad,CuDef*%
%ADD45R,1.000000X1.500000*%
%TD*%
%TA.AperFunction,SMDPad,CuDef*%
%ADD46FreePoly1,0.000000*%
%TD*%
%TA.AperFunction,SMDPad,CuDef*%
%ADD47FreePoly2,0.000000*%
%TD*%
%TA.AperFunction,SMDPad,CuDef*%
%ADD48FreePoly3,0.000000*%
%TD*%
%TA.AperFunction,ComponentPad*%
%ADD49C,0.700000*%
%TD*%
%TA.AperFunction,ComponentPad*%
%ADD50O,2.400000X0.900000*%
%TD*%
%TA.AperFunction,ComponentPad*%
%ADD51O,1.700000X0.900000*%
%TD*%
%TA.AperFunction,SMDPad,CuDef*%
%ADD52RoundRect,0.250000X-0.300000X-0.550000X0.300000X-0.550000X0.300000X0.550000X-0.300000X0.550000X0*%
%TD*%
%TA.AperFunction,SMDPad,CuDef*%
%ADD53RoundRect,0.250000X-0.325000X-0.650000X0.325000X-0.650000X0.325000X0.650000X-0.325000X0.650000X0*%
%TD*%
%TA.AperFunction,ComponentPad*%
%ADD54R,1.600000X1.600000*%
%TD*%
%TA.AperFunction,ComponentPad*%
%ADD55C,1.600000*%
%TD*%
%TA.AperFunction,SMDPad,CuDef*%
%ADD56RoundRect,0.250000X-0.450000X-0.425000X0.450000X-0.425000X0.450000X0.425000X-0.450000X0.425000X0*%
%TD*%
%TA.AperFunction,ViaPad*%
%ADD57C,0.800000*%
%TD*%
%TA.AperFunction,Conductor*%
%ADD58C,0.500000*%
%TD*%
%TA.AperFunction,Conductor*%
%ADD59C,0.250000*%
%TD*%
%TA.AperFunction,Conductor*%
%ADD60C,0.200000*%
%TD*%
G04 APERTURE END LIST*
D10*
%TA.AperFunction,EtchedComponent*%
%TO.C,JP8*%
G36*
X97905600Y-41676400D02*
G01*
X97405600Y-41676400D01*
X97405600Y-41076400D01*
X97905600Y-41076400D01*
X97905600Y-41676400D01*
G37*
%TD.AperFunction*%
%TA.AperFunction,EtchedComponent*%
%TO.C,JP7*%
G36*
X97905600Y-38126400D02*
G01*
X97405600Y-38126400D01*
X97405600Y-37526400D01*
X97905600Y-37526400D01*
X97905600Y-38126400D01*
G37*
%TD.AperFunction*%
%TA.AperFunction,EtchedComponent*%
%TO.C,JP6*%
G36*
X97905600Y-34576400D02*
G01*
X97405600Y-34576400D01*
X97405600Y-33976400D01*
X97905600Y-33976400D01*
X97905600Y-34576400D01*
G37*
%TD.AperFunction*%
%TA.AperFunction,EtchedComponent*%
%TO.C,JP5*%
G36*
X44145600Y-69626400D02*
G01*
X43645600Y-69626400D01*
X43645600Y-69026400D01*
X44145600Y-69026400D01*
X44145600Y-69626400D01*
G37*
%TD.AperFunction*%
%TD*%
D11*
%TO.P,R6,1*%
%TO.N,Net-(R6-Pad1)*%
X193140000Y-96350000D03*
%TO.P,R6,2*%
%TO.N,GND*%
X194960000Y-96350000D03*
%TD*%
D12*
%TO.P,R10,1*%
%TO.N,Net-(C12-Pad1)*%
X188500000Y-94550000D03*
%TO.P,R10,2*%
%TO.N,+3.3V*%
X188500000Y-88450000D03*
%TD*%
D13*
%TO.P,R17,1*%
%TO.N,Net-(U3-FB)*%
X180000000Y-95950000D03*
%TO.P,R17,2*%
%TO.N,Net-(R17-Pad2)*%
X180000000Y-94130000D03*
%TD*%
%TO.P,R9,1*%
%TO.N,Net-(R17-Pad2)*%
X180000000Y-92510000D03*
%TO.P,R9,2*%
%TO.N,GND*%
X180000000Y-90690000D03*
%TD*%
D14*
%TO.P,TP2,1,1*%
%TO.N,Net-(C12-Pad1)*%
X184350000Y-91100000D03*
%TD*%
D15*
%TO.P,U3,1,GND*%
%TO.N,GND*%
X174962500Y-94100000D03*
%TO.P,U3,2,SW*%
%TO.N,Net-(U3-SW)*%
X174962500Y-95050000D03*
%TO.P,U3,3,VIN*%
%TO.N,+BATT*%
X174962500Y-96000000D03*
%TO.P,U3,4,FB*%
%TO.N,Net-(U3-FB)*%
X177237500Y-96000000D03*
%TO.P,U3,5,EN*%
%TO.N,unconnected-(U3-EN-Pad5)*%
X177237500Y-95050000D03*
%TO.P,U3,6,BOOT*%
%TO.N,Net-(U3-BOOT)*%
X177237500Y-94100000D03*
%TD*%
D16*
%TO.P,R22,1*%
%TO.N,Net-(C12-Pad1)*%
X182000000Y-94120000D03*
%TO.P,R22,2*%
%TO.N,Net-(U3-FB)*%
X182000000Y-95940000D03*
%TD*%
D17*
%TO.P,C4,1*%
%TO.N,Net-(C12-Pad1)*%
X184050000Y-94050000D03*
%TO.P,C4,2*%
%TO.N,Net-(U3-FB)*%
X184050000Y-95950000D03*
%TD*%
D18*
%TO.P,C2,1*%
%TO.N,Net-(U3-BOOT)*%
X178300000Y-92300000D03*
%TO.P,C2,2*%
%TO.N,Net-(U3-SW)*%
X176400000Y-92300000D03*
%TD*%
D19*
%TO.P,C7,1*%
%TO.N,Net-(C12-Pad1)*%
X170600000Y-91200000D03*
%TO.P,C7,2*%
%TO.N,GND*%
X172500000Y-91200000D03*
%TD*%
D20*
%TO.P,C11,1*%
%TO.N,+BATT*%
X171000000Y-96000000D03*
%TO.P,C11,2*%
%TO.N,GND*%
X171000000Y-94100000D03*
%TD*%
D19*
%TO.P,C12,1*%
%TO.N,Net-(C12-Pad1)*%
X170600000Y-89100000D03*
%TO.P,C12,2*%
%TO.N,GND*%
X172500000Y-89100000D03*
%TD*%
D20*
%TO.P,C13,1*%
%TO.N,+BATT*%
X168900000Y-96000000D03*
%TO.P,C13,2*%
%TO.N,GND*%
X168900000Y-94100000D03*
%TD*%
D21*
%TO.P,SW5,1,A*%
%TO.N,Net-(BT2-+)*%
X197137500Y-89575000D03*
%TO.P,SW5,2,B*%
%TO.N,+BATT*%
X195137500Y-89575000D03*
%TO.P,SW5,3,C*%
%TO.N,Net-(R6-Pad1)*%
X193137500Y-89575000D03*
%TO.P,SW5,4,A*%
%TO.N,unconnected-(SW5-A-Pad4)*%
X197137500Y-94075000D03*
%TO.P,SW5,5,B*%
%TO.N,+3.3V*%
X195137500Y-94075000D03*
%TO.P,SW5,6,C*%
%TO.N,Net-(R6-Pad1)*%
X193137500Y-94075000D03*
%TD*%
D22*
%TO.P,R3,2*%
%TO.N,GND*%
X130050000Y-38000000D03*
%TO.P,R3,1*%
%TO.N,Net-(U8-+)*%
X123950000Y-38000000D03*
%TD*%
D23*
%TO.P,SW3,1,1*%
%TO.N,+3.3V*%
X101895600Y-53616400D03*
D24*
%TO.P,SW3,2,2*%
%TO.N,Reload*%
X101895600Y-56156400D03*
%TD*%
D23*
%TO.P,SW2,1,1*%
%TO.N,+3.3V*%
X101895600Y-49566400D03*
D24*
%TO.P,SW2,2,2*%
%TO.N,Trigger*%
X101895600Y-52106400D03*
%TD*%
D23*
%TO.P,J3,1,Pin_1*%
%TO.N,Net-(J3-Pin_1)*%
X168850000Y-21150000D03*
D24*
%TO.P,J3,2,Pin_2*%
%TO.N,Net-(J3-Pin_2)*%
X168850000Y-23690000D03*
%TO.P,J3,3,Pin_3*%
%TO.N,+3.3V*%
X168850000Y-26230000D03*
%TO.P,J3,4,Pin_4*%
%TO.N,IR_Signal*%
X168850000Y-28770000D03*
%TO.P,J3,5,Pin_5*%
%TO.N,Hit_Lamp*%
X168850000Y-31310000D03*
%TO.P,J3,6,Pin_6*%
%TO.N,GND*%
X168850000Y-33850000D03*
%TD*%
D23*
%TO.P,BT2,1,+*%
%TO.N,Net-(BT2-+)*%
X146950000Y-98960000D03*
D24*
%TO.P,BT2,2,-*%
%TO.N,GND*%
X146950000Y-101500000D03*
%TD*%
D25*
%TO.P,U9,1*%
%TO.N,N/C*%
X104451202Y-32676500D03*
%TO.P,U9,2,-IN*%
%TO.N,Net-(U8-+)*%
X104451202Y-33946500D03*
%TO.P,U9,3,+IN*%
%TO.N,Net-(U9A-+IN)*%
X104451202Y-35216500D03*
%TO.P,U9,4,V-*%
%TO.N,GND*%
X104451202Y-36486500D03*
%TO.P,U9,5*%
%TO.N,N/C*%
X109278400Y-36486500D03*
%TO.P,U9,6,OUT*%
%TO.N,Net-(U9A-OUT)*%
X109278400Y-35216500D03*
%TO.P,U9,7,V+*%
%TO.N,+BATT*%
X109278400Y-33946500D03*
%TO.P,U9,8*%
%TO.N,N/C*%
X109278400Y-32676500D03*
%TD*%
D26*
%TO.P,U8,1,+*%
%TO.N,Net-(U8-+)*%
X104780600Y-41626400D03*
%TO.P,U8,2,GND*%
%TO.N,GND*%
X104780600Y-40676400D03*
%TO.P,U8,3,-*%
%TO.N,Net-(U8--)*%
X104780600Y-39726400D03*
%TO.P,U8,4,OUT*%
%TO.N,IR_ADC*%
X102180600Y-39726400D03*
%TO.P,U8,5,V+*%
%TO.N,+3.3V*%
X102180600Y-41626400D03*
%TD*%
D27*
%TO.P,U7,1,+*%
%TO.N,Net-(U7-+)*%
X177160000Y-101370000D03*
%TO.P,U7,2,GND*%
%TO.N,GND*%
X178110000Y-101370000D03*
%TO.P,U7,3,-*%
%TO.N,Batt_ADC*%
X179060000Y-101370000D03*
%TO.P,U7,4,OUT*%
X179060000Y-98770000D03*
%TO.P,U7,5,V+*%
%TO.N,+3.3V*%
X177160000Y-98770000D03*
%TD*%
D28*
%TO.P,U6,1,VDD_IO*%
%TO.N,+3.3V*%
X106435600Y-57501400D03*
%TO.P,U6,2,NC*%
%TO.N,unconnected-(U6-NC-Pad2)*%
X106435600Y-58001400D03*
%TO.P,U6,3,NC*%
%TO.N,unconnected-(U6-NC-Pad3)*%
X106435600Y-58501400D03*
%TO.P,U6,4,SPC*%
%TO.N,SCL*%
X106435600Y-59001400D03*
%TO.P,U6,5,GND*%
%TO.N,GND*%
X106435600Y-59501400D03*
D29*
%TO.P,U6,6,SDI*%
%TO.N,SDA*%
X107160600Y-59726400D03*
%TO.P,U6,7,SDO*%
%TO.N,Net-(JP8-C)*%
X107660600Y-59726400D03*
%TO.P,U6,8,CS*%
%TO.N,+3.3V*%
X108160600Y-59726400D03*
D28*
%TO.P,U6,9,INT2*%
%TO.N,LIS3DH_Int2*%
X108885600Y-59501400D03*
%TO.P,U6,10,GND*%
%TO.N,GND*%
X108885600Y-59001400D03*
%TO.P,U6,11,INT1*%
%TO.N,LIS3DH_Int1*%
X108885600Y-58501400D03*
%TO.P,U6,12,GND*%
%TO.N,GND*%
X108885600Y-58001400D03*
%TO.P,U6,13,ADC3*%
%TO.N,unconnected-(U6-ADC3-Pad13)*%
X108885600Y-57501400D03*
D29*
%TO.P,U6,14,VDD*%
%TO.N,+3.3V*%
X108160600Y-57276400D03*
%TO.P,U6,15,ADC2*%
%TO.N,Net-(J2-Pin_2)*%
X107660600Y-57276400D03*
%TO.P,U6,16,ADC1*%
%TO.N,Net-(J2-Pin_1)*%
X107160600Y-57276400D03*
%TD*%
D30*
%TO.P,U5,1,HVC/A0*%
%TO.N,GND*%
X104792600Y-26411000D03*
%TO.P,U5,2,SCL*%
%TO.N,SCL*%
X104792600Y-27046000D03*
%TO.P,U5,3,SDA*%
%TO.N,SDA*%
X104792600Y-27706400D03*
%TO.P,U5,4,VSS*%
%TO.N,GND*%
X104792600Y-28341400D03*
%TO.P,U5,5,P0A*%
%TO.N,Net-(U5-P0A)*%
X108856600Y-28341400D03*
%TO.P,U5,6,P0W*%
%TO.N,IO21*%
X108856600Y-27706400D03*
%TO.P,U5,7,P0B*%
%TO.N,unconnected-(U5-P0B-Pad7)*%
X108856600Y-27046000D03*
%TO.P,U5,8,VDD*%
%TO.N,+3.3V*%
X108856600Y-26411000D03*
%TD*%
D31*
%TO.P,U4,1,DIN*%
%TO.N,IO38*%
X75958100Y-56776400D03*
%TO.P,U4,2,GAIN_SLOT*%
%TO.N,Net-(U4-GAIN_SLOT)*%
X75958100Y-57276400D03*
%TO.P,U4,3,GND*%
%TO.N,GND*%
X75958100Y-57776400D03*
%TO.P,U4,4,~{SD_MODE}*%
%TO.N,Net-(U4-~{SD_MODE})*%
X75958100Y-58276400D03*
D32*
%TO.P,U4,5,NC*%
%TO.N,unconnected-(U4-NC-Pad5)*%
X76645600Y-58963900D03*
%TO.P,U4,6,NC*%
%TO.N,unconnected-(U4-NC-Pad6)*%
X77145600Y-58963900D03*
%TO.P,U4,7,VDD*%
%TO.N,+3.3V*%
X77645600Y-58963900D03*
%TO.P,U4,8,VDD*%
X78145600Y-58963900D03*
D31*
%TO.P,U4,9,OUTP*%
%TO.N,Net-(J7-Pin_1)*%
X78833100Y-58276400D03*
%TO.P,U4,10,OUTN*%
%TO.N,Net-(J7-Pin_2)*%
X78833100Y-57776400D03*
%TO.P,U4,11,GND*%
%TO.N,GND*%
X78833100Y-57276400D03*
%TO.P,U4,12,NC*%
%TO.N,unconnected-(U4-NC-Pad12)*%
X78833100Y-56776400D03*
D32*
%TO.P,U4,13,NC*%
%TO.N,unconnected-(U4-NC-Pad13)*%
X78145600Y-56088900D03*
%TO.P,U4,14,LRCLK*%
%TO.N,IO40*%
X77645600Y-56088900D03*
%TO.P,U4,15,GND*%
%TO.N,GND*%
X77145600Y-56088900D03*
%TO.P,U4,16,BCLK*%
%TO.N,IO39*%
X76645600Y-56088900D03*
D33*
%TO.P,U4,17,PAD*%
%TO.N,GND*%
X77395600Y-57526400D03*
%TD*%
D34*
%TO.P,U2,1,GND*%
%TO.N,GND*%
X192392000Y-124000000D03*
%TO.P,U2,2,3V3*%
%TO.N,+3.3V*%
X192392000Y-122730000D03*
%TO.P,U2,3,EN*%
%TO.N,/\u00B5C/EN*%
X192392000Y-121460000D03*
%TO.P,U2,4,IO4*%
%TO.N,CAM_D0*%
X192392000Y-120190000D03*
%TO.P,U2,5,IO5*%
%TO.N,CAM_D1*%
X192392000Y-118920000D03*
%TO.P,U2,6,IO6*%
%TO.N,CAM_D2*%
X192392000Y-117650000D03*
%TO.P,U2,7,IO7*%
%TO.N,CAM_D3*%
X192392000Y-116380000D03*
%TO.P,U2,8,IO15*%
%TO.N,CAM_D4*%
X192392000Y-115110000D03*
%TO.P,U2,9,IO16*%
%TO.N,CAM_D5*%
X192392000Y-113840000D03*
%TO.P,U2,10,IO17*%
%TO.N,CAM_D6*%
X192392000Y-112570000D03*
%TO.P,U2,11,IO18*%
%TO.N,CAM_D7*%
X192392000Y-111300000D03*
%TO.P,U2,12,IO8*%
%TO.N,IR_ADC*%
X192392000Y-110030000D03*
%TO.P,U2,13,USB_D-*%
%TO.N,/\u00B5C/USB_D-*%
X192392000Y-108760000D03*
%TO.P,U2,14,USB_D+*%
%TO.N,/\u00B5C/USB_D+*%
X192392000Y-107490000D03*
D35*
%TO.P,U2,15,IO3*%
%TO.N,LIS3DH_Int1*%
X190627000Y-106240000D03*
%TO.P,U2,16,IO46*%
%TO.N,unconnected-(U2-IO46-Pad16)*%
X189357000Y-106240000D03*
%TO.P,U2,17,IO9*%
%TO.N,CAM_HS*%
X188087000Y-106240000D03*
%TO.P,U2,18,IO10*%
%TO.N,CAM_PC*%
X186817000Y-106240000D03*
%TO.P,U2,19,IO11*%
%TO.N,CAM_PD*%
X185547000Y-106240000D03*
%TO.P,U2,20,IO12*%
%TO.N,CAM_VS*%
X184277000Y-106240000D03*
%TO.P,U2,21,IO13*%
%TO.N,LIS3DH_Int2*%
X183007000Y-106240000D03*
%TO.P,U2,22,IO14*%
%TO.N,Batt_ADC*%
X181737000Y-106240000D03*
%TO.P,U2,23,IO21*%
%TO.N,IO21*%
X180467000Y-106240000D03*
%TO.P,U2,24,IO47*%
%TO.N,IR_Signal*%
X179197000Y-106240000D03*
%TO.P,U2,25,IO48*%
%TO.N,Hit_Lamp*%
X177927000Y-106240000D03*
%TO.P,U2,26,IO45*%
%TO.N,unconnected-(U2-IO45-Pad26)*%
X176657000Y-106240000D03*
D34*
%TO.P,U2,27,IO0*%
%TO.N,/\u00B5C/Boot*%
X174892000Y-107490000D03*
%TO.P,U2,28,IO35*%
%TO.N,IO35*%
X174892000Y-108760000D03*
%TO.P,U2,29,IO36*%
%TO.N,IO36*%
X174892000Y-110030000D03*
%TO.P,U2,30,IO37*%
%TO.N,IO37*%
X174892000Y-111300000D03*
%TO.P,U2,31,IO38*%
%TO.N,IO38*%
X174892000Y-112570000D03*
%TO.P,U2,32,IO39*%
%TO.N,IO39*%
X174892000Y-113840000D03*
%TO.P,U2,33,IO40*%
%TO.N,IO40*%
X174892000Y-115110000D03*
%TO.P,U2,34,IO41*%
%TO.N,Reload*%
X174892000Y-116380000D03*
%TO.P,U2,35,IO42*%
%TO.N,Trigger*%
X174892000Y-117650000D03*
%TO.P,U2,36,RXD0*%
%TO.N,/\u00B5C/IO44*%
X174892000Y-118920000D03*
%TO.P,U2,37,TXD0*%
%TO.N,IO43*%
X174892000Y-120190000D03*
%TO.P,U2,38,IO2*%
%TO.N,SCL*%
X174892000Y-121460000D03*
%TO.P,U2,39,IO1*%
%TO.N,SDA*%
X174892000Y-122730000D03*
%TO.P,U2,40,GND*%
%TO.N,GND*%
X174892000Y-124000000D03*
D36*
%TO.P,U2,41,GND*%
X186542000Y-116980000D03*
X186542000Y-115580000D03*
X185842000Y-117680000D03*
X185842000Y-116280000D03*
X185842000Y-114880000D03*
X185142000Y-116980000D03*
D37*
X185142000Y-116280000D03*
D36*
X185142000Y-115580000D03*
X184442000Y-117680000D03*
X184442000Y-116280000D03*
X184442000Y-114880000D03*
X183742000Y-116980000D03*
X183742000Y-115580000D03*
%TD*%
D38*
%TO.P,U1,1,GND*%
%TO.N,GND*%
X187650000Y-103000000D03*
%TO.P,U1,2,VOUT*%
%TO.N,Net-(Q2-D)*%
X189950000Y-103000000D03*
%TO.P,U1,3,VIN*%
%TO.N,+5V*%
X192250000Y-103000000D03*
D39*
%TO.P,U1,4,VOUT*%
%TO.N,Net-(Q2-D)*%
X190950000Y-97030000D03*
X189950000Y-97030000D03*
D40*
X189950000Y-97030000D03*
D39*
X188950000Y-97030000D03*
%TD*%
D14*
%TO.P,TP1,1,1*%
%TO.N,+3.3V*%
X206250000Y-75500000D03*
%TD*%
D11*
%TO.P,R26,1*%
%TO.N,+3.3V*%
X69615600Y-59826400D03*
%TO.P,R26,2*%
%TO.N,SCL*%
X71435600Y-59826400D03*
%TD*%
%TO.P,R25,1*%
%TO.N,+3.3V*%
X69615600Y-56876400D03*
%TO.P,R25,2*%
%TO.N,SDA*%
X71435600Y-56876400D03*
%TD*%
%TO.P,R24,1*%
%TO.N,IO44D*%
X83265600Y-54626400D03*
%TO.P,R24,2*%
%TO.N,Net-(Q9-B)*%
X85085600Y-54626400D03*
%TD*%
%TO.P,R23,1*%
%TO.N,IO43*%
X83265600Y-51676400D03*
%TO.P,R23,2*%
%TO.N,Net-(Q8-B)*%
X85085600Y-51676400D03*
%TD*%
%TO.P,R21,1*%
%TO.N,IR_ADC*%
X83265600Y-48726400D03*
%TO.P,R21,2*%
%TO.N,Net-(U8--)*%
X85085600Y-48726400D03*
%TD*%
%TO.P,R20,1*%
%TO.N,Net-(U9A-OUT)*%
X83265600Y-45776400D03*
%TO.P,R20,2*%
%TO.N,Net-(Q1-Pad1)*%
X85085600Y-45776400D03*
%TD*%
%TO.P,R19,1*%
%TO.N,+BATT*%
X183290000Y-101400000D03*
%TO.P,R19,2*%
%TO.N,GND*%
X185110000Y-101400000D03*
%TD*%
%TO.P,R18,1*%
%TO.N,+3.3V*%
X69615600Y-53926400D03*
%TO.P,R18,2*%
%TO.N,/\u00B5C/EN*%
X71435600Y-53926400D03*
%TD*%
D13*
%TO.P,R16,2*%
%TO.N,GND*%
X175560000Y-99210000D03*
%TO.P,R16,1*%
%TO.N,Net-(U7-+)*%
X175560000Y-101030000D03*
%TD*%
D41*
%TO.P,R15,1*%
%TO.N,+3.3V*%
X96855600Y-59776400D03*
%TO.P,R15,2*%
%TO.N,Net-(U4-~{SD_MODE})*%
X98855600Y-59776400D03*
%TD*%
%TO.P,R14,1*%
%TO.N,+3.3V*%
X96855600Y-56826400D03*
%TO.P,R14,2*%
%TO.N,Net-(U4-GAIN_SLOT)*%
X98855600Y-56826400D03*
%TD*%
%TO.P,R13,1*%
%TO.N,GND*%
X96855600Y-53876400D03*
%TO.P,R13,2*%
%TO.N,Net-(U4-GAIN_SLOT)*%
X98855600Y-53876400D03*
%TD*%
D11*
%TO.P,R12,1*%
%TO.N,+3.3V*%
X69615600Y-50976400D03*
%TO.P,R12,2*%
%TO.N,/\u00B5C/Boot*%
X71435600Y-50976400D03*
%TD*%
%TO.P,R11,1*%
%TO.N,GND*%
X69615600Y-48026400D03*
%TO.P,R11,2*%
%TO.N,Net-(J4-CC2)*%
X71435600Y-48026400D03*
%TD*%
%TO.P,R8,1*%
%TO.N,Net-(U9A-+IN)*%
X83265600Y-42826400D03*
%TO.P,R8,2*%
%TO.N,GND*%
X85085600Y-42826400D03*
%TD*%
%TO.P,R7,1*%
%TO.N,Net-(U5-P0A)*%
X83265600Y-39876400D03*
%TO.P,R7,2*%
%TO.N,Net-(U9A-+IN)*%
X85085600Y-39876400D03*
%TD*%
%TO.P,R5,1*%
%TO.N,+3.3V*%
X83265600Y-36926400D03*
%TO.P,R5,2*%
%TO.N,IR_Signal*%
X85085600Y-36926400D03*
%TD*%
%TO.P,R4,1*%
%TO.N,Net-(U8--)*%
X83265600Y-33976400D03*
%TO.P,R4,2*%
%TO.N,GND*%
X85085600Y-33976400D03*
%TD*%
D16*
%TO.P,R2,1*%
%TO.N,+BATT*%
X180660000Y-99210000D03*
%TO.P,R2,2*%
%TO.N,Net-(U7-+)*%
X180660000Y-101030000D03*
%TD*%
D11*
%TO.P,R1,1*%
%TO.N,GND*%
X69615600Y-45076400D03*
%TO.P,R1,2*%
%TO.N,Net-(J4-CC1)*%
X71435600Y-45076400D03*
%TD*%
D42*
%TO.P,Q9,1,B*%
%TO.N,Net-(Q9-B)*%
X96985600Y-49226400D03*
%TO.P,Q9,2,E*%
%TO.N,GND*%
X96985600Y-51126400D03*
%TO.P,Q9,3,C*%
%TO.N,Net-(J6-Pin_1)*%
X98865600Y-50176400D03*
%TD*%
%TO.P,Q8,1,B*%
%TO.N,Net-(Q8-B)*%
X96985600Y-44601400D03*
%TO.P,Q8,2,E*%
%TO.N,GND*%
X96985600Y-46501400D03*
%TO.P,Q8,3,C*%
%TO.N,Net-(J5-Pin_1)*%
X98865600Y-45551400D03*
%TD*%
%TO.P,Q2,1,G*%
%TO.N,+BATT*%
X183470000Y-97700000D03*
%TO.P,Q2,2,S*%
%TO.N,+3.3V*%
X183470000Y-99600000D03*
%TO.P,Q2,3,D*%
%TO.N,Net-(Q2-D)*%
X185350000Y-98650000D03*
%TD*%
D43*
%TO.P,Q1,1*%
%TO.N,Net-(Q1-Pad1)*%
X102320600Y-57426400D03*
%TO.P,Q1,2*%
%TO.N,Net-(U8-+)*%
X102320600Y-59326400D03*
%TO.P,Q1,3*%
%TO.N,Net-(J9-Pin_2)*%
X104090600Y-58376400D03*
%TD*%
D44*
%TO.P,JP8,1,A*%
%TO.N,GND*%
X97005600Y-41376400D03*
D45*
%TO.P,JP8,2,C*%
%TO.N,Net-(JP8-C)*%
X98305600Y-41376400D03*
D46*
%TO.P,JP8,3,B*%
%TO.N,+3.3V*%
X99605600Y-41376400D03*
%TD*%
D44*
%TO.P,JP7,1,A*%
%TO.N,SCL*%
X97005600Y-37826400D03*
D45*
%TO.P,JP7,2,C*%
%TO.N,Net-(J8-Pin_3)*%
X98305600Y-37826400D03*
D46*
%TO.P,JP7,3,B*%
%TO.N,IO43*%
X99605600Y-37826400D03*
%TD*%
D44*
%TO.P,JP6,1,A*%
%TO.N,SDA*%
X97005600Y-34276400D03*
D45*
%TO.P,JP6,2,C*%
%TO.N,Net-(J8-Pin_4)*%
X98305600Y-34276400D03*
D46*
%TO.P,JP6,3,B*%
%TO.N,IO35*%
X99605600Y-34276400D03*
%TD*%
D44*
%TO.P,JP5,1,A*%
%TO.N,IO44D*%
X43245600Y-69326400D03*
D45*
%TO.P,JP5,2,C*%
%TO.N,/\u00B5C/IO44*%
X44545600Y-69326400D03*
D46*
%TO.P,JP5,3,B*%
%TO.N,IO44A*%
X45845600Y-69326400D03*
%TD*%
D47*
%TO.P,JP1,1,A*%
%TO.N,Net-(J3-Pin_2)*%
X107355600Y-40326400D03*
D48*
%TO.P,JP1,2,B*%
%TO.N,Net-(J3-Pin_1)*%
X108655600Y-40326400D03*
%TD*%
D23*
%TO.P,J9,1,Pin_1*%
%TO.N,+BATT*%
X156750000Y-43475000D03*
D24*
%TO.P,J9,2,Pin_2*%
%TO.N,Net-(J9-Pin_2)*%
X156750000Y-46015000D03*
%TD*%
D23*
%TO.P,J8,1,Pin_1*%
%TO.N,GND*%
X150670000Y-123000000D03*
D24*
%TO.P,J8,2,Pin_2*%
%TO.N,IO37*%
X153210000Y-123000000D03*
%TO.P,J8,3,Pin_3*%
%TO.N,Net-(J8-Pin_3)*%
X155750000Y-123000000D03*
%TO.P,J8,4,Pin_4*%
%TO.N,Net-(J8-Pin_4)*%
X158290000Y-123000000D03*
%TO.P,J8,5,Pin_5*%
%TO.N,IO36*%
X160830000Y-123000000D03*
%TO.P,J8,6,Pin_6*%
%TO.N,+3.3V*%
X163370000Y-123000000D03*
%TO.P,J8,7,Pin_7*%
%TO.N,IO35*%
X165910000Y-123000000D03*
%TD*%
D23*
%TO.P,J7,1,Pin_1*%
%TO.N,Net-(J7-Pin_1)*%
X169000000Y-53475000D03*
D24*
%TO.P,J7,2,Pin_2*%
%TO.N,Net-(J7-Pin_2)*%
X169000000Y-56015000D03*
%TD*%
D23*
%TO.P,J6,1,Pin_1*%
%TO.N,Net-(J6-Pin_1)*%
X147000000Y-120460000D03*
D24*
%TO.P,J6,2,Pin_2*%
%TO.N,+BATT*%
X147000000Y-123000000D03*
%TD*%
D23*
%TO.P,J5,1,Pin_1*%
%TO.N,Net-(J5-Pin_1)*%
X147000000Y-114210000D03*
D24*
%TO.P,J5,2,Pin_2*%
%TO.N,+BATT*%
X147000000Y-116750000D03*
%TD*%
D49*
%TO.P,J4,A1,GND*%
%TO.N,GND*%
X194522000Y-106746000D03*
%TO.P,J4,A4,VBUS*%
%TO.N,+5V*%
X194522000Y-107596000D03*
%TO.P,J4,A5,CC1*%
%TO.N,Net-(J4-CC1)*%
X194522000Y-108446000D03*
%TO.P,J4,A6,D+*%
%TO.N,/\u00B5C/USB_D+*%
X194522000Y-109296000D03*
%TO.P,J4,A7,D-*%
%TO.N,/\u00B5C/USB_D-*%
X194522000Y-110146000D03*
%TO.P,J4,A8*%
%TO.N,N/C*%
X194522000Y-110996000D03*
%TO.P,J4,A9,VBUS*%
%TO.N,+5V*%
X194522000Y-111846000D03*
%TO.P,J4,A12,GND*%
%TO.N,GND*%
X194522000Y-112696000D03*
%TO.P,J4,B1,GND*%
X195872000Y-112696000D03*
%TO.P,J4,B4,VBUS*%
%TO.N,+5V*%
X195872000Y-111846000D03*
%TO.P,J4,B5,CC2*%
%TO.N,Net-(J4-CC2)*%
X195872000Y-110996000D03*
%TO.P,J4,B6,D+*%
%TO.N,/\u00B5C/USB_D+*%
X195872000Y-110146000D03*
%TO.P,J4,B7,D-*%
%TO.N,/\u00B5C/USB_D-*%
X195872000Y-109296000D03*
%TO.P,J4,B8*%
%TO.N,N/C*%
X195872000Y-108446000D03*
%TO.P,J4,B9,VBUS*%
%TO.N,+5V*%
X195872000Y-107596000D03*
%TO.P,J4,B12,GND*%
%TO.N,GND*%
X195872000Y-106746000D03*
D50*
%TO.P,J4,S1,SHIELD*%
X195502000Y-105396000D03*
D51*
X198882000Y-105396000D03*
D50*
X195502000Y-114046000D03*
D51*
X198882000Y-114046000D03*
%TD*%
D23*
%TO.P,J2,1,Pin_1*%
%TO.N,Net-(J2-Pin_1)*%
X163500000Y-55225000D03*
D24*
%TO.P,J2,2,Pin_2*%
%TO.N,Net-(J2-Pin_2)*%
X163500000Y-57765000D03*
%TD*%
D52*
%TO.P,D2,1*%
%TO.N,+BATT*%
X99405600Y-30326400D03*
%TO.P,D2,2*%
%TO.N,Net-(J6-Pin_1)*%
X102205600Y-30326400D03*
%TD*%
%TO.P,D1,1*%
%TO.N,+BATT*%
X99405600Y-26976400D03*
%TO.P,D1,2*%
%TO.N,Net-(J5-Pin_1)*%
X102205600Y-26976400D03*
%TD*%
D23*
%TO.P,Camera_Interface1,1,Pin_1*%
%TO.N,+3.3V*%
X77095600Y-34826400D03*
D24*
%TO.P,Camera_Interface1,2,Pin_2*%
%TO.N,SCL*%
X79635600Y-34826400D03*
%TO.P,Camera_Interface1,3,Pin_3*%
%TO.N,CAM_VS*%
X77095600Y-37366400D03*
%TO.P,Camera_Interface1,4,Pin_4*%
%TO.N,CAM_PC*%
X79635600Y-37366400D03*
%TO.P,Camera_Interface1,5,Pin_5*%
%TO.N,CAM_D7*%
X77095600Y-39906400D03*
%TO.P,Camera_Interface1,6,Pin_6*%
%TO.N,CAM_D5*%
X79635600Y-39906400D03*
%TO.P,Camera_Interface1,7,Pin_7*%
%TO.N,CAM_D3*%
X77095600Y-42446400D03*
%TO.P,Camera_Interface1,8,Pin_8*%
%TO.N,CAM_D1*%
X79635600Y-42446400D03*
%TO.P,Camera_Interface1,9,Pin_9*%
%TO.N,CAM_PD*%
X77095600Y-44986400D03*
%TO.P,Camera_Interface1,10,Pin_10*%
%TO.N,CAM_D0*%
X79635600Y-44986400D03*
%TO.P,Camera_Interface1,11,Pin_11*%
%TO.N,CAM_D2*%
X77095600Y-47526400D03*
%TO.P,Camera_Interface1,12,Pin_12*%
%TO.N,CAM_D4*%
X79635600Y-47526400D03*
%TO.P,Camera_Interface1,13,Pin_13*%
%TO.N,CAM_D6*%
X77095600Y-50066400D03*
%TO.P,Camera_Interface1,14,Pin_14*%
%TO.N,CAM_HS*%
X79635600Y-50066400D03*
%TO.P,Camera_Interface1,15,Pin_15*%
%TO.N,SDA*%
X77095600Y-52606400D03*
%TO.P,Camera_Interface1,16,Pin_16*%
%TO.N,GND*%
X79635600Y-52606400D03*
%TD*%
D19*
%TO.P,C29,1*%
%TO.N,+BATT*%
X92305600Y-46226400D03*
%TO.P,C29,2*%
%TO.N,GND*%
X94205600Y-46226400D03*
%TD*%
%TO.P,C28,1*%
%TO.N,+3.3V*%
X92305600Y-43176400D03*
%TO.P,C28,2*%
%TO.N,GND*%
X94205600Y-43176400D03*
%TD*%
%TO.P,C27,1*%
%TO.N,Net-(U9A-OUT)*%
X92305600Y-40126400D03*
%TO.P,C27,2*%
%TO.N,Net-(U8-+)*%
X94205600Y-40126400D03*
%TD*%
D53*
%TO.P,C26,1*%
%TO.N,+3.3V*%
X76115600Y-85026400D03*
%TO.P,C26,2*%
%TO.N,GND*%
X79075600Y-85026400D03*
%TD*%
%TO.P,C25,1*%
%TO.N,+3.3V*%
X76115600Y-81676400D03*
%TO.P,C25,2*%
%TO.N,GND*%
X79075600Y-81676400D03*
%TD*%
%TO.P,C24,1*%
%TO.N,+3.3V*%
X76115600Y-78326400D03*
%TO.P,C24,2*%
%TO.N,GND*%
X79075600Y-78326400D03*
%TD*%
%TO.P,C23,1*%
%TO.N,+3.3V*%
X76115600Y-74976400D03*
%TO.P,C23,2*%
%TO.N,GND*%
X79075600Y-74976400D03*
%TD*%
%TO.P,C22,1*%
%TO.N,+BATT*%
X76115600Y-71626400D03*
%TO.P,C22,2*%
%TO.N,GND*%
X79075600Y-71626400D03*
%TD*%
D54*
%TO.P,C21,1*%
%TO.N,+BATT*%
X102310841Y-77826400D03*
D55*
%TO.P,C21,2*%
%TO.N,GND*%
X104810841Y-77826400D03*
%TD*%
D54*
%TO.P,C20,1*%
%TO.N,+BATT*%
X94305375Y-66526400D03*
D55*
%TO.P,C20,2*%
%TO.N,GND*%
X96805375Y-66526400D03*
%TD*%
D53*
%TO.P,C19,1*%
%TO.N,+BATT*%
X76115600Y-68276400D03*
%TO.P,C19,2*%
%TO.N,GND*%
X79075600Y-68276400D03*
%TD*%
%TO.P,C18,1*%
%TO.N,+BATT*%
X76115600Y-64926400D03*
%TO.P,C18,2*%
%TO.N,GND*%
X79075600Y-64926400D03*
%TD*%
D19*
%TO.P,C17,1*%
%TO.N,+3.3V*%
X92305600Y-37076400D03*
%TO.P,C17,2*%
%TO.N,GND*%
X94205600Y-37076400D03*
%TD*%
D17*
%TO.P,C16,1*%
%TO.N,GND*%
X199050000Y-119100000D03*
%TO.P,C16,2*%
%TO.N,/\u00B5C/EN*%
X199050000Y-121000000D03*
%TD*%
D19*
%TO.P,C15,1*%
%TO.N,GND*%
X168050000Y-107000000D03*
%TO.P,C15,2*%
%TO.N,/\u00B5C/Boot*%
X169950000Y-107000000D03*
%TD*%
%TO.P,C14,1*%
%TO.N,+3.3V*%
X69595600Y-35976400D03*
%TO.P,C14,2*%
%TO.N,GND*%
X71495600Y-35976400D03*
%TD*%
%TO.P,C10,1*%
%TO.N,+BATT*%
X92305600Y-34026400D03*
%TO.P,C10,2*%
%TO.N,GND*%
X94205600Y-34026400D03*
%TD*%
%TO.P,C9,1*%
%TO.N,+5V*%
X194050000Y-103000000D03*
%TO.P,C9,2*%
%TO.N,GND*%
X195950000Y-103000000D03*
%TD*%
%TO.P,C8,1*%
%TO.N,GND*%
X69595600Y-32926400D03*
%TO.P,C8,2*%
%TO.N,/\u00B5C/Boot*%
X71495600Y-32926400D03*
%TD*%
%TO.P,C6,1*%
%TO.N,GND*%
X69595600Y-29876400D03*
%TO.P,C6,2*%
%TO.N,/\u00B5C/EN*%
X71495600Y-29876400D03*
%TD*%
D56*
%TO.P,C5,1*%
%TO.N,Net-(Q2-D)*%
X194650000Y-100700000D03*
%TO.P,C5,2*%
%TO.N,GND*%
X197350000Y-100700000D03*
%TD*%
D19*
%TO.P,C3,1*%
%TO.N,+3.3V*%
X69595600Y-26826400D03*
%TO.P,C3,2*%
%TO.N,GND*%
X71495600Y-26826400D03*
%TD*%
D56*
%TO.P,C1,1*%
%TO.N,Net-(Q2-D)*%
X194650000Y-98450000D03*
%TO.P,C1,2*%
%TO.N,GND*%
X197350000Y-98450000D03*
%TD*%
D57*
%TO.N,+3.3V*%
X178130000Y-98750000D03*
%TO.N,GND*%
X177460000Y-100120000D03*
X185700000Y-102900000D03*
%TO.N,+3.3V*%
X185200000Y-99810000D03*
%TO.N,GND*%
X196400000Y-96350000D03*
%TO.N,+BATT*%
X176500000Y-97000000D03*
%TO.N,+3.3V*%
X192250000Y-91750000D03*
%TO.N,GND*%
X173900000Y-91200000D03*
X171000000Y-92950000D03*
X168900000Y-92950000D03*
%TO.N,Net-(C12-Pad1)*%
X168200000Y-89100000D03*
%TO.N,GND*%
X175550000Y-89050000D03*
X173900000Y-89100000D03*
%TO.N,Net-(U3-SW)*%
X173000000Y-95050000D03*
%TO.N,GND*%
X197350000Y-106100000D03*
X197300000Y-113100000D03*
%TO.N,+3.3V*%
X193800000Y-122730000D03*
%TO.N,GND*%
X168050000Y-107000000D03*
X174892000Y-124000000D03*
X193800000Y-124000000D03*
X199000000Y-117800000D03*
%TO.N,/\u00B5C/Boot*%
X172900000Y-107000000D03*
%TO.N,/\u00B5C/EN*%
X197600000Y-124000000D03*
%TD*%
D58*
%TO.N,+BATT*%
X180660000Y-98520000D02*
X179840000Y-97700000D01*
X179840000Y-97700000D02*
X177200000Y-97700000D01*
X180660000Y-99210000D02*
X180660000Y-98520000D01*
D59*
%TO.N,+3.3V*%
X178110000Y-98770000D02*
X178130000Y-98750000D01*
X177160000Y-98770000D02*
X178110000Y-98770000D01*
%TO.N,Batt_ADC*%
X179060000Y-98770000D02*
X179060000Y-101370000D01*
%TO.N,GND*%
X176470000Y-100120000D02*
X177460000Y-100120000D01*
X175560000Y-99210000D02*
X176470000Y-100120000D01*
X178110000Y-100770000D02*
X177460000Y-100120000D01*
X178110000Y-101370000D02*
X178110000Y-100770000D01*
%TO.N,Net-(U7-+)*%
X177160000Y-101919999D02*
X177160000Y-101370000D01*
X177610001Y-102370000D02*
X177160000Y-101919999D01*
X179320000Y-102370000D02*
X177610001Y-102370000D01*
X180660000Y-101030000D02*
X179320000Y-102370000D01*
X176820000Y-101030000D02*
X177160000Y-101370000D01*
X175560000Y-101030000D02*
X176820000Y-101030000D01*
%TO.N,GND*%
X187550000Y-102900000D02*
X187650000Y-103000000D01*
X185700000Y-102900000D02*
X187550000Y-102900000D01*
X185110000Y-102310000D02*
X185700000Y-102900000D01*
X185110000Y-101400000D02*
X185110000Y-102310000D01*
D58*
%TO.N,+BATT*%
X182600000Y-101400000D02*
X183290000Y-101400000D01*
X182250000Y-98950000D02*
X182250000Y-101050000D01*
X182450000Y-98750000D02*
X182250000Y-98950000D01*
X183470000Y-98430000D02*
X183150000Y-98750000D01*
X182250000Y-101050000D02*
X182600000Y-101400000D01*
X183470000Y-97700000D02*
X183470000Y-98430000D01*
X183150000Y-98750000D02*
X182450000Y-98750000D01*
D59*
%TO.N,+3.3V*%
X184990000Y-99600000D02*
X185200000Y-99810000D01*
X183470000Y-99600000D02*
X184990000Y-99600000D01*
D58*
%TO.N,+BATT*%
X177200000Y-97700000D02*
X176500000Y-97000000D01*
X183470000Y-97700000D02*
X179840000Y-97700000D01*
D59*
%TO.N,Net-(Q2-D)*%
X188330000Y-98650000D02*
X189950000Y-97030000D01*
X185350000Y-98650000D02*
X188330000Y-98650000D01*
X191370000Y-98450000D02*
X189950000Y-97030000D01*
X194650000Y-98450000D02*
X191370000Y-98450000D01*
X194650000Y-100700000D02*
X194650000Y-98450000D01*
%TO.N,GND*%
X197350000Y-101600000D02*
X195950000Y-103000000D01*
X197350000Y-100700000D02*
X197350000Y-101600000D01*
X197350000Y-97300000D02*
X196400000Y-96350000D01*
X197350000Y-98450000D02*
X197350000Y-97300000D01*
%TO.N,Net-(Q2-D)*%
X189950000Y-103000000D02*
X189950000Y-97030000D01*
%TO.N,GND*%
X194960000Y-96350000D02*
X196400000Y-96350000D01*
%TO.N,+5V*%
X196548000Y-111664974D02*
X196548000Y-107777026D01*
X196366974Y-107596000D02*
X195872000Y-107596000D01*
X196366974Y-111846000D02*
X196548000Y-111664974D01*
X195872000Y-111846000D02*
X196366974Y-111846000D01*
X196548000Y-107777026D02*
X196366974Y-107596000D01*
X192250000Y-105496000D02*
X192250000Y-103000000D01*
X194350000Y-107596000D02*
X192250000Y-105496000D01*
X194522000Y-107596000D02*
X194350000Y-107596000D01*
%TO.N,GND*%
X197000000Y-103000000D02*
X197350000Y-103350000D01*
X195950000Y-103000000D02*
X197000000Y-103000000D01*
X197350000Y-103350000D02*
X197350000Y-106100000D01*
%TO.N,+5V*%
X194050000Y-103000000D02*
X192250000Y-103000000D01*
%TO.N,Net-(C12-Pad1)*%
X184350000Y-93750000D02*
X184350000Y-91100000D01*
X184050000Y-94050000D02*
X184350000Y-93750000D01*
D58*
%TO.N,+BATT*%
X175962500Y-97000000D02*
X174962500Y-96000000D01*
X176500000Y-97000000D02*
X175962500Y-97000000D01*
D59*
%TO.N,+3.3V*%
X192812500Y-91750000D02*
X195137500Y-94075000D01*
X192250000Y-91750000D02*
X192812500Y-91750000D01*
X191800000Y-91750000D02*
X192250000Y-91750000D01*
X188500000Y-88450000D02*
X191800000Y-91750000D01*
%TO.N,Net-(C12-Pad1)*%
X185750000Y-95750000D02*
X184050000Y-94050000D01*
X187300000Y-95750000D02*
X185750000Y-95750000D01*
X188500000Y-94550000D02*
X187300000Y-95750000D01*
X170600000Y-89100000D02*
X168200000Y-89100000D01*
%TO.N,+BATT*%
X171100000Y-96000000D02*
X171000000Y-96100000D01*
D58*
X174962500Y-96000000D02*
X171100000Y-96000000D01*
D59*
%TO.N,Net-(C12-Pad1)*%
X170600000Y-91200000D02*
X170600000Y-89100000D01*
%TO.N,GND*%
X171000000Y-92950000D02*
X171000000Y-94100000D01*
D58*
%TO.N,+BATT*%
X171000000Y-96000000D02*
X168900000Y-96000000D01*
D59*
%TO.N,GND*%
X168900000Y-94100000D02*
X168900000Y-92950000D01*
X180000000Y-89700000D02*
X180000000Y-90690000D01*
%TO.N,Net-(U3-FB)*%
X179950000Y-96000000D02*
X180000000Y-95950000D01*
%TO.N,Net-(R17-Pad2)*%
X180000000Y-94130000D02*
X180000000Y-92510000D01*
%TO.N,Net-(U3-FB)*%
X177237500Y-96000000D02*
X179950000Y-96000000D01*
%TO.N,Net-(U3-SW)*%
X173000000Y-95050000D02*
X174962500Y-95050000D01*
%TO.N,Net-(U3-BOOT)*%
X178300000Y-93950000D02*
X178150000Y-94100000D01*
X178150000Y-94100000D02*
X177237500Y-94100000D01*
X178300000Y-92300000D02*
X178300000Y-93950000D01*
%TO.N,Net-(U3-SW)*%
X176050000Y-94624999D02*
X175624999Y-95050000D01*
X176050000Y-93650000D02*
X176050000Y-94624999D01*
%TO.N,Net-(U3-FB)*%
X181990000Y-95950000D02*
X182000000Y-95940000D01*
%TO.N,Net-(U3-SW)*%
X175624999Y-95050000D02*
X174962500Y-95050000D01*
X176400000Y-92300000D02*
X176400000Y-93300000D01*
X176400000Y-93300000D02*
X176050000Y-93650000D01*
%TO.N,Net-(U3-FB)*%
X180000000Y-95950000D02*
X181990000Y-95950000D01*
%TO.N,GND*%
X172500000Y-89100000D02*
X173900000Y-89100000D01*
X172500000Y-91200000D02*
X173900000Y-91200000D01*
%TO.N,Net-(C12-Pad1)*%
X169600000Y-87700000D02*
X168200000Y-89100000D01*
X183980000Y-94120000D02*
X184050000Y-94050000D01*
X182000000Y-89900000D02*
X179800000Y-87700000D01*
%TO.N,Net-(U3-FB)*%
X182010000Y-95950000D02*
X182000000Y-95940000D01*
%TO.N,Net-(C12-Pad1)*%
X182000000Y-94120000D02*
X183980000Y-94120000D01*
X182000000Y-94120000D02*
X182000000Y-89900000D01*
X179800000Y-87700000D02*
X169600000Y-87700000D01*
%TO.N,GND*%
X175550000Y-89050000D02*
X179350000Y-89050000D01*
X179350000Y-89050000D02*
X180000000Y-89700000D01*
%TO.N,Net-(U3-FB)*%
X184050000Y-95950000D02*
X182010000Y-95950000D01*
D60*
%TO.N,/\u00B5C/USB_D-*%
X194027026Y-110146000D02*
X194522000Y-110146000D01*
X193769123Y-109888097D02*
X194027026Y-110146000D01*
X193769123Y-109180877D02*
X193769123Y-109888097D01*
X193348246Y-108760000D02*
X193769123Y-109180877D01*
X192392000Y-108760000D02*
X193348246Y-108760000D01*
%TO.N,/\u00B5C/USB_D+*%
X193650000Y-107650000D02*
X193490000Y-107490000D01*
X194451346Y-109296000D02*
X193650000Y-108494654D01*
X193650000Y-108494654D02*
X193650000Y-107650000D01*
X194522000Y-109296000D02*
X194451346Y-109296000D01*
X193490000Y-107490000D02*
X192392000Y-107490000D01*
%TO.N,/\u00B5C/USB_D-*%
X195801346Y-109296000D02*
X195872000Y-109296000D01*
X194951346Y-110146000D02*
X195801346Y-109296000D01*
X194522000Y-110146000D02*
X194951346Y-110146000D01*
D59*
%TO.N,GND*%
X199000000Y-119050000D02*
X199050000Y-119100000D01*
X199000000Y-117800000D02*
X199000000Y-119050000D01*
%TO.N,+3.3V*%
X193800000Y-122730000D02*
X192392000Y-122730000D01*
%TO.N,GND*%
X193800000Y-124000000D02*
X192392000Y-124000000D01*
%TO.N,/\u00B5C/EN*%
X199050000Y-123950000D02*
X199050000Y-121000000D01*
X197600000Y-124000000D02*
X199000000Y-124000000D01*
X194460000Y-121460000D02*
X192392000Y-121460000D01*
X197600000Y-124000000D02*
X197000000Y-124000000D01*
X197000000Y-124000000D02*
X194460000Y-121460000D01*
X199000000Y-124000000D02*
X199050000Y-123950000D01*
%TO.N,Net-(R6-Pad1)*%
X193110000Y-94102500D02*
X193137500Y-94075000D01*
X193110000Y-96200000D02*
X193110000Y-94102500D01*
%TO.N,/\u00B5C/Boot*%
X173760000Y-107000000D02*
X174250000Y-107490000D01*
X172900000Y-107000000D02*
X173760000Y-107000000D01*
X174250000Y-107490000D02*
X174892000Y-107490000D01*
X169950000Y-107000000D02*
X172900000Y-107000000D01*
D60*
%TO.N,/\u00B5C/USB_D-*%
X192881000Y-108760000D02*
X192392000Y-108760000D01*
%TD*%
M02*
