M48
; DRILL file {KiCad 9.0.0} date 2026-02-26T19:26:21+0100
; FORMAT={-:-/ absolute / inch / decimal}
; #@! TF.CreationDate,2026-02-26T19:26:21+01:00
; #@! TF.GenerationSoftware,Kicad,Pcbnew,9.0.0
; #@! TF.FileFunction,Plated,1,4,PTH
FMAT,2
INCH
; #@! TA.AperFunction,Plated,PTH,ComponentDrill
T1C0.0079
; #@! TA.AperFunction,Plated,PTH,ComponentDrill
T2C0.0118
; #@! TA.AperFunction,Plated,PTH,ViaDrill
T3C0.0157
; #@! TA.AperFunction,Plated,PTH,ComponentDrill
T4C0.0157
; #@! TA.AperFunction,Plated,PTH,ComponentDrill
T5C0.0236
; #@! TA.AperFunction,Plated,PTH,ComponentDrill
T6C0.0315
; #@! TA.AperFunction,Plated,PTH,ComponentDrill
T7C0.0354
; #@! TA.AperFunction,Plated,PTH,ComponentDrill
T8C0.0394
%
G90
G05
T1
X7.2339Y-4.5504
X7.2339Y-4.6055
X7.2615Y-4.5228
X7.2615Y-4.578
X7.2615Y-4.6331
X7.2891Y-4.5504
X7.2891Y-4.6055
X7.3166Y-4.5228
X7.3166Y-4.578
X7.3166Y-4.6331
X7.3442Y-4.5504
X7.3442Y-4.6055
T2
X7.439Y-3.8201
X7.4783Y-3.8201
X7.5177Y-3.8201
T3
X6.6161Y-4.2126
X6.622Y-3.5079
X6.6496Y-3.6594
X6.7323Y-3.6594
X6.8071Y-4.2126
X6.811Y-3.7421
X6.8465Y-3.5079
X6.8465Y-3.5906
X6.8855Y-4.8819
X6.9114Y-3.5059
X6.9488Y-3.8189
X6.9866Y-3.9417
X7.013Y-3.8878
X7.2913Y-3.9295
X7.311Y-4.0512
X7.5689Y-3.6122
X7.6299Y-4.8319
X7.6299Y-4.8819
X7.7323Y-3.7933
X7.7677Y-4.4528
X7.7697Y-4.1772
X7.7795Y-4.8819
X7.8346Y-4.6378
T4
X7.6583Y-4.2026
X7.6583Y-4.2361
X7.6583Y-4.2695
X7.6583Y-4.303
X7.6583Y-4.3365
X7.6583Y-4.3699
X7.6583Y-4.4034
X7.6583Y-4.4369
X7.7115Y-4.2026
X7.7115Y-4.2361
X7.7115Y-4.2695
X7.7115Y-4.303
X7.7115Y-4.3365
X7.7115Y-4.3699
X7.7115Y-4.4034
X7.7115Y-4.4369
T6
X3.7128Y-2.6191
X3.8112Y-2.6191
X4.028Y-3.064
X4.1264Y-3.064
T7
X7.6038Y-3.5266
X7.6038Y-3.7037
X7.6826Y-3.5266
X7.6826Y-3.7037
X7.7613Y-3.5266
X7.7613Y-3.7037
T8
X3.0353Y-1.3711
X3.0353Y-1.4711
X3.0353Y-1.5711
X3.0353Y-1.6711
X3.0353Y-1.7711
X3.0353Y-1.8711
X3.0353Y-1.9711
X3.0353Y-2.0711
X3.1353Y-1.3711
X3.1353Y-1.4711
X3.1353Y-1.5711
X3.1353Y-1.6711
X3.1353Y-1.7711
X3.1353Y-1.8711
X3.1353Y-1.9711
X3.1353Y-2.0711
X4.0116Y-1.9514
X4.0116Y-2.0514
X4.0116Y-2.1109
X4.0116Y-2.2109
X5.7854Y-3.8961
X5.7854Y-3.9961
X5.7874Y-4.4965
X5.7874Y-4.5965
X5.7874Y-4.7425
X5.7874Y-4.8425
X5.9319Y-4.8425
X6.0319Y-4.8425
X6.1319Y-4.8425
X6.1713Y-1.7116
X6.1713Y-1.8116
X6.2319Y-4.8425
X6.3319Y-4.8425
X6.4319Y-4.8425
X6.437Y-2.1742
X6.437Y-2.2742
X6.5319Y-4.8425
X6.6476Y-0.8327
X6.6476Y-0.9327
X6.6476Y-1.0327
X6.6476Y-1.1327
X6.6476Y-1.2327
X6.6476Y-1.3327
X6.6535Y-2.1053
X6.6535Y-2.2053
T5
G00X7.7265Y-4.1494
M15
G01X7.6674Y-4.1494
M16
G05
G00X7.7265Y-4.49
M15
G01X7.6674Y-4.49
M16
G05
G00X7.8457Y-4.1494
M15
G01X7.8143Y-4.1494
M16
G05
G00X7.8457Y-4.49
M15
G01X7.8143Y-4.49
M16
G05
M30
