%TF.GenerationSoftware,KiCad,Pcbnew,9.0.0*%
%TF.CreationDate,2026-02-26T19:26:21+01:00*%
%TF.ProjectId,LaserOps_PCB,4c617365-724f-4707-935f-5043422e6b69,rev?*%
%TF.SameCoordinates,Original*%
%TF.FileFunction,Soldermask,Top*%
%TF.FilePolarity,Negative*%
%FSLAX46Y46*%
G04 Gerber Fmt 4.6, Leading zero omitted, Abs format (unit mm)*
G04 Created by KiCad (PCBNEW 9.0.0) date 2026-02-26 19:26:21*
%MOMM*%
%LPD*%
G01*
G04 APERTURE LIST*
G04 Aperture macros list*
%AMRoundRect*
0 Rectangle with rounded corners*
0 $1 Rounding radius*
0 $2 $3 $4 $5 $6 $7 $8 $9 X,Y pos of 4 corners*
0 Add a 4 corners polygon primitive as box body*
4,1,4,$2,$3,$4,$5,$6,$7,$8,$9,$2,$3,0*
0 Add four circle primitives for the rounded corners*
1,1,$1+$1,$2,$3*
1,1,$1+$1,$4,$5*
1,1,$1+$1,$6,$7*
1,1,$1+$1,$8,$9*
0 Add four rect primitives between the rounded corners*
20,1,$1+$1,$2,$3,$4,$5,0*
20,1,$1+$1,$4,$5,$6,$7,0*
20,1,$1+$1,$6,$7,$8,$9,0*
20,1,$1+$1,$8,$9,$2,$3,0*%
%AMFreePoly0*
4,1,23,0.550000,-0.750000,0.000000,-0.750000,0.000000,-0.745722,-0.065263,-0.745722,-0.191342,-0.711940,-0.304381,-0.646677,-0.396677,-0.554381,-0.461940,-0.441342,-0.495722,-0.315263,-0.495722,-0.250000,-0.500000,-0.250000,-0.500000,0.250000,-0.495722,0.250000,-0.495722,0.315263,-0.461940,0.441342,-0.396677,0.554381,-0.304381,0.646677,-0.191342,0.711940,-0.065263,0.745722,0.000000,0.745722,
0.000000,0.750000,0.550000,0.750000,0.550000,-0.750000,0.550000,-0.750000,$1*%
%AMFreePoly1*
4,1,23,0.000000,0.745722,0.065263,0.745722,0.191342,0.711940,0.304381,0.646677,0.396677,0.554381,0.461940,0.441342,0.495722,0.315263,0.495722,0.250000,0.500000,0.250000,0.500000,-0.250000,0.495722,-0.250000,0.495722,-0.315263,0.461940,-0.441342,0.396677,-0.554381,0.304381,-0.646677,0.191342,-0.711940,0.065263,-0.745722,0.000000,-0.745722,0.000000,-0.750000,-0.550000,-0.750000,
-0.550000,0.750000,0.000000,0.750000,0.000000,0.745722,0.000000,0.745722,$1*%
%AMFreePoly2*
4,1,23,0.500000,-0.750000,0.000000,-0.750000,0.000000,-0.745722,-0.065263,-0.745722,-0.191342,-0.711940,-0.304381,-0.646677,-0.396677,-0.554381,-0.461940,-0.441342,-0.495722,-0.315263,-0.495722,-0.250000,-0.500000,-0.250000,-0.500000,0.250000,-0.495722,0.250000,-0.495722,0.315263,-0.461940,0.441342,-0.396677,0.554381,-0.304381,0.646677,-0.191342,0.711940,-0.065263,0.745722,0.000000,0.745722,
0.000000,0.750000,0.500000,0.750000,0.500000,-0.750000,0.500000,-0.750000,$1*%
%AMFreePoly3*
4,1,23,0.000000,0.745722,0.065263,0.745722,0.191342,0.711940,0.304381,0.646677,0.396677,0.554381,0.461940,0.441342,0.495722,0.315263,0.495722,0.250000,0.500000,0.250000,0.500000,-0.250000,0.495722,-0.250000,0.495722,-0.315263,0.461940,-0.441342,0.396677,-0.554381,0.304381,-0.646677,0.191342,-0.711940,0.065263,-0.745722,0.000000,-0.745722,0.000000,-0.750000,-0.500000,-0.750000,
-0.500000,0.750000,0.000000,0.750000,0.000000,0.745722,0.000000,0.745722,$1*%
G04 Aperture macros list end*
%ADD10RoundRect,0.267317X-0.280683X-0.470683X0.280683X-0.470683X0.280683X0.470683X-0.280683X0.470683X0*%
%ADD11RoundRect,0.249999X1.425001X-0.450001X1.425001X0.450001X-1.425001X0.450001X-1.425001X-0.450001X0*%
%ADD12RoundRect,0.267317X0.470683X-0.280683X0.470683X0.280683X-0.470683X0.280683X-0.470683X-0.280683X0*%
%ADD13C,3.000000*%
%ADD14RoundRect,0.150000X-0.512500X-0.150000X0.512500X-0.150000X0.512500X0.150000X-0.512500X0.150000X0*%
%ADD15RoundRect,0.267317X-0.470683X0.280683X-0.470683X-0.280683X0.470683X-0.280683X0.470683X0.280683X0*%
%ADD16RoundRect,0.269000X-0.494000X0.269000X-0.494000X-0.269000X0.494000X-0.269000X0.494000X0.269000X0*%
%ADD17RoundRect,0.269000X0.269000X0.494000X-0.269000X0.494000X-0.269000X-0.494000X0.269000X-0.494000X0*%
%ADD18RoundRect,0.269000X-0.269000X-0.494000X0.269000X-0.494000X0.269000X0.494000X-0.269000X0.494000X0*%
%ADD19RoundRect,0.269000X0.494000X-0.269000X0.494000X0.269000X-0.494000X0.269000X-0.494000X-0.269000X0*%
%ADD20C,1.800000*%
%ADD21RoundRect,0.249999X-0.450001X-1.425001X0.450001X-1.425001X0.450001X1.425001X-0.450001X1.425001X0*%
%ADD22R,1.700000X1.700000*%
%ADD23O,1.700000X1.700000*%
%ADD24R,2.469157X0.622132*%
%ADD25RoundRect,0.150000X-0.400000X-0.150000X0.400000X-0.150000X0.400000X0.150000X-0.400000X0.150000X0*%
%ADD26RoundRect,0.150000X-0.150000X0.400000X-0.150000X-0.400000X0.150000X-0.400000X0.150000X0.400000X0*%
%ADD27RoundRect,0.087500X-0.187500X-0.087500X0.187500X-0.087500X0.187500X0.087500X-0.187500X0.087500X0*%
%ADD28RoundRect,0.087500X-0.087500X-0.187500X0.087500X-0.187500X0.087500X0.187500X-0.087500X0.187500X0*%
%ADD29RoundRect,0.102000X-0.762000X-0.228600X0.762000X-0.228600X0.762000X0.228600X-0.762000X0.228600X0*%
%ADD30RoundRect,0.062500X-0.350000X-0.062500X0.350000X-0.062500X0.350000X0.062500X-0.350000X0.062500X0*%
%ADD31RoundRect,0.062500X-0.062500X-0.350000X0.062500X-0.350000X0.062500X0.350000X-0.062500X0.350000X0*%
%ADD32R,1.230000X1.230000*%
%ADD33R,1.500000X0.900000*%
%ADD34R,0.900000X1.500000*%
%ADD35C,0.600000*%
%ADD36R,3.900000X3.900000*%
%ADD37RoundRect,0.250000X-0.300000X1.000000X-0.300000X-1.000000X0.300000X-1.000000X0.300000X1.000000X0*%
%ADD38C,0.500000*%
%ADD39RoundRect,0.250000X-1.550000X0.920000X-1.550000X-0.920000X1.550000X-0.920000X1.550000X0.920000X0*%
%ADD40RoundRect,0.250000X-0.350000X-0.450000X0.350000X-0.450000X0.350000X0.450000X-0.350000X0.450000X0*%
%ADD41RoundRect,0.150000X-0.590000X-0.150000X0.590000X-0.150000X0.590000X0.150000X-0.590000X0.150000X0*%
%ADD42RoundRect,0.102000X-0.486000X-0.401000X0.486000X-0.401000X0.486000X0.401000X-0.486000X0.401000X0*%
%ADD43FreePoly0,0.000000*%
%ADD44R,1.000000X1.500000*%
%ADD45FreePoly1,0.000000*%
%ADD46FreePoly2,0.000000*%
%ADD47FreePoly3,0.000000*%
%ADD48C,0.700000*%
%ADD49O,2.400000X0.900000*%
%ADD50O,1.700000X0.900000*%
%ADD51RoundRect,0.267273X-0.320727X-0.570727X0.320727X-0.570727X0.320727X0.570727X-0.320727X0.570727X0*%
%ADD52RoundRect,0.266521X-0.346479X-0.671479X0.346479X-0.671479X0.346479X0.671479X-0.346479X0.671479X0*%
%ADD53R,1.600000X1.600000*%
%ADD54C,1.600000*%
%ADD55RoundRect,0.264074X-0.473926X-0.448926X0.473926X-0.448926X0.473926X0.448926X-0.473926X0.448926X0*%
G04 APERTURE END LIST*
%TO.C,JP8*%
G36*
X97555600Y-40626400D02*
G01*
X99055600Y-40626400D01*
X99055600Y-42126400D01*
X97555600Y-42126400D01*
X97555600Y-40626400D01*
G37*
%TO.C,JP7*%
G36*
X97555600Y-37076400D02*
G01*
X99055600Y-37076400D01*
X99055600Y-38576400D01*
X97555600Y-38576400D01*
X97555600Y-37076400D01*
G37*
%TO.C,JP6*%
G36*
X97555600Y-33526400D02*
G01*
X99055600Y-33526400D01*
X99055600Y-35026400D01*
X97555600Y-35026400D01*
X97555600Y-33526400D01*
G37*
%TO.C,JP5*%
G36*
X43795600Y-68576400D02*
G01*
X45295600Y-68576400D01*
X45295600Y-70076400D01*
X43795600Y-70076400D01*
X43795600Y-68576400D01*
G37*
%TO.C,JP1*%
G36*
X107855600Y-39576400D02*
G01*
X108155600Y-39576400D01*
X108155600Y-41076400D01*
X107855600Y-41076400D01*
X107855600Y-39576400D01*
G37*
%TD*%
D10*
%TO.C,R6*%
X193140000Y-96350000D03*
X194960000Y-96350000D03*
%TD*%
D11*
%TO.C,R10*%
X188500000Y-94550000D03*
X188500000Y-88450000D03*
%TD*%
D12*
%TO.C,R17*%
X180000000Y-95950000D03*
X180000000Y-94130000D03*
%TD*%
%TO.C,R9*%
X180000000Y-92510000D03*
X180000000Y-90690000D03*
%TD*%
D13*
%TO.C,TP2*%
X184350000Y-91100000D03*
%TD*%
D14*
%TO.C,U3*%
X174962500Y-94100000D03*
X174962500Y-95050000D03*
X174962500Y-96000000D03*
X177237500Y-96000000D03*
X177237500Y-95050000D03*
X177237500Y-94100000D03*
%TD*%
D15*
%TO.C,R22*%
X182000000Y-94120000D03*
X182000000Y-95940000D03*
%TD*%
D16*
%TO.C,C4*%
X184050000Y-94050000D03*
X184050000Y-95950000D03*
%TD*%
D17*
%TO.C,C2*%
X178300000Y-92300000D03*
X176400000Y-92300000D03*
%TD*%
D18*
%TO.C,C7*%
X170600000Y-91200000D03*
X172500000Y-91200000D03*
%TD*%
D19*
%TO.C,C11*%
X171000000Y-96000000D03*
X171000000Y-94100000D03*
%TD*%
D18*
%TO.C,C12*%
X170600000Y-89100000D03*
X172500000Y-89100000D03*
%TD*%
D19*
%TO.C,C13*%
X168900000Y-96000000D03*
X168900000Y-94100000D03*
%TD*%
D20*
%TO.C,SW5*%
X197137500Y-89575000D03*
X195137500Y-89575000D03*
X193137500Y-89575000D03*
X197137500Y-94075000D03*
X195137500Y-94075000D03*
X193137500Y-94075000D03*
%TD*%
D21*
%TO.C,R3*%
X130050000Y-38000000D03*
X123950000Y-38000000D03*
%TD*%
D22*
%TO.C,SW3*%
X101895600Y-53616400D03*
D23*
X101895600Y-56156400D03*
%TD*%
D22*
%TO.C,SW2*%
X101895600Y-49566400D03*
D23*
X101895600Y-52106400D03*
%TD*%
D22*
%TO.C,J3*%
X168850000Y-21150000D03*
D23*
X168850000Y-23690000D03*
X168850000Y-26230000D03*
X168850000Y-28770000D03*
X168850000Y-31310000D03*
X168850000Y-33850000D03*
%TD*%
D22*
%TO.C,BT2*%
X146950000Y-98960000D03*
D23*
X146950000Y-101500000D03*
%TD*%
D24*
%TO.C,U9*%
X104451202Y-32676500D03*
X104451202Y-33946500D03*
X104451202Y-35216500D03*
X104451202Y-36486500D03*
X109278400Y-36486500D03*
X109278400Y-35216500D03*
X109278400Y-33946500D03*
X109278400Y-32676500D03*
%TD*%
D25*
%TO.C,U8*%
X104780600Y-41626400D03*
X104780600Y-40676400D03*
X104780600Y-39726400D03*
X102180600Y-39726400D03*
X102180600Y-41626400D03*
%TD*%
D26*
%TO.C,U7*%
X177160000Y-101370000D03*
X178110000Y-101370000D03*
X179060000Y-101370000D03*
X179060000Y-98770000D03*
X177160000Y-98770000D03*
%TD*%
D27*
%TO.C,U6*%
X106435600Y-57501400D03*
X106435600Y-58001400D03*
X106435600Y-58501400D03*
X106435600Y-59001400D03*
X106435600Y-59501400D03*
D28*
X107160600Y-59726400D03*
X107660600Y-59726400D03*
X108160600Y-59726400D03*
D27*
X108885600Y-59501400D03*
X108885600Y-59001400D03*
X108885600Y-58501400D03*
X108885600Y-58001400D03*
X108885600Y-57501400D03*
D28*
X108160600Y-57276400D03*
X107660600Y-57276400D03*
X107160600Y-57276400D03*
%TD*%
D29*
%TO.C,U5*%
X104792600Y-26411000D03*
X104792600Y-27046000D03*
X104792600Y-27706400D03*
X104792600Y-28341400D03*
X108856600Y-28341400D03*
X108856600Y-27706400D03*
X108856600Y-27046000D03*
X108856600Y-26411000D03*
%TD*%
D30*
%TO.C,U4*%
X75958100Y-56776400D03*
X75958100Y-57276400D03*
X75958100Y-57776400D03*
X75958100Y-58276400D03*
D31*
X76645600Y-58963900D03*
X77145600Y-58963900D03*
X77645600Y-58963900D03*
X78145600Y-58963900D03*
D30*
X78833100Y-58276400D03*
X78833100Y-57776400D03*
X78833100Y-57276400D03*
X78833100Y-56776400D03*
D31*
X78145600Y-56088900D03*
X77645600Y-56088900D03*
X77145600Y-56088900D03*
X76645600Y-56088900D03*
D32*
X77395600Y-57526400D03*
%TD*%
D33*
%TO.C,U2*%
X192392000Y-124000000D03*
X192392000Y-122730000D03*
X192392000Y-121460000D03*
X192392000Y-120190000D03*
X192392000Y-118920000D03*
X192392000Y-117650000D03*
X192392000Y-116380000D03*
X192392000Y-115110000D03*
X192392000Y-113840000D03*
X192392000Y-112570000D03*
X192392000Y-111300000D03*
X192392000Y-110030000D03*
X192392000Y-108760000D03*
X192392000Y-107490000D03*
D34*
X190627000Y-106240000D03*
X189357000Y-106240000D03*
X188087000Y-106240000D03*
X186817000Y-106240000D03*
X185547000Y-106240000D03*
X184277000Y-106240000D03*
X183007000Y-106240000D03*
X181737000Y-106240000D03*
X180467000Y-106240000D03*
X179197000Y-106240000D03*
X177927000Y-106240000D03*
X176657000Y-106240000D03*
D33*
X174892000Y-107490000D03*
X174892000Y-108760000D03*
X174892000Y-110030000D03*
X174892000Y-111300000D03*
X174892000Y-112570000D03*
X174892000Y-113840000D03*
X174892000Y-115110000D03*
X174892000Y-116380000D03*
X174892000Y-117650000D03*
X174892000Y-118920000D03*
X174892000Y-120190000D03*
X174892000Y-121460000D03*
X174892000Y-122730000D03*
X174892000Y-124000000D03*
D35*
X186542000Y-116980000D03*
X186542000Y-115580000D03*
X185842000Y-117680000D03*
X185842000Y-116280000D03*
X185842000Y-114880000D03*
X185142000Y-116980000D03*
D36*
X185142000Y-116280000D03*
D35*
X185142000Y-115580000D03*
X184442000Y-117680000D03*
X184442000Y-116280000D03*
X184442000Y-114880000D03*
X183742000Y-116980000D03*
X183742000Y-115580000D03*
%TD*%
D37*
%TO.C,U1*%
X187650000Y-103000000D03*
X189950000Y-103000000D03*
X192250000Y-103000000D03*
D38*
X190950000Y-97030000D03*
X189950000Y-97030000D03*
D39*
X189950000Y-97030000D03*
D38*
X188950000Y-97030000D03*
%TD*%
D13*
%TO.C,TP1*%
X206250000Y-75500000D03*
%TD*%
D10*
%TO.C,R26*%
X69615600Y-59826400D03*
X71435600Y-59826400D03*
%TD*%
%TO.C,R25*%
X69615600Y-56876400D03*
X71435600Y-56876400D03*
%TD*%
%TO.C,R24*%
X83265600Y-54626400D03*
X85085600Y-54626400D03*
%TD*%
%TO.C,R23*%
X83265600Y-51676400D03*
X85085600Y-51676400D03*
%TD*%
%TO.C,R21*%
X83265600Y-48726400D03*
X85085600Y-48726400D03*
%TD*%
%TO.C,R20*%
X83265600Y-45776400D03*
X85085600Y-45776400D03*
%TD*%
%TO.C,R19*%
X183290000Y-101400000D03*
X185110000Y-101400000D03*
%TD*%
%TO.C,R18*%
X69615600Y-53926400D03*
X71435600Y-53926400D03*
%TD*%
D12*
%TO.C,R16*%
X175560000Y-99210000D03*
X175560000Y-101030000D03*
%TD*%
D40*
%TO.C,R15*%
X96855600Y-59776400D03*
X98855600Y-59776400D03*
%TD*%
%TO.C,R14*%
X96855600Y-56826400D03*
X98855600Y-56826400D03*
%TD*%
%TO.C,R13*%
X96855600Y-53876400D03*
X98855600Y-53876400D03*
%TD*%
D10*
%TO.C,R12*%
X69615600Y-50976400D03*
X71435600Y-50976400D03*
%TD*%
%TO.C,R11*%
X69615600Y-48026400D03*
X71435600Y-48026400D03*
%TD*%
%TO.C,R8*%
X83265600Y-42826400D03*
X85085600Y-42826400D03*
%TD*%
%TO.C,R7*%
X83265600Y-39876400D03*
X85085600Y-39876400D03*
%TD*%
%TO.C,R5*%
X83265600Y-36926400D03*
X85085600Y-36926400D03*
%TD*%
%TO.C,R4*%
X83265600Y-33976400D03*
X85085600Y-33976400D03*
%TD*%
D15*
%TO.C,R2*%
X180660000Y-99210000D03*
X180660000Y-101030000D03*
%TD*%
D10*
%TO.C,R1*%
X69615600Y-45076400D03*
X71435600Y-45076400D03*
%TD*%
D41*
%TO.C,Q9*%
X96985600Y-49226400D03*
X96985600Y-51126400D03*
X98865600Y-50176400D03*
%TD*%
%TO.C,Q8*%
X96985600Y-44601400D03*
X96985600Y-46501400D03*
X98865600Y-45551400D03*
%TD*%
%TO.C,Q2*%
X183470000Y-97700000D03*
X183470000Y-99600000D03*
X185350000Y-98650000D03*
%TD*%
D42*
%TO.C,Q1*%
X102320600Y-57426400D03*
X102320600Y-59326400D03*
X104090600Y-58376400D03*
%TD*%
D43*
%TO.C,JP8*%
X97005600Y-41376400D03*
D44*
X98305600Y-41376400D03*
D45*
X99605600Y-41376400D03*
%TD*%
D43*
%TO.C,JP7*%
X97005600Y-37826400D03*
D44*
X98305600Y-37826400D03*
D45*
X99605600Y-37826400D03*
%TD*%
D43*
%TO.C,JP6*%
X97005600Y-34276400D03*
D44*
X98305600Y-34276400D03*
D45*
X99605600Y-34276400D03*
%TD*%
D43*
%TO.C,JP5*%
X43245600Y-69326400D03*
D44*
X44545600Y-69326400D03*
D45*
X45845600Y-69326400D03*
%TD*%
D46*
%TO.C,JP1*%
X107355600Y-40326400D03*
D47*
X108655600Y-40326400D03*
%TD*%
D22*
%TO.C,J9*%
X156750000Y-43475000D03*
D23*
X156750000Y-46015000D03*
%TD*%
D22*
%TO.C,J8*%
X150670000Y-123000000D03*
D23*
X153210000Y-123000000D03*
X155750000Y-123000000D03*
X158290000Y-123000000D03*
X160830000Y-123000000D03*
X163370000Y-123000000D03*
X165910000Y-123000000D03*
%TD*%
D22*
%TO.C,J7*%
X169000000Y-53475000D03*
D23*
X169000000Y-56015000D03*
%TD*%
D22*
%TO.C,J6*%
X147000000Y-120460000D03*
D23*
X147000000Y-123000000D03*
%TD*%
D22*
%TO.C,J5*%
X147000000Y-114210000D03*
D23*
X147000000Y-116750000D03*
%TD*%
D48*
%TO.C,J4*%
X194522000Y-106746000D03*
X194522000Y-107596000D03*
X194522000Y-108446000D03*
X194522000Y-109296000D03*
X194522000Y-110146000D03*
X194522000Y-110996000D03*
X194522000Y-111846000D03*
X194522000Y-112696000D03*
X195872000Y-112696000D03*
X195872000Y-111846000D03*
X195872000Y-110996000D03*
X195872000Y-110146000D03*
X195872000Y-109296000D03*
X195872000Y-108446000D03*
X195872000Y-107596000D03*
X195872000Y-106746000D03*
D49*
X195502000Y-105396000D03*
D50*
X198882000Y-105396000D03*
D49*
X195502000Y-114046000D03*
D50*
X198882000Y-114046000D03*
%TD*%
D22*
%TO.C,J2*%
X163500000Y-55225000D03*
D23*
X163500000Y-57765000D03*
%TD*%
D51*
%TO.C,D2*%
X99405600Y-30326400D03*
X102205600Y-30326400D03*
%TD*%
%TO.C,D1*%
X99405600Y-26976400D03*
X102205600Y-26976400D03*
%TD*%
D22*
%TO.C,Camera_Interface1*%
X77095600Y-34826400D03*
D23*
X79635600Y-34826400D03*
X77095600Y-37366400D03*
X79635600Y-37366400D03*
X77095600Y-39906400D03*
X79635600Y-39906400D03*
X77095600Y-42446400D03*
X79635600Y-42446400D03*
X77095600Y-44986400D03*
X79635600Y-44986400D03*
X77095600Y-47526400D03*
X79635600Y-47526400D03*
X77095600Y-50066400D03*
X79635600Y-50066400D03*
X77095600Y-52606400D03*
X79635600Y-52606400D03*
%TD*%
D18*
%TO.C,C29*%
X92305600Y-46226400D03*
X94205600Y-46226400D03*
%TD*%
%TO.C,C28*%
X92305600Y-43176400D03*
X94205600Y-43176400D03*
%TD*%
%TO.C,C27*%
X92305600Y-40126400D03*
X94205600Y-40126400D03*
%TD*%
D52*
%TO.C,C26*%
X76115600Y-85026400D03*
X79075600Y-85026400D03*
%TD*%
%TO.C,C25*%
X76115600Y-81676400D03*
X79075600Y-81676400D03*
%TD*%
%TO.C,C24*%
X76115600Y-78326400D03*
X79075600Y-78326400D03*
%TD*%
%TO.C,C23*%
X76115600Y-74976400D03*
X79075600Y-74976400D03*
%TD*%
%TO.C,C22*%
X76115600Y-71626400D03*
X79075600Y-71626400D03*
%TD*%
D53*
%TO.C,C21*%
X102310841Y-77826400D03*
D54*
X104810841Y-77826400D03*
%TD*%
D53*
%TO.C,C20*%
X94305375Y-66526400D03*
D54*
X96805375Y-66526400D03*
%TD*%
D52*
%TO.C,C19*%
X76115600Y-68276400D03*
X79075600Y-68276400D03*
%TD*%
%TO.C,C18*%
X76115600Y-64926400D03*
X79075600Y-64926400D03*
%TD*%
D18*
%TO.C,C17*%
X92305600Y-37076400D03*
X94205600Y-37076400D03*
%TD*%
D16*
%TO.C,C16*%
X199050000Y-119100000D03*
X199050000Y-121000000D03*
%TD*%
D18*
%TO.C,C15*%
X168050000Y-107000000D03*
X169950000Y-107000000D03*
%TD*%
%TO.C,C14*%
X69595600Y-35976400D03*
X71495600Y-35976400D03*
%TD*%
%TO.C,C10*%
X92305600Y-34026400D03*
X94205600Y-34026400D03*
%TD*%
%TO.C,C9*%
X194050000Y-103000000D03*
X195950000Y-103000000D03*
%TD*%
%TO.C,C8*%
X69595600Y-32926400D03*
X71495600Y-32926400D03*
%TD*%
%TO.C,C6*%
X69595600Y-29876400D03*
X71495600Y-29876400D03*
%TD*%
D55*
%TO.C,C5*%
X194650000Y-100700000D03*
X197350000Y-100700000D03*
%TD*%
D18*
%TO.C,C3*%
X69595600Y-26826400D03*
X71495600Y-26826400D03*
%TD*%
D55*
%TO.C,C1*%
X194650000Y-98450000D03*
X197350000Y-98450000D03*
%TD*%
M02*
