%TF.GenerationSoftware,KiCad,Pcbnew,9.0.0*%
%TF.CreationDate,2026-02-26T19:26:21+01:00*%
%TF.ProjectId,LaserOps_PCB,4c617365-724f-4707-935f-5043422e6b69,rev?*%
%TF.SameCoordinates,Original*%
%TF.FileFunction,Legend,Top*%
%TF.FilePolarity,Positive*%
%FSLAX46Y46*%
G04 Gerber Fmt 4.6, Leading zero omitted, Abs format (unit mm)*
G04 Created by KiCad (PCBNEW 9.0.0) date 2026-02-26 19:26:21*
%MOMM*%
%LPD*%
G01*
G04 APERTURE LIST*
G04 Aperture macros list*
%AMRoundRect*
0 Rectangle with rounded corners*
0 $1 Rounding radius*
0 $2 $3 $4 $5 $6 $7 $8 $9 X,Y pos of 4 corners*
0 Add a 4 corners polygon primitive as box body*
4,1,4,$2,$3,$4,$5,$6,$7,$8,$9,$2,$3,0*
0 Add four circle primitives for the rounded corners*
1,1,$1+$1,$2,$3*
1,1,$1+$1,$4,$5*
1,1,$1+$1,$6,$7*
1,1,$1+$1,$8,$9*
0 Add four rect primitives between the rounded corners*
20,1,$1+$1,$2,$3,$4,$5,0*
20,1,$1+$1,$4,$5,$6,$7,0*
20,1,$1+$1,$6,$7,$8,$9,0*
20,1,$1+$1,$8,$9,$2,$3,0*%
%AMFreePoly0*
4,1,23,0.550000,-0.750000,0.000000,-0.750000,0.000000,-0.745722,-0.065263,-0.745722,-0.191342,-0.711940,-0.304381,-0.646677,-0.396677,-0.554381,-0.461940,-0.441342,-0.495722,-0.315263,-0.495722,-0.250000,-0.500000,-0.250000,-0.500000,0.250000,-0.495722,0.250000,-0.495722,0.315263,-0.461940,0.441342,-0.396677,0.554381,-0.304381,0.646677,-0.191342,0.711940,-0.065263,0.745722,0.000000,0.745722,
0.000000,0.750000,0.550000,0.750000,0.550000,-0.750000,0.550000,-0.750000,$1*%
%AMFreePoly1*
4,1,23,0.000000,0.745722,0.065263,0.745722,0.191342,0.711940,0.304381,0.646677,0.396677,0.554381,0.461940,0.441342,0.495722,0.315263,0.495722,0.250000,0.500000,0.250000,0.500000,-0.250000,0.495722,-0.250000,0.495722,-0.315263,0.461940,-0.441342,0.396677,-0.554381,0.304381,-0.646677,0.191342,-0.711940,0.065263,-0.745722,0.000000,-0.745722,0.000000,-0.750000,-0.550000,-0.750000,
-0.550000,0.750000,0.000000,0.750000,0.000000,0.745722,0.000000,0.745722,$1*%
%AMFreePoly2*
4,1,23,0.500000,-0.750000,0.000000,-0.750000,0.000000,-0.745722,-0.065263,-0.745722,-0.191342,-0.711940,-0.304381,-0.646677,-0.396677,-0.554381,-0.461940,-0.441342,-0.495722,-0.315263,-0.495722,-0.250000,-0.500000,-0.250000,-0.500000,0.250000,-0.495722,0.250000,-0.495722,0.315263,-0.461940,0.441342,-0.396677,0.554381,-0.304381,0.646677,-0.191342,0.711940,-0.065263,0.745722,0.000000,0.745722,
0.000000,0.750000,0.500000,0.750000,0.500000,-0.750000,0.500000,-0.750000,$1*%
%AMFreePoly3*
4,1,23,0.000000,0.745722,0.065263,0.745722,0.191342,0.711940,0.304381,0.646677,0.396677,0.554381,0.461940,0.441342,0.495722,0.315263,0.495722,0.250000,0.500000,0.250000,0.500000,-0.250000,0.495722,-0.250000,0.495722,-0.315263,0.461940,-0.441342,0.396677,-0.554381,0.304381,-0.646677,0.191342,-0.711940,0.065263,-0.745722,0.000000,-0.745722,0.000000,-0.750000,-0.500000,-0.750000,
-0.500000,0.750000,0.000000,0.750000,0.000000,0.745722,0.000000,0.745722,$1*%
G04 Aperture macros list end*
%ADD10C,0.150000*%
%ADD11C,0.120000*%
%ADD12C,0.250000*%
%ADD13C,0.152400*%
%ADD14C,0.100000*%
%ADD15C,0.127000*%
%ADD16C,0.200000*%
%ADD17RoundRect,0.267317X-0.280683X-0.470683X0.280683X-0.470683X0.280683X0.470683X-0.280683X0.470683X0*%
%ADD18RoundRect,0.249999X1.425001X-0.450001X1.425001X0.450001X-1.425001X0.450001X-1.425001X-0.450001X0*%
%ADD19RoundRect,0.267317X0.470683X-0.280683X0.470683X0.280683X-0.470683X0.280683X-0.470683X-0.280683X0*%
%ADD20C,3.000000*%
%ADD21RoundRect,0.150000X-0.512500X-0.150000X0.512500X-0.150000X0.512500X0.150000X-0.512500X0.150000X0*%
%ADD22RoundRect,0.267317X-0.470683X0.280683X-0.470683X-0.280683X0.470683X-0.280683X0.470683X0.280683X0*%
%ADD23RoundRect,0.269000X-0.494000X0.269000X-0.494000X-0.269000X0.494000X-0.269000X0.494000X0.269000X0*%
%ADD24RoundRect,0.269000X0.269000X0.494000X-0.269000X0.494000X-0.269000X-0.494000X0.269000X-0.494000X0*%
%ADD25RoundRect,0.269000X-0.269000X-0.494000X0.269000X-0.494000X0.269000X0.494000X-0.269000X0.494000X0*%
%ADD26RoundRect,0.269000X0.494000X-0.269000X0.494000X0.269000X-0.494000X0.269000X-0.494000X-0.269000X0*%
%ADD27C,1.800000*%
%ADD28RoundRect,0.249999X-0.450001X-1.425001X0.450001X-1.425001X0.450001X1.425001X-0.450001X1.425001X0*%
%ADD29R,1.700000X1.700000*%
%ADD30O,1.700000X1.700000*%
%ADD31R,2.469157X0.622132*%
%ADD32RoundRect,0.150000X-0.400000X-0.150000X0.400000X-0.150000X0.400000X0.150000X-0.400000X0.150000X0*%
%ADD33RoundRect,0.150000X-0.150000X0.400000X-0.150000X-0.400000X0.150000X-0.400000X0.150000X0.400000X0*%
%ADD34RoundRect,0.087500X-0.187500X-0.087500X0.187500X-0.087500X0.187500X0.087500X-0.187500X0.087500X0*%
%ADD35RoundRect,0.087500X-0.087500X-0.187500X0.087500X-0.187500X0.087500X0.187500X-0.087500X0.187500X0*%
%ADD36RoundRect,0.102000X-0.762000X-0.228600X0.762000X-0.228600X0.762000X0.228600X-0.762000X0.228600X0*%
%ADD37RoundRect,0.062500X-0.350000X-0.062500X0.350000X-0.062500X0.350000X0.062500X-0.350000X0.062500X0*%
%ADD38RoundRect,0.062500X-0.062500X-0.350000X0.062500X-0.350000X0.062500X0.350000X-0.062500X0.350000X0*%
%ADD39R,1.230000X1.230000*%
%ADD40R,1.500000X0.900000*%
%ADD41R,0.900000X1.500000*%
%ADD42C,0.600000*%
%ADD43R,3.900000X3.900000*%
%ADD44RoundRect,0.250000X-0.300000X1.000000X-0.300000X-1.000000X0.300000X-1.000000X0.300000X1.000000X0*%
%ADD45C,0.500000*%
%ADD46RoundRect,0.250000X-1.550000X0.920000X-1.550000X-0.920000X1.550000X-0.920000X1.550000X0.920000X0*%
%ADD47RoundRect,0.250000X-0.350000X-0.450000X0.350000X-0.450000X0.350000X0.450000X-0.350000X0.450000X0*%
%ADD48RoundRect,0.150000X-0.590000X-0.150000X0.590000X-0.150000X0.590000X0.150000X-0.590000X0.150000X0*%
%ADD49RoundRect,0.102000X-0.486000X-0.401000X0.486000X-0.401000X0.486000X0.401000X-0.486000X0.401000X0*%
%ADD50FreePoly0,0.000000*%
%ADD51R,1.000000X1.500000*%
%ADD52FreePoly1,0.000000*%
%ADD53FreePoly2,0.000000*%
%ADD54FreePoly3,0.000000*%
%ADD55C,0.700000*%
%ADD56O,2.400000X0.900000*%
%ADD57O,1.700000X0.900000*%
%ADD58RoundRect,0.267273X-0.320727X-0.570727X0.320727X-0.570727X0.320727X0.570727X-0.320727X0.570727X0*%
%ADD59RoundRect,0.266521X-0.346479X-0.671479X0.346479X-0.671479X0.346479X0.671479X-0.346479X0.671479X0*%
%ADD60R,1.600000X1.600000*%
%ADD61C,1.600000*%
%ADD62RoundRect,0.264074X-0.473926X-0.448926X0.473926X-0.448926X0.473926X0.448926X-0.473926X0.448926X0*%
G04 APERTURE END LIST*
D10*
X186334819Y-92142857D02*
X185858628Y-92476190D01*
X186334819Y-92714285D02*
X185334819Y-92714285D01*
X185334819Y-92714285D02*
X185334819Y-92333333D01*
X185334819Y-92333333D02*
X185382438Y-92238095D01*
X185382438Y-92238095D02*
X185430057Y-92190476D01*
X185430057Y-92190476D02*
X185525295Y-92142857D01*
X185525295Y-92142857D02*
X185668152Y-92142857D01*
X185668152Y-92142857D02*
X185763390Y-92190476D01*
X185763390Y-92190476D02*
X185811009Y-92238095D01*
X185811009Y-92238095D02*
X185858628Y-92333333D01*
X185858628Y-92333333D02*
X185858628Y-92714285D01*
X186334819Y-91190476D02*
X186334819Y-91761904D01*
X186334819Y-91476190D02*
X185334819Y-91476190D01*
X185334819Y-91476190D02*
X185477676Y-91571428D01*
X185477676Y-91571428D02*
X185572914Y-91666666D01*
X185572914Y-91666666D02*
X185620533Y-91761904D01*
X185334819Y-90571428D02*
X185334819Y-90476190D01*
X185334819Y-90476190D02*
X185382438Y-90380952D01*
X185382438Y-90380952D02*
X185430057Y-90333333D01*
X185430057Y-90333333D02*
X185525295Y-90285714D01*
X185525295Y-90285714D02*
X185715771Y-90238095D01*
X185715771Y-90238095D02*
X185953866Y-90238095D01*
X185953866Y-90238095D02*
X186144342Y-90285714D01*
X186144342Y-90285714D02*
X186239580Y-90333333D01*
X186239580Y-90333333D02*
X186287200Y-90380952D01*
X186287200Y-90380952D02*
X186334819Y-90476190D01*
X186334819Y-90476190D02*
X186334819Y-90571428D01*
X186334819Y-90571428D02*
X186287200Y-90666666D01*
X186287200Y-90666666D02*
X186239580Y-90714285D01*
X186239580Y-90714285D02*
X186144342Y-90761904D01*
X186144342Y-90761904D02*
X185953866Y-90809523D01*
X185953866Y-90809523D02*
X185715771Y-90809523D01*
X185715771Y-90809523D02*
X185525295Y-90761904D01*
X185525295Y-90761904D02*
X185430057Y-90714285D01*
X185430057Y-90714285D02*
X185382438Y-90666666D01*
X185382438Y-90666666D02*
X185334819Y-90571428D01*
X183088095Y-88156819D02*
X183659523Y-88156819D01*
X183373809Y-89156819D02*
X183373809Y-88156819D01*
X183992857Y-89156819D02*
X183992857Y-88156819D01*
X183992857Y-88156819D02*
X184373809Y-88156819D01*
X184373809Y-88156819D02*
X184469047Y-88204438D01*
X184469047Y-88204438D02*
X184516666Y-88252057D01*
X184516666Y-88252057D02*
X184564285Y-88347295D01*
X184564285Y-88347295D02*
X184564285Y-88490152D01*
X184564285Y-88490152D02*
X184516666Y-88585390D01*
X184516666Y-88585390D02*
X184469047Y-88633009D01*
X184469047Y-88633009D02*
X184373809Y-88680628D01*
X184373809Y-88680628D02*
X183992857Y-88680628D01*
X184945238Y-88252057D02*
X184992857Y-88204438D01*
X184992857Y-88204438D02*
X185088095Y-88156819D01*
X185088095Y-88156819D02*
X185326190Y-88156819D01*
X185326190Y-88156819D02*
X185421428Y-88204438D01*
X185421428Y-88204438D02*
X185469047Y-88252057D01*
X185469047Y-88252057D02*
X185516666Y-88347295D01*
X185516666Y-88347295D02*
X185516666Y-88442533D01*
X185516666Y-88442533D02*
X185469047Y-88585390D01*
X185469047Y-88585390D02*
X184897619Y-89156819D01*
X184897619Y-89156819D02*
X185516666Y-89156819D01*
X175338095Y-92104819D02*
X175338095Y-92914342D01*
X175338095Y-92914342D02*
X175385714Y-93009580D01*
X175385714Y-93009580D02*
X175433333Y-93057200D01*
X175433333Y-93057200D02*
X175528571Y-93104819D01*
X175528571Y-93104819D02*
X175719047Y-93104819D01*
X175719047Y-93104819D02*
X175814285Y-93057200D01*
X175814285Y-93057200D02*
X175861904Y-93009580D01*
X175861904Y-93009580D02*
X175909523Y-92914342D01*
X175909523Y-92914342D02*
X175909523Y-92104819D01*
X176290476Y-92104819D02*
X176909523Y-92104819D01*
X176909523Y-92104819D02*
X176576190Y-92485771D01*
X176576190Y-92485771D02*
X176719047Y-92485771D01*
X176719047Y-92485771D02*
X176814285Y-92533390D01*
X176814285Y-92533390D02*
X176861904Y-92581009D01*
X176861904Y-92581009D02*
X176909523Y-92676247D01*
X176909523Y-92676247D02*
X176909523Y-92914342D01*
X176909523Y-92914342D02*
X176861904Y-93009580D01*
X176861904Y-93009580D02*
X176814285Y-93057200D01*
X176814285Y-93057200D02*
X176719047Y-93104819D01*
X176719047Y-93104819D02*
X176433333Y-93104819D01*
X176433333Y-93104819D02*
X176338095Y-93057200D01*
X176338095Y-93057200D02*
X176290476Y-93009580D01*
X126833333Y-35834819D02*
X126500000Y-35358628D01*
X126261905Y-35834819D02*
X126261905Y-34834819D01*
X126261905Y-34834819D02*
X126642857Y-34834819D01*
X126642857Y-34834819D02*
X126738095Y-34882438D01*
X126738095Y-34882438D02*
X126785714Y-34930057D01*
X126785714Y-34930057D02*
X126833333Y-35025295D01*
X126833333Y-35025295D02*
X126833333Y-35168152D01*
X126833333Y-35168152D02*
X126785714Y-35263390D01*
X126785714Y-35263390D02*
X126738095Y-35311009D01*
X126738095Y-35311009D02*
X126642857Y-35358628D01*
X126642857Y-35358628D02*
X126261905Y-35358628D01*
X127166667Y-34834819D02*
X127785714Y-34834819D01*
X127785714Y-34834819D02*
X127452381Y-35215771D01*
X127452381Y-35215771D02*
X127595238Y-35215771D01*
X127595238Y-35215771D02*
X127690476Y-35263390D01*
X127690476Y-35263390D02*
X127738095Y-35311009D01*
X127738095Y-35311009D02*
X127785714Y-35406247D01*
X127785714Y-35406247D02*
X127785714Y-35644342D01*
X127785714Y-35644342D02*
X127738095Y-35739580D01*
X127738095Y-35739580D02*
X127690476Y-35787200D01*
X127690476Y-35787200D02*
X127595238Y-35834819D01*
X127595238Y-35834819D02*
X127309524Y-35834819D01*
X127309524Y-35834819D02*
X127214286Y-35787200D01*
X127214286Y-35787200D02*
X127166667Y-35739580D01*
X100562267Y-51693600D02*
X100705124Y-51741219D01*
X100705124Y-51741219D02*
X100943219Y-51741219D01*
X100943219Y-51741219D02*
X101038457Y-51693600D01*
X101038457Y-51693600D02*
X101086076Y-51645980D01*
X101086076Y-51645980D02*
X101133695Y-51550742D01*
X101133695Y-51550742D02*
X101133695Y-51455504D01*
X101133695Y-51455504D02*
X101086076Y-51360266D01*
X101086076Y-51360266D02*
X101038457Y-51312647D01*
X101038457Y-51312647D02*
X100943219Y-51265028D01*
X100943219Y-51265028D02*
X100752743Y-51217409D01*
X100752743Y-51217409D02*
X100657505Y-51169790D01*
X100657505Y-51169790D02*
X100609886Y-51122171D01*
X100609886Y-51122171D02*
X100562267Y-51026933D01*
X100562267Y-51026933D02*
X100562267Y-50931695D01*
X100562267Y-50931695D02*
X100609886Y-50836457D01*
X100609886Y-50836457D02*
X100657505Y-50788838D01*
X100657505Y-50788838D02*
X100752743Y-50741219D01*
X100752743Y-50741219D02*
X100990838Y-50741219D01*
X100990838Y-50741219D02*
X101133695Y-50788838D01*
X101467029Y-50741219D02*
X101705124Y-51741219D01*
X101705124Y-51741219D02*
X101895600Y-51026933D01*
X101895600Y-51026933D02*
X102086076Y-51741219D01*
X102086076Y-51741219D02*
X102324172Y-50741219D01*
X102609886Y-50741219D02*
X103228933Y-50741219D01*
X103228933Y-50741219D02*
X102895600Y-51122171D01*
X102895600Y-51122171D02*
X103038457Y-51122171D01*
X103038457Y-51122171D02*
X103133695Y-51169790D01*
X103133695Y-51169790D02*
X103181314Y-51217409D01*
X103181314Y-51217409D02*
X103228933Y-51312647D01*
X103228933Y-51312647D02*
X103228933Y-51550742D01*
X103228933Y-51550742D02*
X103181314Y-51645980D01*
X103181314Y-51645980D02*
X103133695Y-51693600D01*
X103133695Y-51693600D02*
X103038457Y-51741219D01*
X103038457Y-51741219D02*
X102752743Y-51741219D01*
X102752743Y-51741219D02*
X102657505Y-51693600D01*
X102657505Y-51693600D02*
X102609886Y-51645980D01*
X100562267Y-47643600D02*
X100705124Y-47691219D01*
X100705124Y-47691219D02*
X100943219Y-47691219D01*
X100943219Y-47691219D02*
X101038457Y-47643600D01*
X101038457Y-47643600D02*
X101086076Y-47595980D01*
X101086076Y-47595980D02*
X101133695Y-47500742D01*
X101133695Y-47500742D02*
X101133695Y-47405504D01*
X101133695Y-47405504D02*
X101086076Y-47310266D01*
X101086076Y-47310266D02*
X101038457Y-47262647D01*
X101038457Y-47262647D02*
X100943219Y-47215028D01*
X100943219Y-47215028D02*
X100752743Y-47167409D01*
X100752743Y-47167409D02*
X100657505Y-47119790D01*
X100657505Y-47119790D02*
X100609886Y-47072171D01*
X100609886Y-47072171D02*
X100562267Y-46976933D01*
X100562267Y-46976933D02*
X100562267Y-46881695D01*
X100562267Y-46881695D02*
X100609886Y-46786457D01*
X100609886Y-46786457D02*
X100657505Y-46738838D01*
X100657505Y-46738838D02*
X100752743Y-46691219D01*
X100752743Y-46691219D02*
X100990838Y-46691219D01*
X100990838Y-46691219D02*
X101133695Y-46738838D01*
X101467029Y-46691219D02*
X101705124Y-47691219D01*
X101705124Y-47691219D02*
X101895600Y-46976933D01*
X101895600Y-46976933D02*
X102086076Y-47691219D01*
X102086076Y-47691219D02*
X102324172Y-46691219D01*
X102657505Y-46786457D02*
X102705124Y-46738838D01*
X102705124Y-46738838D02*
X102800362Y-46691219D01*
X102800362Y-46691219D02*
X103038457Y-46691219D01*
X103038457Y-46691219D02*
X103133695Y-46738838D01*
X103133695Y-46738838D02*
X103181314Y-46786457D01*
X103181314Y-46786457D02*
X103228933Y-46881695D01*
X103228933Y-46881695D02*
X103228933Y-46976933D01*
X103228933Y-46976933D02*
X103181314Y-47119790D01*
X103181314Y-47119790D02*
X102609886Y-47691219D01*
X102609886Y-47691219D02*
X103228933Y-47691219D01*
X168516666Y-18274819D02*
X168516666Y-18989104D01*
X168516666Y-18989104D02*
X168469047Y-19131961D01*
X168469047Y-19131961D02*
X168373809Y-19227200D01*
X168373809Y-19227200D02*
X168230952Y-19274819D01*
X168230952Y-19274819D02*
X168135714Y-19274819D01*
X168897619Y-18274819D02*
X169516666Y-18274819D01*
X169516666Y-18274819D02*
X169183333Y-18655771D01*
X169183333Y-18655771D02*
X169326190Y-18655771D01*
X169326190Y-18655771D02*
X169421428Y-18703390D01*
X169421428Y-18703390D02*
X169469047Y-18751009D01*
X169469047Y-18751009D02*
X169516666Y-18846247D01*
X169516666Y-18846247D02*
X169516666Y-19084342D01*
X169516666Y-19084342D02*
X169469047Y-19179580D01*
X169469047Y-19179580D02*
X169421428Y-19227200D01*
X169421428Y-19227200D02*
X169326190Y-19274819D01*
X169326190Y-19274819D02*
X169040476Y-19274819D01*
X169040476Y-19274819D02*
X168945238Y-19227200D01*
X168945238Y-19227200D02*
X168897619Y-19179580D01*
X146164285Y-96561009D02*
X146307142Y-96608628D01*
X146307142Y-96608628D02*
X146354761Y-96656247D01*
X146354761Y-96656247D02*
X146402380Y-96751485D01*
X146402380Y-96751485D02*
X146402380Y-96894342D01*
X146402380Y-96894342D02*
X146354761Y-96989580D01*
X146354761Y-96989580D02*
X146307142Y-97037200D01*
X146307142Y-97037200D02*
X146211904Y-97084819D01*
X146211904Y-97084819D02*
X145830952Y-97084819D01*
X145830952Y-97084819D02*
X145830952Y-96084819D01*
X145830952Y-96084819D02*
X146164285Y-96084819D01*
X146164285Y-96084819D02*
X146259523Y-96132438D01*
X146259523Y-96132438D02*
X146307142Y-96180057D01*
X146307142Y-96180057D02*
X146354761Y-96275295D01*
X146354761Y-96275295D02*
X146354761Y-96370533D01*
X146354761Y-96370533D02*
X146307142Y-96465771D01*
X146307142Y-96465771D02*
X146259523Y-96513390D01*
X146259523Y-96513390D02*
X146164285Y-96561009D01*
X146164285Y-96561009D02*
X145830952Y-96561009D01*
X146688095Y-96084819D02*
X147259523Y-96084819D01*
X146973809Y-97084819D02*
X146973809Y-96084819D01*
X147545238Y-96180057D02*
X147592857Y-96132438D01*
X147592857Y-96132438D02*
X147688095Y-96084819D01*
X147688095Y-96084819D02*
X147926190Y-96084819D01*
X147926190Y-96084819D02*
X148021428Y-96132438D01*
X148021428Y-96132438D02*
X148069047Y-96180057D01*
X148069047Y-96180057D02*
X148116666Y-96275295D01*
X148116666Y-96275295D02*
X148116666Y-96370533D01*
X148116666Y-96370533D02*
X148069047Y-96513390D01*
X148069047Y-96513390D02*
X147497619Y-97084819D01*
X147497619Y-97084819D02*
X148116666Y-97084819D01*
X106102896Y-34036319D02*
X106102896Y-34845842D01*
X106102896Y-34845842D02*
X106150515Y-34941080D01*
X106150515Y-34941080D02*
X106198134Y-34988700D01*
X106198134Y-34988700D02*
X106293372Y-35036319D01*
X106293372Y-35036319D02*
X106483848Y-35036319D01*
X106483848Y-35036319D02*
X106579086Y-34988700D01*
X106579086Y-34988700D02*
X106626705Y-34941080D01*
X106626705Y-34941080D02*
X106674324Y-34845842D01*
X106674324Y-34845842D02*
X106674324Y-34036319D01*
X107198134Y-35036319D02*
X107388610Y-35036319D01*
X107388610Y-35036319D02*
X107483848Y-34988700D01*
X107483848Y-34988700D02*
X107531467Y-34941080D01*
X107531467Y-34941080D02*
X107626705Y-34798223D01*
X107626705Y-34798223D02*
X107674324Y-34607747D01*
X107674324Y-34607747D02*
X107674324Y-34226795D01*
X107674324Y-34226795D02*
X107626705Y-34131557D01*
X107626705Y-34131557D02*
X107579086Y-34083938D01*
X107579086Y-34083938D02*
X107483848Y-34036319D01*
X107483848Y-34036319D02*
X107293372Y-34036319D01*
X107293372Y-34036319D02*
X107198134Y-34083938D01*
X107198134Y-34083938D02*
X107150515Y-34131557D01*
X107150515Y-34131557D02*
X107102896Y-34226795D01*
X107102896Y-34226795D02*
X107102896Y-34464890D01*
X107102896Y-34464890D02*
X107150515Y-34560128D01*
X107150515Y-34560128D02*
X107198134Y-34607747D01*
X107198134Y-34607747D02*
X107293372Y-34655366D01*
X107293372Y-34655366D02*
X107483848Y-34655366D01*
X107483848Y-34655366D02*
X107579086Y-34607747D01*
X107579086Y-34607747D02*
X107626705Y-34560128D01*
X107626705Y-34560128D02*
X107674324Y-34464890D01*
X97507134Y-30819919D02*
X97507134Y-29819919D01*
X97507134Y-29819919D02*
X97745229Y-29819919D01*
X97745229Y-29819919D02*
X97888086Y-29867538D01*
X97888086Y-29867538D02*
X97983324Y-29962776D01*
X97983324Y-29962776D02*
X98030943Y-30058014D01*
X98030943Y-30058014D02*
X98078562Y-30248490D01*
X98078562Y-30248490D02*
X98078562Y-30391347D01*
X98078562Y-30391347D02*
X98030943Y-30581823D01*
X98030943Y-30581823D02*
X97983324Y-30677061D01*
X97983324Y-30677061D02*
X97888086Y-30772300D01*
X97888086Y-30772300D02*
X97745229Y-30819919D01*
X97745229Y-30819919D02*
X97507134Y-30819919D01*
X98888086Y-30772300D02*
X98792848Y-30819919D01*
X98792848Y-30819919D02*
X98602372Y-30819919D01*
X98602372Y-30819919D02*
X98507134Y-30772300D01*
X98507134Y-30772300D02*
X98459515Y-30677061D01*
X98459515Y-30677061D02*
X98459515Y-30296109D01*
X98459515Y-30296109D02*
X98507134Y-30200871D01*
X98507134Y-30200871D02*
X98602372Y-30153252D01*
X98602372Y-30153252D02*
X98792848Y-30153252D01*
X98792848Y-30153252D02*
X98888086Y-30200871D01*
X98888086Y-30200871D02*
X98935705Y-30296109D01*
X98935705Y-30296109D02*
X98935705Y-30391347D01*
X98935705Y-30391347D02*
X98459515Y-30486585D01*
X99316658Y-30772300D02*
X99411896Y-30819919D01*
X99411896Y-30819919D02*
X99602372Y-30819919D01*
X99602372Y-30819919D02*
X99697610Y-30772300D01*
X99697610Y-30772300D02*
X99745229Y-30677061D01*
X99745229Y-30677061D02*
X99745229Y-30629442D01*
X99745229Y-30629442D02*
X99697610Y-30534204D01*
X99697610Y-30534204D02*
X99602372Y-30486585D01*
X99602372Y-30486585D02*
X99459515Y-30486585D01*
X99459515Y-30486585D02*
X99364277Y-30438966D01*
X99364277Y-30438966D02*
X99316658Y-30343728D01*
X99316658Y-30343728D02*
X99316658Y-30296109D01*
X99316658Y-30296109D02*
X99364277Y-30200871D01*
X99364277Y-30200871D02*
X99459515Y-30153252D01*
X99459515Y-30153252D02*
X99602372Y-30153252D01*
X99602372Y-30153252D02*
X99697610Y-30200871D01*
X100173801Y-30819919D02*
X100173801Y-30153252D01*
X100173801Y-29819919D02*
X100126182Y-29867538D01*
X100126182Y-29867538D02*
X100173801Y-29915157D01*
X100173801Y-29915157D02*
X100221420Y-29867538D01*
X100221420Y-29867538D02*
X100173801Y-29819919D01*
X100173801Y-29819919D02*
X100173801Y-29915157D01*
X101078562Y-30153252D02*
X101078562Y-30962776D01*
X101078562Y-30962776D02*
X101030943Y-31058014D01*
X101030943Y-31058014D02*
X100983324Y-31105633D01*
X100983324Y-31105633D02*
X100888086Y-31153252D01*
X100888086Y-31153252D02*
X100745229Y-31153252D01*
X100745229Y-31153252D02*
X100649991Y-31105633D01*
X101078562Y-30772300D02*
X100983324Y-30819919D01*
X100983324Y-30819919D02*
X100792848Y-30819919D01*
X100792848Y-30819919D02*
X100697610Y-30772300D01*
X100697610Y-30772300D02*
X100649991Y-30724680D01*
X100649991Y-30724680D02*
X100602372Y-30629442D01*
X100602372Y-30629442D02*
X100602372Y-30343728D01*
X100602372Y-30343728D02*
X100649991Y-30248490D01*
X100649991Y-30248490D02*
X100697610Y-30200871D01*
X100697610Y-30200871D02*
X100792848Y-30153252D01*
X100792848Y-30153252D02*
X100983324Y-30153252D01*
X100983324Y-30153252D02*
X101078562Y-30200871D01*
X101554753Y-30153252D02*
X101554753Y-30819919D01*
X101554753Y-30248490D02*
X101602372Y-30200871D01*
X101602372Y-30200871D02*
X101697610Y-30153252D01*
X101697610Y-30153252D02*
X101840467Y-30153252D01*
X101840467Y-30153252D02*
X101935705Y-30200871D01*
X101935705Y-30200871D02*
X101983324Y-30296109D01*
X101983324Y-30296109D02*
X101983324Y-30819919D01*
X102888086Y-30819919D02*
X102888086Y-30296109D01*
X102888086Y-30296109D02*
X102840467Y-30200871D01*
X102840467Y-30200871D02*
X102745229Y-30153252D01*
X102745229Y-30153252D02*
X102554753Y-30153252D01*
X102554753Y-30153252D02*
X102459515Y-30200871D01*
X102888086Y-30772300D02*
X102792848Y-30819919D01*
X102792848Y-30819919D02*
X102554753Y-30819919D01*
X102554753Y-30819919D02*
X102459515Y-30772300D01*
X102459515Y-30772300D02*
X102411896Y-30677061D01*
X102411896Y-30677061D02*
X102411896Y-30581823D01*
X102411896Y-30581823D02*
X102459515Y-30486585D01*
X102459515Y-30486585D02*
X102554753Y-30438966D01*
X102554753Y-30438966D02*
X102792848Y-30438966D01*
X102792848Y-30438966D02*
X102888086Y-30391347D01*
X103221420Y-30153252D02*
X103602372Y-30153252D01*
X103364277Y-29819919D02*
X103364277Y-30677061D01*
X103364277Y-30677061D02*
X103411896Y-30772300D01*
X103411896Y-30772300D02*
X103507134Y-30819919D01*
X103507134Y-30819919D02*
X103602372Y-30819919D01*
X104078563Y-30819919D02*
X103983325Y-30772300D01*
X103983325Y-30772300D02*
X103935706Y-30724680D01*
X103935706Y-30724680D02*
X103888087Y-30629442D01*
X103888087Y-30629442D02*
X103888087Y-30343728D01*
X103888087Y-30343728D02*
X103935706Y-30248490D01*
X103935706Y-30248490D02*
X103983325Y-30200871D01*
X103983325Y-30200871D02*
X104078563Y-30153252D01*
X104078563Y-30153252D02*
X104221420Y-30153252D01*
X104221420Y-30153252D02*
X104316658Y-30200871D01*
X104316658Y-30200871D02*
X104364277Y-30248490D01*
X104364277Y-30248490D02*
X104411896Y-30343728D01*
X104411896Y-30343728D02*
X104411896Y-30629442D01*
X104411896Y-30629442D02*
X104364277Y-30724680D01*
X104364277Y-30724680D02*
X104316658Y-30772300D01*
X104316658Y-30772300D02*
X104221420Y-30819919D01*
X104221420Y-30819919D02*
X104078563Y-30819919D01*
X104840468Y-30819919D02*
X104840468Y-30153252D01*
X104840468Y-30343728D02*
X104888087Y-30248490D01*
X104888087Y-30248490D02*
X104935706Y-30200871D01*
X104935706Y-30200871D02*
X105030944Y-30153252D01*
X105030944Y-30153252D02*
X105126182Y-30153252D01*
X105935706Y-29819919D02*
X105459516Y-29819919D01*
X105459516Y-29819919D02*
X105411897Y-30296109D01*
X105411897Y-30296109D02*
X105459516Y-30248490D01*
X105459516Y-30248490D02*
X105554754Y-30200871D01*
X105554754Y-30200871D02*
X105792849Y-30200871D01*
X105792849Y-30200871D02*
X105888087Y-30248490D01*
X105888087Y-30248490D02*
X105935706Y-30296109D01*
X105935706Y-30296109D02*
X105983325Y-30391347D01*
X105983325Y-30391347D02*
X105983325Y-30629442D01*
X105983325Y-30629442D02*
X105935706Y-30724680D01*
X105935706Y-30724680D02*
X105888087Y-30772300D01*
X105888087Y-30772300D02*
X105792849Y-30819919D01*
X105792849Y-30819919D02*
X105554754Y-30819919D01*
X105554754Y-30819919D02*
X105459516Y-30772300D01*
X105459516Y-30772300D02*
X105411897Y-30724680D01*
X106888087Y-29819919D02*
X106411897Y-29819919D01*
X106411897Y-29819919D02*
X106364278Y-30296109D01*
X106364278Y-30296109D02*
X106411897Y-30248490D01*
X106411897Y-30248490D02*
X106507135Y-30200871D01*
X106507135Y-30200871D02*
X106745230Y-30200871D01*
X106745230Y-30200871D02*
X106840468Y-30248490D01*
X106840468Y-30248490D02*
X106888087Y-30296109D01*
X106888087Y-30296109D02*
X106935706Y-30391347D01*
X106935706Y-30391347D02*
X106935706Y-30629442D01*
X106935706Y-30629442D02*
X106888087Y-30724680D01*
X106888087Y-30724680D02*
X106840468Y-30772300D01*
X106840468Y-30772300D02*
X106745230Y-30819919D01*
X106745230Y-30819919D02*
X106507135Y-30819919D01*
X106507135Y-30819919D02*
X106411897Y-30772300D01*
X106411897Y-30772300D02*
X106364278Y-30724680D01*
X107888087Y-30819919D02*
X107316659Y-30819919D01*
X107602373Y-30819919D02*
X107602373Y-29819919D01*
X107602373Y-29819919D02*
X107507135Y-29962776D01*
X107507135Y-29962776D02*
X107411897Y-30058014D01*
X107411897Y-30058014D02*
X107316659Y-30105633D01*
X106898695Y-55506219D02*
X106898695Y-56315742D01*
X106898695Y-56315742D02*
X106946314Y-56410980D01*
X106946314Y-56410980D02*
X106993933Y-56458600D01*
X106993933Y-56458600D02*
X107089171Y-56506219D01*
X107089171Y-56506219D02*
X107279647Y-56506219D01*
X107279647Y-56506219D02*
X107374885Y-56458600D01*
X107374885Y-56458600D02*
X107422504Y-56410980D01*
X107422504Y-56410980D02*
X107470123Y-56315742D01*
X107470123Y-56315742D02*
X107470123Y-55506219D01*
X108374885Y-55506219D02*
X108184409Y-55506219D01*
X108184409Y-55506219D02*
X108089171Y-55553838D01*
X108089171Y-55553838D02*
X108041552Y-55601457D01*
X108041552Y-55601457D02*
X107946314Y-55744314D01*
X107946314Y-55744314D02*
X107898695Y-55934790D01*
X107898695Y-55934790D02*
X107898695Y-56315742D01*
X107898695Y-56315742D02*
X107946314Y-56410980D01*
X107946314Y-56410980D02*
X107993933Y-56458600D01*
X107993933Y-56458600D02*
X108089171Y-56506219D01*
X108089171Y-56506219D02*
X108279647Y-56506219D01*
X108279647Y-56506219D02*
X108374885Y-56458600D01*
X108374885Y-56458600D02*
X108422504Y-56410980D01*
X108422504Y-56410980D02*
X108470123Y-56315742D01*
X108470123Y-56315742D02*
X108470123Y-56077647D01*
X108470123Y-56077647D02*
X108422504Y-55982409D01*
X108422504Y-55982409D02*
X108374885Y-55934790D01*
X108374885Y-55934790D02*
X108279647Y-55887171D01*
X108279647Y-55887171D02*
X108089171Y-55887171D01*
X108089171Y-55887171D02*
X107993933Y-55934790D01*
X107993933Y-55934790D02*
X107946314Y-55982409D01*
X107946314Y-55982409D02*
X107898695Y-56077647D01*
X106285497Y-23382575D02*
X106285497Y-24712100D01*
X106285497Y-24712100D02*
X106363705Y-24868514D01*
X106363705Y-24868514D02*
X106441912Y-24946722D01*
X106441912Y-24946722D02*
X106598327Y-25024929D01*
X106598327Y-25024929D02*
X106911156Y-25024929D01*
X106911156Y-25024929D02*
X107067571Y-24946722D01*
X107067571Y-24946722D02*
X107145778Y-24868514D01*
X107145778Y-24868514D02*
X107223985Y-24712100D01*
X107223985Y-24712100D02*
X107223985Y-23382575D01*
X108788132Y-23382575D02*
X108006058Y-23382575D01*
X108006058Y-23382575D02*
X107927851Y-24164648D01*
X107927851Y-24164648D02*
X108006058Y-24086441D01*
X108006058Y-24086441D02*
X108162473Y-24008234D01*
X108162473Y-24008234D02*
X108553510Y-24008234D01*
X108553510Y-24008234D02*
X108709924Y-24086441D01*
X108709924Y-24086441D02*
X108788132Y-24164648D01*
X108788132Y-24164648D02*
X108866339Y-24321063D01*
X108866339Y-24321063D02*
X108866339Y-24712100D01*
X108866339Y-24712100D02*
X108788132Y-24868514D01*
X108788132Y-24868514D02*
X108709924Y-24946722D01*
X108709924Y-24946722D02*
X108553510Y-25024929D01*
X108553510Y-25024929D02*
X108162473Y-25024929D01*
X108162473Y-25024929D02*
X108006058Y-24946722D01*
X108006058Y-24946722D02*
X107927851Y-24868514D01*
X103952260Y-25534247D02*
X103952260Y-25772521D01*
X103713987Y-25677211D02*
X103952260Y-25772521D01*
X103952260Y-25772521D02*
X104190533Y-25677211D01*
X103809296Y-25963139D02*
X103952260Y-25772521D01*
X103952260Y-25772521D02*
X104095224Y-25963139D01*
X76633695Y-54181219D02*
X76633695Y-54990742D01*
X76633695Y-54990742D02*
X76681314Y-55085980D01*
X76681314Y-55085980D02*
X76728933Y-55133600D01*
X76728933Y-55133600D02*
X76824171Y-55181219D01*
X76824171Y-55181219D02*
X77014647Y-55181219D01*
X77014647Y-55181219D02*
X77109885Y-55133600D01*
X77109885Y-55133600D02*
X77157504Y-55085980D01*
X77157504Y-55085980D02*
X77205123Y-54990742D01*
X77205123Y-54990742D02*
X77205123Y-54181219D01*
X78109885Y-54514552D02*
X78109885Y-55181219D01*
X77871790Y-54133600D02*
X77633695Y-54847885D01*
X77633695Y-54847885D02*
X78252742Y-54847885D01*
X194687180Y-106578095D02*
X193877657Y-106578095D01*
X193877657Y-106578095D02*
X193782419Y-106625714D01*
X193782419Y-106625714D02*
X193734800Y-106673333D01*
X193734800Y-106673333D02*
X193687180Y-106768571D01*
X193687180Y-106768571D02*
X193687180Y-106959047D01*
X193687180Y-106959047D02*
X193734800Y-107054285D01*
X193734800Y-107054285D02*
X193782419Y-107101904D01*
X193782419Y-107101904D02*
X193877657Y-107149523D01*
X193877657Y-107149523D02*
X194687180Y-107149523D01*
X194591942Y-107578095D02*
X194639561Y-107625714D01*
X194639561Y-107625714D02*
X194687180Y-107720952D01*
X194687180Y-107720952D02*
X194687180Y-107959047D01*
X194687180Y-107959047D02*
X194639561Y-108054285D01*
X194639561Y-108054285D02*
X194591942Y-108101904D01*
X194591942Y-108101904D02*
X194496704Y-108149523D01*
X194496704Y-108149523D02*
X194401466Y-108149523D01*
X194401466Y-108149523D02*
X194258609Y-108101904D01*
X194258609Y-108101904D02*
X193687180Y-107530476D01*
X193687180Y-107530476D02*
X193687180Y-108149523D01*
X204988095Y-72556819D02*
X205559523Y-72556819D01*
X205273809Y-73556819D02*
X205273809Y-72556819D01*
X205892857Y-73556819D02*
X205892857Y-72556819D01*
X205892857Y-72556819D02*
X206273809Y-72556819D01*
X206273809Y-72556819D02*
X206369047Y-72604438D01*
X206369047Y-72604438D02*
X206416666Y-72652057D01*
X206416666Y-72652057D02*
X206464285Y-72747295D01*
X206464285Y-72747295D02*
X206464285Y-72890152D01*
X206464285Y-72890152D02*
X206416666Y-72985390D01*
X206416666Y-72985390D02*
X206369047Y-73033009D01*
X206369047Y-73033009D02*
X206273809Y-73080628D01*
X206273809Y-73080628D02*
X205892857Y-73080628D01*
X207416666Y-73556819D02*
X206845238Y-73556819D01*
X207130952Y-73556819D02*
X207130952Y-72556819D01*
X207130952Y-72556819D02*
X207035714Y-72699676D01*
X207035714Y-72699676D02*
X206940476Y-72794914D01*
X206940476Y-72794914D02*
X206845238Y-72842533D01*
X97212742Y-58581219D02*
X96879409Y-58105028D01*
X96641314Y-58581219D02*
X96641314Y-57581219D01*
X96641314Y-57581219D02*
X97022266Y-57581219D01*
X97022266Y-57581219D02*
X97117504Y-57628838D01*
X97117504Y-57628838D02*
X97165123Y-57676457D01*
X97165123Y-57676457D02*
X97212742Y-57771695D01*
X97212742Y-57771695D02*
X97212742Y-57914552D01*
X97212742Y-57914552D02*
X97165123Y-58009790D01*
X97165123Y-58009790D02*
X97117504Y-58057409D01*
X97117504Y-58057409D02*
X97022266Y-58105028D01*
X97022266Y-58105028D02*
X96641314Y-58105028D01*
X98165123Y-58581219D02*
X97593695Y-58581219D01*
X97879409Y-58581219D02*
X97879409Y-57581219D01*
X97879409Y-57581219D02*
X97784171Y-57724076D01*
X97784171Y-57724076D02*
X97688933Y-57819314D01*
X97688933Y-57819314D02*
X97593695Y-57866933D01*
X99069885Y-57581219D02*
X98593695Y-57581219D01*
X98593695Y-57581219D02*
X98546076Y-58057409D01*
X98546076Y-58057409D02*
X98593695Y-58009790D01*
X98593695Y-58009790D02*
X98688933Y-57962171D01*
X98688933Y-57962171D02*
X98927028Y-57962171D01*
X98927028Y-57962171D02*
X99022266Y-58009790D01*
X99022266Y-58009790D02*
X99069885Y-58057409D01*
X99069885Y-58057409D02*
X99117504Y-58152647D01*
X99117504Y-58152647D02*
X99117504Y-58390742D01*
X99117504Y-58390742D02*
X99069885Y-58485980D01*
X99069885Y-58485980D02*
X99022266Y-58533600D01*
X99022266Y-58533600D02*
X98927028Y-58581219D01*
X98927028Y-58581219D02*
X98688933Y-58581219D01*
X98688933Y-58581219D02*
X98593695Y-58533600D01*
X98593695Y-58533600D02*
X98546076Y-58485980D01*
X97212742Y-55631219D02*
X96879409Y-55155028D01*
X96641314Y-55631219D02*
X96641314Y-54631219D01*
X96641314Y-54631219D02*
X97022266Y-54631219D01*
X97022266Y-54631219D02*
X97117504Y-54678838D01*
X97117504Y-54678838D02*
X97165123Y-54726457D01*
X97165123Y-54726457D02*
X97212742Y-54821695D01*
X97212742Y-54821695D02*
X97212742Y-54964552D01*
X97212742Y-54964552D02*
X97165123Y-55059790D01*
X97165123Y-55059790D02*
X97117504Y-55107409D01*
X97117504Y-55107409D02*
X97022266Y-55155028D01*
X97022266Y-55155028D02*
X96641314Y-55155028D01*
X98165123Y-55631219D02*
X97593695Y-55631219D01*
X97879409Y-55631219D02*
X97879409Y-54631219D01*
X97879409Y-54631219D02*
X97784171Y-54774076D01*
X97784171Y-54774076D02*
X97688933Y-54869314D01*
X97688933Y-54869314D02*
X97593695Y-54916933D01*
X99022266Y-54964552D02*
X99022266Y-55631219D01*
X98784171Y-54583600D02*
X98546076Y-55297885D01*
X98546076Y-55297885D02*
X99165123Y-55297885D01*
X97212742Y-52681219D02*
X96879409Y-52205028D01*
X96641314Y-52681219D02*
X96641314Y-51681219D01*
X96641314Y-51681219D02*
X97022266Y-51681219D01*
X97022266Y-51681219D02*
X97117504Y-51728838D01*
X97117504Y-51728838D02*
X97165123Y-51776457D01*
X97165123Y-51776457D02*
X97212742Y-51871695D01*
X97212742Y-51871695D02*
X97212742Y-52014552D01*
X97212742Y-52014552D02*
X97165123Y-52109790D01*
X97165123Y-52109790D02*
X97117504Y-52157409D01*
X97117504Y-52157409D02*
X97022266Y-52205028D01*
X97022266Y-52205028D02*
X96641314Y-52205028D01*
X98165123Y-52681219D02*
X97593695Y-52681219D01*
X97879409Y-52681219D02*
X97879409Y-51681219D01*
X97879409Y-51681219D02*
X97784171Y-51824076D01*
X97784171Y-51824076D02*
X97688933Y-51919314D01*
X97688933Y-51919314D02*
X97593695Y-51966933D01*
X98498457Y-51681219D02*
X99117504Y-51681219D01*
X99117504Y-51681219D02*
X98784171Y-52062171D01*
X98784171Y-52062171D02*
X98927028Y-52062171D01*
X98927028Y-52062171D02*
X99022266Y-52109790D01*
X99022266Y-52109790D02*
X99069885Y-52157409D01*
X99069885Y-52157409D02*
X99117504Y-52252647D01*
X99117504Y-52252647D02*
X99117504Y-52490742D01*
X99117504Y-52490742D02*
X99069885Y-52585980D01*
X99069885Y-52585980D02*
X99022266Y-52633600D01*
X99022266Y-52633600D02*
X98927028Y-52681219D01*
X98927028Y-52681219D02*
X98641314Y-52681219D01*
X98641314Y-52681219D02*
X98546076Y-52633600D01*
X98546076Y-52633600D02*
X98498457Y-52585980D01*
X104664361Y-56081457D02*
X104569123Y-56033838D01*
X104569123Y-56033838D02*
X104473885Y-55938600D01*
X104473885Y-55938600D02*
X104331028Y-55795742D01*
X104331028Y-55795742D02*
X104235790Y-55748123D01*
X104235790Y-55748123D02*
X104140552Y-55748123D01*
X104188171Y-55986219D02*
X104092933Y-55938600D01*
X104092933Y-55938600D02*
X103997695Y-55843361D01*
X103997695Y-55843361D02*
X103950076Y-55652885D01*
X103950076Y-55652885D02*
X103950076Y-55319552D01*
X103950076Y-55319552D02*
X103997695Y-55129076D01*
X103997695Y-55129076D02*
X104092933Y-55033838D01*
X104092933Y-55033838D02*
X104188171Y-54986219D01*
X104188171Y-54986219D02*
X104378647Y-54986219D01*
X104378647Y-54986219D02*
X104473885Y-55033838D01*
X104473885Y-55033838D02*
X104569123Y-55129076D01*
X104569123Y-55129076D02*
X104616742Y-55319552D01*
X104616742Y-55319552D02*
X104616742Y-55652885D01*
X104616742Y-55652885D02*
X104569123Y-55843361D01*
X104569123Y-55843361D02*
X104473885Y-55938600D01*
X104473885Y-55938600D02*
X104378647Y-55986219D01*
X104378647Y-55986219D02*
X104188171Y-55986219D01*
X105569123Y-55986219D02*
X104997695Y-55986219D01*
X105283409Y-55986219D02*
X105283409Y-54986219D01*
X105283409Y-54986219D02*
X105188171Y-55129076D01*
X105188171Y-55129076D02*
X105092933Y-55224314D01*
X105092933Y-55224314D02*
X104997695Y-55271933D01*
X97472266Y-39031219D02*
X97472266Y-39745504D01*
X97472266Y-39745504D02*
X97424647Y-39888361D01*
X97424647Y-39888361D02*
X97329409Y-39983600D01*
X97329409Y-39983600D02*
X97186552Y-40031219D01*
X97186552Y-40031219D02*
X97091314Y-40031219D01*
X97948457Y-40031219D02*
X97948457Y-39031219D01*
X97948457Y-39031219D02*
X98329409Y-39031219D01*
X98329409Y-39031219D02*
X98424647Y-39078838D01*
X98424647Y-39078838D02*
X98472266Y-39126457D01*
X98472266Y-39126457D02*
X98519885Y-39221695D01*
X98519885Y-39221695D02*
X98519885Y-39364552D01*
X98519885Y-39364552D02*
X98472266Y-39459790D01*
X98472266Y-39459790D02*
X98424647Y-39507409D01*
X98424647Y-39507409D02*
X98329409Y-39555028D01*
X98329409Y-39555028D02*
X97948457Y-39555028D01*
X99091314Y-39459790D02*
X98996076Y-39412171D01*
X98996076Y-39412171D02*
X98948457Y-39364552D01*
X98948457Y-39364552D02*
X98900838Y-39269314D01*
X98900838Y-39269314D02*
X98900838Y-39221695D01*
X98900838Y-39221695D02*
X98948457Y-39126457D01*
X98948457Y-39126457D02*
X98996076Y-39078838D01*
X98996076Y-39078838D02*
X99091314Y-39031219D01*
X99091314Y-39031219D02*
X99281790Y-39031219D01*
X99281790Y-39031219D02*
X99377028Y-39078838D01*
X99377028Y-39078838D02*
X99424647Y-39126457D01*
X99424647Y-39126457D02*
X99472266Y-39221695D01*
X99472266Y-39221695D02*
X99472266Y-39269314D01*
X99472266Y-39269314D02*
X99424647Y-39364552D01*
X99424647Y-39364552D02*
X99377028Y-39412171D01*
X99377028Y-39412171D02*
X99281790Y-39459790D01*
X99281790Y-39459790D02*
X99091314Y-39459790D01*
X99091314Y-39459790D02*
X98996076Y-39507409D01*
X98996076Y-39507409D02*
X98948457Y-39555028D01*
X98948457Y-39555028D02*
X98900838Y-39650266D01*
X98900838Y-39650266D02*
X98900838Y-39840742D01*
X98900838Y-39840742D02*
X98948457Y-39935980D01*
X98948457Y-39935980D02*
X98996076Y-39983600D01*
X98996076Y-39983600D02*
X99091314Y-40031219D01*
X99091314Y-40031219D02*
X99281790Y-40031219D01*
X99281790Y-40031219D02*
X99377028Y-39983600D01*
X99377028Y-39983600D02*
X99424647Y-39935980D01*
X99424647Y-39935980D02*
X99472266Y-39840742D01*
X99472266Y-39840742D02*
X99472266Y-39650266D01*
X99472266Y-39650266D02*
X99424647Y-39555028D01*
X99424647Y-39555028D02*
X99377028Y-39507409D01*
X99377028Y-39507409D02*
X99281790Y-39459790D01*
X100572267Y-40831219D02*
X101191314Y-40831219D01*
X101191314Y-40831219D02*
X100857981Y-41212171D01*
X100857981Y-41212171D02*
X101000838Y-41212171D01*
X101000838Y-41212171D02*
X101096076Y-41259790D01*
X101096076Y-41259790D02*
X101143695Y-41307409D01*
X101143695Y-41307409D02*
X101191314Y-41402647D01*
X101191314Y-41402647D02*
X101191314Y-41640742D01*
X101191314Y-41640742D02*
X101143695Y-41735980D01*
X101143695Y-41735980D02*
X101096076Y-41783600D01*
X101096076Y-41783600D02*
X101000838Y-41831219D01*
X101000838Y-41831219D02*
X100715124Y-41831219D01*
X100715124Y-41831219D02*
X100619886Y-41783600D01*
X100619886Y-41783600D02*
X100572267Y-41735980D01*
X95991314Y-41831219D02*
X95419886Y-41831219D01*
X95705600Y-41831219D02*
X95705600Y-40831219D01*
X95705600Y-40831219D02*
X95610362Y-40974076D01*
X95610362Y-40974076D02*
X95515124Y-41069314D01*
X95515124Y-41069314D02*
X95419886Y-41116933D01*
X97472266Y-35481219D02*
X97472266Y-36195504D01*
X97472266Y-36195504D02*
X97424647Y-36338361D01*
X97424647Y-36338361D02*
X97329409Y-36433600D01*
X97329409Y-36433600D02*
X97186552Y-36481219D01*
X97186552Y-36481219D02*
X97091314Y-36481219D01*
X97948457Y-36481219D02*
X97948457Y-35481219D01*
X97948457Y-35481219D02*
X98329409Y-35481219D01*
X98329409Y-35481219D02*
X98424647Y-35528838D01*
X98424647Y-35528838D02*
X98472266Y-35576457D01*
X98472266Y-35576457D02*
X98519885Y-35671695D01*
X98519885Y-35671695D02*
X98519885Y-35814552D01*
X98519885Y-35814552D02*
X98472266Y-35909790D01*
X98472266Y-35909790D02*
X98424647Y-35957409D01*
X98424647Y-35957409D02*
X98329409Y-36005028D01*
X98329409Y-36005028D02*
X97948457Y-36005028D01*
X98853219Y-35481219D02*
X99519885Y-35481219D01*
X99519885Y-35481219D02*
X99091314Y-36481219D01*
X100572267Y-37281219D02*
X101191314Y-37281219D01*
X101191314Y-37281219D02*
X100857981Y-37662171D01*
X100857981Y-37662171D02*
X101000838Y-37662171D01*
X101000838Y-37662171D02*
X101096076Y-37709790D01*
X101096076Y-37709790D02*
X101143695Y-37757409D01*
X101143695Y-37757409D02*
X101191314Y-37852647D01*
X101191314Y-37852647D02*
X101191314Y-38090742D01*
X101191314Y-38090742D02*
X101143695Y-38185980D01*
X101143695Y-38185980D02*
X101096076Y-38233600D01*
X101096076Y-38233600D02*
X101000838Y-38281219D01*
X101000838Y-38281219D02*
X100715124Y-38281219D01*
X100715124Y-38281219D02*
X100619886Y-38233600D01*
X100619886Y-38233600D02*
X100572267Y-38185980D01*
X95991314Y-38281219D02*
X95419886Y-38281219D01*
X95705600Y-38281219D02*
X95705600Y-37281219D01*
X95705600Y-37281219D02*
X95610362Y-37424076D01*
X95610362Y-37424076D02*
X95515124Y-37519314D01*
X95515124Y-37519314D02*
X95419886Y-37566933D01*
X97472266Y-31931219D02*
X97472266Y-32645504D01*
X97472266Y-32645504D02*
X97424647Y-32788361D01*
X97424647Y-32788361D02*
X97329409Y-32883600D01*
X97329409Y-32883600D02*
X97186552Y-32931219D01*
X97186552Y-32931219D02*
X97091314Y-32931219D01*
X97948457Y-32931219D02*
X97948457Y-31931219D01*
X97948457Y-31931219D02*
X98329409Y-31931219D01*
X98329409Y-31931219D02*
X98424647Y-31978838D01*
X98424647Y-31978838D02*
X98472266Y-32026457D01*
X98472266Y-32026457D02*
X98519885Y-32121695D01*
X98519885Y-32121695D02*
X98519885Y-32264552D01*
X98519885Y-32264552D02*
X98472266Y-32359790D01*
X98472266Y-32359790D02*
X98424647Y-32407409D01*
X98424647Y-32407409D02*
X98329409Y-32455028D01*
X98329409Y-32455028D02*
X97948457Y-32455028D01*
X99377028Y-31931219D02*
X99186552Y-31931219D01*
X99186552Y-31931219D02*
X99091314Y-31978838D01*
X99091314Y-31978838D02*
X99043695Y-32026457D01*
X99043695Y-32026457D02*
X98948457Y-32169314D01*
X98948457Y-32169314D02*
X98900838Y-32359790D01*
X98900838Y-32359790D02*
X98900838Y-32740742D01*
X98900838Y-32740742D02*
X98948457Y-32835980D01*
X98948457Y-32835980D02*
X98996076Y-32883600D01*
X98996076Y-32883600D02*
X99091314Y-32931219D01*
X99091314Y-32931219D02*
X99281790Y-32931219D01*
X99281790Y-32931219D02*
X99377028Y-32883600D01*
X99377028Y-32883600D02*
X99424647Y-32835980D01*
X99424647Y-32835980D02*
X99472266Y-32740742D01*
X99472266Y-32740742D02*
X99472266Y-32502647D01*
X99472266Y-32502647D02*
X99424647Y-32407409D01*
X99424647Y-32407409D02*
X99377028Y-32359790D01*
X99377028Y-32359790D02*
X99281790Y-32312171D01*
X99281790Y-32312171D02*
X99091314Y-32312171D01*
X99091314Y-32312171D02*
X98996076Y-32359790D01*
X98996076Y-32359790D02*
X98948457Y-32407409D01*
X98948457Y-32407409D02*
X98900838Y-32502647D01*
X100572267Y-33731219D02*
X101191314Y-33731219D01*
X101191314Y-33731219D02*
X100857981Y-34112171D01*
X100857981Y-34112171D02*
X101000838Y-34112171D01*
X101000838Y-34112171D02*
X101096076Y-34159790D01*
X101096076Y-34159790D02*
X101143695Y-34207409D01*
X101143695Y-34207409D02*
X101191314Y-34302647D01*
X101191314Y-34302647D02*
X101191314Y-34540742D01*
X101191314Y-34540742D02*
X101143695Y-34635980D01*
X101143695Y-34635980D02*
X101096076Y-34683600D01*
X101096076Y-34683600D02*
X101000838Y-34731219D01*
X101000838Y-34731219D02*
X100715124Y-34731219D01*
X100715124Y-34731219D02*
X100619886Y-34683600D01*
X100619886Y-34683600D02*
X100572267Y-34635980D01*
X95991314Y-34731219D02*
X95419886Y-34731219D01*
X95705600Y-34731219D02*
X95705600Y-33731219D01*
X95705600Y-33731219D02*
X95610362Y-33874076D01*
X95610362Y-33874076D02*
X95515124Y-33969314D01*
X95515124Y-33969314D02*
X95419886Y-34016933D01*
X43712266Y-66981219D02*
X43712266Y-67695504D01*
X43712266Y-67695504D02*
X43664647Y-67838361D01*
X43664647Y-67838361D02*
X43569409Y-67933600D01*
X43569409Y-67933600D02*
X43426552Y-67981219D01*
X43426552Y-67981219D02*
X43331314Y-67981219D01*
X44188457Y-67981219D02*
X44188457Y-66981219D01*
X44188457Y-66981219D02*
X44569409Y-66981219D01*
X44569409Y-66981219D02*
X44664647Y-67028838D01*
X44664647Y-67028838D02*
X44712266Y-67076457D01*
X44712266Y-67076457D02*
X44759885Y-67171695D01*
X44759885Y-67171695D02*
X44759885Y-67314552D01*
X44759885Y-67314552D02*
X44712266Y-67409790D01*
X44712266Y-67409790D02*
X44664647Y-67457409D01*
X44664647Y-67457409D02*
X44569409Y-67505028D01*
X44569409Y-67505028D02*
X44188457Y-67505028D01*
X45664647Y-66981219D02*
X45188457Y-66981219D01*
X45188457Y-66981219D02*
X45140838Y-67457409D01*
X45140838Y-67457409D02*
X45188457Y-67409790D01*
X45188457Y-67409790D02*
X45283695Y-67362171D01*
X45283695Y-67362171D02*
X45521790Y-67362171D01*
X45521790Y-67362171D02*
X45617028Y-67409790D01*
X45617028Y-67409790D02*
X45664647Y-67457409D01*
X45664647Y-67457409D02*
X45712266Y-67552647D01*
X45712266Y-67552647D02*
X45712266Y-67790742D01*
X45712266Y-67790742D02*
X45664647Y-67885980D01*
X45664647Y-67885980D02*
X45617028Y-67933600D01*
X45617028Y-67933600D02*
X45521790Y-67981219D01*
X45521790Y-67981219D02*
X45283695Y-67981219D01*
X45283695Y-67981219D02*
X45188457Y-67933600D01*
X45188457Y-67933600D02*
X45140838Y-67885980D01*
X46812267Y-68781219D02*
X47431314Y-68781219D01*
X47431314Y-68781219D02*
X47097981Y-69162171D01*
X47097981Y-69162171D02*
X47240838Y-69162171D01*
X47240838Y-69162171D02*
X47336076Y-69209790D01*
X47336076Y-69209790D02*
X47383695Y-69257409D01*
X47383695Y-69257409D02*
X47431314Y-69352647D01*
X47431314Y-69352647D02*
X47431314Y-69590742D01*
X47431314Y-69590742D02*
X47383695Y-69685980D01*
X47383695Y-69685980D02*
X47336076Y-69733600D01*
X47336076Y-69733600D02*
X47240838Y-69781219D01*
X47240838Y-69781219D02*
X46955124Y-69781219D01*
X46955124Y-69781219D02*
X46859886Y-69733600D01*
X46859886Y-69733600D02*
X46812267Y-69685980D01*
X42231314Y-69781219D02*
X41659886Y-69781219D01*
X41945600Y-69781219D02*
X41945600Y-68781219D01*
X41945600Y-68781219D02*
X41850362Y-68924076D01*
X41850362Y-68924076D02*
X41755124Y-69019314D01*
X41755124Y-69019314D02*
X41659886Y-69066933D01*
X107172266Y-37981219D02*
X107172266Y-38695504D01*
X107172266Y-38695504D02*
X107124647Y-38838361D01*
X107124647Y-38838361D02*
X107029409Y-38933600D01*
X107029409Y-38933600D02*
X106886552Y-38981219D01*
X106886552Y-38981219D02*
X106791314Y-38981219D01*
X107648457Y-38981219D02*
X107648457Y-37981219D01*
X107648457Y-37981219D02*
X108029409Y-37981219D01*
X108029409Y-37981219D02*
X108124647Y-38028838D01*
X108124647Y-38028838D02*
X108172266Y-38076457D01*
X108172266Y-38076457D02*
X108219885Y-38171695D01*
X108219885Y-38171695D02*
X108219885Y-38314552D01*
X108219885Y-38314552D02*
X108172266Y-38409790D01*
X108172266Y-38409790D02*
X108124647Y-38457409D01*
X108124647Y-38457409D02*
X108029409Y-38505028D01*
X108029409Y-38505028D02*
X107648457Y-38505028D01*
X109172266Y-38981219D02*
X108600838Y-38981219D01*
X108886552Y-38981219D02*
X108886552Y-37981219D01*
X108886552Y-37981219D02*
X108791314Y-38124076D01*
X108791314Y-38124076D02*
X108696076Y-38219314D01*
X108696076Y-38219314D02*
X108600838Y-38266933D01*
X156416666Y-40599819D02*
X156416666Y-41314104D01*
X156416666Y-41314104D02*
X156369047Y-41456961D01*
X156369047Y-41456961D02*
X156273809Y-41552200D01*
X156273809Y-41552200D02*
X156130952Y-41599819D01*
X156130952Y-41599819D02*
X156035714Y-41599819D01*
X156940476Y-41599819D02*
X157130952Y-41599819D01*
X157130952Y-41599819D02*
X157226190Y-41552200D01*
X157226190Y-41552200D02*
X157273809Y-41504580D01*
X157273809Y-41504580D02*
X157369047Y-41361723D01*
X157369047Y-41361723D02*
X157416666Y-41171247D01*
X157416666Y-41171247D02*
X157416666Y-40790295D01*
X157416666Y-40790295D02*
X157369047Y-40695057D01*
X157369047Y-40695057D02*
X157321428Y-40647438D01*
X157321428Y-40647438D02*
X157226190Y-40599819D01*
X157226190Y-40599819D02*
X157035714Y-40599819D01*
X157035714Y-40599819D02*
X156940476Y-40647438D01*
X156940476Y-40647438D02*
X156892857Y-40695057D01*
X156892857Y-40695057D02*
X156845238Y-40790295D01*
X156845238Y-40790295D02*
X156845238Y-41028390D01*
X156845238Y-41028390D02*
X156892857Y-41123628D01*
X156892857Y-41123628D02*
X156940476Y-41171247D01*
X156940476Y-41171247D02*
X157035714Y-41218866D01*
X157035714Y-41218866D02*
X157226190Y-41218866D01*
X157226190Y-41218866D02*
X157321428Y-41171247D01*
X157321428Y-41171247D02*
X157369047Y-41123628D01*
X157369047Y-41123628D02*
X157416666Y-41028390D01*
X147794819Y-123333333D02*
X148509104Y-123333333D01*
X148509104Y-123333333D02*
X148651961Y-123380952D01*
X148651961Y-123380952D02*
X148747200Y-123476190D01*
X148747200Y-123476190D02*
X148794819Y-123619047D01*
X148794819Y-123619047D02*
X148794819Y-123714285D01*
X148223390Y-122714285D02*
X148175771Y-122809523D01*
X148175771Y-122809523D02*
X148128152Y-122857142D01*
X148128152Y-122857142D02*
X148032914Y-122904761D01*
X148032914Y-122904761D02*
X147985295Y-122904761D01*
X147985295Y-122904761D02*
X147890057Y-122857142D01*
X147890057Y-122857142D02*
X147842438Y-122809523D01*
X147842438Y-122809523D02*
X147794819Y-122714285D01*
X147794819Y-122714285D02*
X147794819Y-122523809D01*
X147794819Y-122523809D02*
X147842438Y-122428571D01*
X147842438Y-122428571D02*
X147890057Y-122380952D01*
X147890057Y-122380952D02*
X147985295Y-122333333D01*
X147985295Y-122333333D02*
X148032914Y-122333333D01*
X148032914Y-122333333D02*
X148128152Y-122380952D01*
X148128152Y-122380952D02*
X148175771Y-122428571D01*
X148175771Y-122428571D02*
X148223390Y-122523809D01*
X148223390Y-122523809D02*
X148223390Y-122714285D01*
X148223390Y-122714285D02*
X148271009Y-122809523D01*
X148271009Y-122809523D02*
X148318628Y-122857142D01*
X148318628Y-122857142D02*
X148413866Y-122904761D01*
X148413866Y-122904761D02*
X148604342Y-122904761D01*
X148604342Y-122904761D02*
X148699580Y-122857142D01*
X148699580Y-122857142D02*
X148747200Y-122809523D01*
X148747200Y-122809523D02*
X148794819Y-122714285D01*
X148794819Y-122714285D02*
X148794819Y-122523809D01*
X148794819Y-122523809D02*
X148747200Y-122428571D01*
X148747200Y-122428571D02*
X148699580Y-122380952D01*
X148699580Y-122380952D02*
X148604342Y-122333333D01*
X148604342Y-122333333D02*
X148413866Y-122333333D01*
X148413866Y-122333333D02*
X148318628Y-122380952D01*
X148318628Y-122380952D02*
X148271009Y-122428571D01*
X148271009Y-122428571D02*
X148223390Y-122523809D01*
X168666666Y-50599819D02*
X168666666Y-51314104D01*
X168666666Y-51314104D02*
X168619047Y-51456961D01*
X168619047Y-51456961D02*
X168523809Y-51552200D01*
X168523809Y-51552200D02*
X168380952Y-51599819D01*
X168380952Y-51599819D02*
X168285714Y-51599819D01*
X169047619Y-50599819D02*
X169714285Y-50599819D01*
X169714285Y-50599819D02*
X169285714Y-51599819D01*
X146666666Y-117584819D02*
X146666666Y-118299104D01*
X146666666Y-118299104D02*
X146619047Y-118441961D01*
X146619047Y-118441961D02*
X146523809Y-118537200D01*
X146523809Y-118537200D02*
X146380952Y-118584819D01*
X146380952Y-118584819D02*
X146285714Y-118584819D01*
X147571428Y-117584819D02*
X147380952Y-117584819D01*
X147380952Y-117584819D02*
X147285714Y-117632438D01*
X147285714Y-117632438D02*
X147238095Y-117680057D01*
X147238095Y-117680057D02*
X147142857Y-117822914D01*
X147142857Y-117822914D02*
X147095238Y-118013390D01*
X147095238Y-118013390D02*
X147095238Y-118394342D01*
X147095238Y-118394342D02*
X147142857Y-118489580D01*
X147142857Y-118489580D02*
X147190476Y-118537200D01*
X147190476Y-118537200D02*
X147285714Y-118584819D01*
X147285714Y-118584819D02*
X147476190Y-118584819D01*
X147476190Y-118584819D02*
X147571428Y-118537200D01*
X147571428Y-118537200D02*
X147619047Y-118489580D01*
X147619047Y-118489580D02*
X147666666Y-118394342D01*
X147666666Y-118394342D02*
X147666666Y-118156247D01*
X147666666Y-118156247D02*
X147619047Y-118061009D01*
X147619047Y-118061009D02*
X147571428Y-118013390D01*
X147571428Y-118013390D02*
X147476190Y-117965771D01*
X147476190Y-117965771D02*
X147285714Y-117965771D01*
X147285714Y-117965771D02*
X147190476Y-118013390D01*
X147190476Y-118013390D02*
X147142857Y-118061009D01*
X147142857Y-118061009D02*
X147095238Y-118156247D01*
X146666666Y-111334819D02*
X146666666Y-112049104D01*
X146666666Y-112049104D02*
X146619047Y-112191961D01*
X146619047Y-112191961D02*
X146523809Y-112287200D01*
X146523809Y-112287200D02*
X146380952Y-112334819D01*
X146380952Y-112334819D02*
X146285714Y-112334819D01*
X147619047Y-111334819D02*
X147142857Y-111334819D01*
X147142857Y-111334819D02*
X147095238Y-111811009D01*
X147095238Y-111811009D02*
X147142857Y-111763390D01*
X147142857Y-111763390D02*
X147238095Y-111715771D01*
X147238095Y-111715771D02*
X147476190Y-111715771D01*
X147476190Y-111715771D02*
X147571428Y-111763390D01*
X147571428Y-111763390D02*
X147619047Y-111811009D01*
X147619047Y-111811009D02*
X147666666Y-111906247D01*
X147666666Y-111906247D02*
X147666666Y-112144342D01*
X147666666Y-112144342D02*
X147619047Y-112239580D01*
X147619047Y-112239580D02*
X147571428Y-112287200D01*
X147571428Y-112287200D02*
X147476190Y-112334819D01*
X147476190Y-112334819D02*
X147238095Y-112334819D01*
X147238095Y-112334819D02*
X147142857Y-112287200D01*
X147142857Y-112287200D02*
X147095238Y-112239580D01*
X163166666Y-52349819D02*
X163166666Y-53064104D01*
X163166666Y-53064104D02*
X163119047Y-53206961D01*
X163119047Y-53206961D02*
X163023809Y-53302200D01*
X163023809Y-53302200D02*
X162880952Y-53349819D01*
X162880952Y-53349819D02*
X162785714Y-53349819D01*
X163595238Y-52445057D02*
X163642857Y-52397438D01*
X163642857Y-52397438D02*
X163738095Y-52349819D01*
X163738095Y-52349819D02*
X163976190Y-52349819D01*
X163976190Y-52349819D02*
X164071428Y-52397438D01*
X164071428Y-52397438D02*
X164119047Y-52445057D01*
X164119047Y-52445057D02*
X164166666Y-52540295D01*
X164166666Y-52540295D02*
X164166666Y-52635533D01*
X164166666Y-52635533D02*
X164119047Y-52778390D01*
X164119047Y-52778390D02*
X163547619Y-53349819D01*
X163547619Y-53349819D02*
X164166666Y-53349819D01*
X72198932Y-32855980D02*
X72151313Y-32903600D01*
X72151313Y-32903600D02*
X72008456Y-32951219D01*
X72008456Y-32951219D02*
X71913218Y-32951219D01*
X71913218Y-32951219D02*
X71770361Y-32903600D01*
X71770361Y-32903600D02*
X71675123Y-32808361D01*
X71675123Y-32808361D02*
X71627504Y-32713123D01*
X71627504Y-32713123D02*
X71579885Y-32522647D01*
X71579885Y-32522647D02*
X71579885Y-32379790D01*
X71579885Y-32379790D02*
X71627504Y-32189314D01*
X71627504Y-32189314D02*
X71675123Y-32094076D01*
X71675123Y-32094076D02*
X71770361Y-31998838D01*
X71770361Y-31998838D02*
X71913218Y-31951219D01*
X71913218Y-31951219D02*
X72008456Y-31951219D01*
X72008456Y-31951219D02*
X72151313Y-31998838D01*
X72151313Y-31998838D02*
X72198932Y-32046457D01*
X73056075Y-32951219D02*
X73056075Y-32427409D01*
X73056075Y-32427409D02*
X73008456Y-32332171D01*
X73008456Y-32332171D02*
X72913218Y-32284552D01*
X72913218Y-32284552D02*
X72722742Y-32284552D01*
X72722742Y-32284552D02*
X72627504Y-32332171D01*
X73056075Y-32903600D02*
X72960837Y-32951219D01*
X72960837Y-32951219D02*
X72722742Y-32951219D01*
X72722742Y-32951219D02*
X72627504Y-32903600D01*
X72627504Y-32903600D02*
X72579885Y-32808361D01*
X72579885Y-32808361D02*
X72579885Y-32713123D01*
X72579885Y-32713123D02*
X72627504Y-32617885D01*
X72627504Y-32617885D02*
X72722742Y-32570266D01*
X72722742Y-32570266D02*
X72960837Y-32570266D01*
X72960837Y-32570266D02*
X73056075Y-32522647D01*
X73532266Y-32951219D02*
X73532266Y-32284552D01*
X73532266Y-32379790D02*
X73579885Y-32332171D01*
X73579885Y-32332171D02*
X73675123Y-32284552D01*
X73675123Y-32284552D02*
X73817980Y-32284552D01*
X73817980Y-32284552D02*
X73913218Y-32332171D01*
X73913218Y-32332171D02*
X73960837Y-32427409D01*
X73960837Y-32427409D02*
X73960837Y-32951219D01*
X73960837Y-32427409D02*
X74008456Y-32332171D01*
X74008456Y-32332171D02*
X74103694Y-32284552D01*
X74103694Y-32284552D02*
X74246551Y-32284552D01*
X74246551Y-32284552D02*
X74341790Y-32332171D01*
X74341790Y-32332171D02*
X74389409Y-32427409D01*
X74389409Y-32427409D02*
X74389409Y-32951219D01*
X75246551Y-32903600D02*
X75151313Y-32951219D01*
X75151313Y-32951219D02*
X74960837Y-32951219D01*
X74960837Y-32951219D02*
X74865599Y-32903600D01*
X74865599Y-32903600D02*
X74817980Y-32808361D01*
X74817980Y-32808361D02*
X74817980Y-32427409D01*
X74817980Y-32427409D02*
X74865599Y-32332171D01*
X74865599Y-32332171D02*
X74960837Y-32284552D01*
X74960837Y-32284552D02*
X75151313Y-32284552D01*
X75151313Y-32284552D02*
X75246551Y-32332171D01*
X75246551Y-32332171D02*
X75294170Y-32427409D01*
X75294170Y-32427409D02*
X75294170Y-32522647D01*
X75294170Y-32522647D02*
X74817980Y-32617885D01*
X75722742Y-32951219D02*
X75722742Y-32284552D01*
X75722742Y-32475028D02*
X75770361Y-32379790D01*
X75770361Y-32379790D02*
X75817980Y-32332171D01*
X75817980Y-32332171D02*
X75913218Y-32284552D01*
X75913218Y-32284552D02*
X76008456Y-32284552D01*
X76770361Y-32951219D02*
X76770361Y-32427409D01*
X76770361Y-32427409D02*
X76722742Y-32332171D01*
X76722742Y-32332171D02*
X76627504Y-32284552D01*
X76627504Y-32284552D02*
X76437028Y-32284552D01*
X76437028Y-32284552D02*
X76341790Y-32332171D01*
X76770361Y-32903600D02*
X76675123Y-32951219D01*
X76675123Y-32951219D02*
X76437028Y-32951219D01*
X76437028Y-32951219D02*
X76341790Y-32903600D01*
X76341790Y-32903600D02*
X76294171Y-32808361D01*
X76294171Y-32808361D02*
X76294171Y-32713123D01*
X76294171Y-32713123D02*
X76341790Y-32617885D01*
X76341790Y-32617885D02*
X76437028Y-32570266D01*
X76437028Y-32570266D02*
X76675123Y-32570266D01*
X76675123Y-32570266D02*
X76770361Y-32522647D01*
X77008457Y-33046457D02*
X77770361Y-33046457D01*
X78008457Y-32951219D02*
X78008457Y-31951219D01*
X78484647Y-32284552D02*
X78484647Y-32951219D01*
X78484647Y-32379790D02*
X78532266Y-32332171D01*
X78532266Y-32332171D02*
X78627504Y-32284552D01*
X78627504Y-32284552D02*
X78770361Y-32284552D01*
X78770361Y-32284552D02*
X78865599Y-32332171D01*
X78865599Y-32332171D02*
X78913218Y-32427409D01*
X78913218Y-32427409D02*
X78913218Y-32951219D01*
X79246552Y-32284552D02*
X79627504Y-32284552D01*
X79389409Y-31951219D02*
X79389409Y-32808361D01*
X79389409Y-32808361D02*
X79437028Y-32903600D01*
X79437028Y-32903600D02*
X79532266Y-32951219D01*
X79532266Y-32951219D02*
X79627504Y-32951219D01*
X80341790Y-32903600D02*
X80246552Y-32951219D01*
X80246552Y-32951219D02*
X80056076Y-32951219D01*
X80056076Y-32951219D02*
X79960838Y-32903600D01*
X79960838Y-32903600D02*
X79913219Y-32808361D01*
X79913219Y-32808361D02*
X79913219Y-32427409D01*
X79913219Y-32427409D02*
X79960838Y-32332171D01*
X79960838Y-32332171D02*
X80056076Y-32284552D01*
X80056076Y-32284552D02*
X80246552Y-32284552D01*
X80246552Y-32284552D02*
X80341790Y-32332171D01*
X80341790Y-32332171D02*
X80389409Y-32427409D01*
X80389409Y-32427409D02*
X80389409Y-32522647D01*
X80389409Y-32522647D02*
X79913219Y-32617885D01*
X80817981Y-32951219D02*
X80817981Y-32284552D01*
X80817981Y-32475028D02*
X80865600Y-32379790D01*
X80865600Y-32379790D02*
X80913219Y-32332171D01*
X80913219Y-32332171D02*
X81008457Y-32284552D01*
X81008457Y-32284552D02*
X81103695Y-32284552D01*
X81294172Y-32284552D02*
X81675124Y-32284552D01*
X81437029Y-32951219D02*
X81437029Y-32094076D01*
X81437029Y-32094076D02*
X81484648Y-31998838D01*
X81484648Y-31998838D02*
X81579886Y-31951219D01*
X81579886Y-31951219D02*
X81675124Y-31951219D01*
X82437029Y-32951219D02*
X82437029Y-32427409D01*
X82437029Y-32427409D02*
X82389410Y-32332171D01*
X82389410Y-32332171D02*
X82294172Y-32284552D01*
X82294172Y-32284552D02*
X82103696Y-32284552D01*
X82103696Y-32284552D02*
X82008458Y-32332171D01*
X82437029Y-32903600D02*
X82341791Y-32951219D01*
X82341791Y-32951219D02*
X82103696Y-32951219D01*
X82103696Y-32951219D02*
X82008458Y-32903600D01*
X82008458Y-32903600D02*
X81960839Y-32808361D01*
X81960839Y-32808361D02*
X81960839Y-32713123D01*
X81960839Y-32713123D02*
X82008458Y-32617885D01*
X82008458Y-32617885D02*
X82103696Y-32570266D01*
X82103696Y-32570266D02*
X82341791Y-32570266D01*
X82341791Y-32570266D02*
X82437029Y-32522647D01*
X83341791Y-32903600D02*
X83246553Y-32951219D01*
X83246553Y-32951219D02*
X83056077Y-32951219D01*
X83056077Y-32951219D02*
X82960839Y-32903600D01*
X82960839Y-32903600D02*
X82913220Y-32855980D01*
X82913220Y-32855980D02*
X82865601Y-32760742D01*
X82865601Y-32760742D02*
X82865601Y-32475028D01*
X82865601Y-32475028D02*
X82913220Y-32379790D01*
X82913220Y-32379790D02*
X82960839Y-32332171D01*
X82960839Y-32332171D02*
X83056077Y-32284552D01*
X83056077Y-32284552D02*
X83246553Y-32284552D01*
X83246553Y-32284552D02*
X83341791Y-32332171D01*
X84151315Y-32903600D02*
X84056077Y-32951219D01*
X84056077Y-32951219D02*
X83865601Y-32951219D01*
X83865601Y-32951219D02*
X83770363Y-32903600D01*
X83770363Y-32903600D02*
X83722744Y-32808361D01*
X83722744Y-32808361D02*
X83722744Y-32427409D01*
X83722744Y-32427409D02*
X83770363Y-32332171D01*
X83770363Y-32332171D02*
X83865601Y-32284552D01*
X83865601Y-32284552D02*
X84056077Y-32284552D01*
X84056077Y-32284552D02*
X84151315Y-32332171D01*
X84151315Y-32332171D02*
X84198934Y-32427409D01*
X84198934Y-32427409D02*
X84198934Y-32522647D01*
X84198934Y-32522647D02*
X83722744Y-32617885D01*
X85151315Y-32951219D02*
X84579887Y-32951219D01*
X84865601Y-32951219D02*
X84865601Y-31951219D01*
X84865601Y-31951219D02*
X84770363Y-32094076D01*
X84770363Y-32094076D02*
X84675125Y-32189314D01*
X84675125Y-32189314D02*
X84579887Y-32236933D01*
X102917983Y-73785980D02*
X102870364Y-73833600D01*
X102870364Y-73833600D02*
X102727507Y-73881219D01*
X102727507Y-73881219D02*
X102632269Y-73881219D01*
X102632269Y-73881219D02*
X102489412Y-73833600D01*
X102489412Y-73833600D02*
X102394174Y-73738361D01*
X102394174Y-73738361D02*
X102346555Y-73643123D01*
X102346555Y-73643123D02*
X102298936Y-73452647D01*
X102298936Y-73452647D02*
X102298936Y-73309790D01*
X102298936Y-73309790D02*
X102346555Y-73119314D01*
X102346555Y-73119314D02*
X102394174Y-73024076D01*
X102394174Y-73024076D02*
X102489412Y-72928838D01*
X102489412Y-72928838D02*
X102632269Y-72881219D01*
X102632269Y-72881219D02*
X102727507Y-72881219D01*
X102727507Y-72881219D02*
X102870364Y-72928838D01*
X102870364Y-72928838D02*
X102917983Y-72976457D01*
X103298936Y-72976457D02*
X103346555Y-72928838D01*
X103346555Y-72928838D02*
X103441793Y-72881219D01*
X103441793Y-72881219D02*
X103679888Y-72881219D01*
X103679888Y-72881219D02*
X103775126Y-72928838D01*
X103775126Y-72928838D02*
X103822745Y-72976457D01*
X103822745Y-72976457D02*
X103870364Y-73071695D01*
X103870364Y-73071695D02*
X103870364Y-73166933D01*
X103870364Y-73166933D02*
X103822745Y-73309790D01*
X103822745Y-73309790D02*
X103251317Y-73881219D01*
X103251317Y-73881219D02*
X103870364Y-73881219D01*
X104822745Y-73881219D02*
X104251317Y-73881219D01*
X104537031Y-73881219D02*
X104537031Y-72881219D01*
X104537031Y-72881219D02*
X104441793Y-73024076D01*
X104441793Y-73024076D02*
X104346555Y-73119314D01*
X104346555Y-73119314D02*
X104251317Y-73166933D01*
X94912517Y-63135980D02*
X94864898Y-63183600D01*
X94864898Y-63183600D02*
X94722041Y-63231219D01*
X94722041Y-63231219D02*
X94626803Y-63231219D01*
X94626803Y-63231219D02*
X94483946Y-63183600D01*
X94483946Y-63183600D02*
X94388708Y-63088361D01*
X94388708Y-63088361D02*
X94341089Y-62993123D01*
X94341089Y-62993123D02*
X94293470Y-62802647D01*
X94293470Y-62802647D02*
X94293470Y-62659790D01*
X94293470Y-62659790D02*
X94341089Y-62469314D01*
X94341089Y-62469314D02*
X94388708Y-62374076D01*
X94388708Y-62374076D02*
X94483946Y-62278838D01*
X94483946Y-62278838D02*
X94626803Y-62231219D01*
X94626803Y-62231219D02*
X94722041Y-62231219D01*
X94722041Y-62231219D02*
X94864898Y-62278838D01*
X94864898Y-62278838D02*
X94912517Y-62326457D01*
X95293470Y-62326457D02*
X95341089Y-62278838D01*
X95341089Y-62278838D02*
X95436327Y-62231219D01*
X95436327Y-62231219D02*
X95674422Y-62231219D01*
X95674422Y-62231219D02*
X95769660Y-62278838D01*
X95769660Y-62278838D02*
X95817279Y-62326457D01*
X95817279Y-62326457D02*
X95864898Y-62421695D01*
X95864898Y-62421695D02*
X95864898Y-62516933D01*
X95864898Y-62516933D02*
X95817279Y-62659790D01*
X95817279Y-62659790D02*
X95245851Y-63231219D01*
X95245851Y-63231219D02*
X95864898Y-63231219D01*
X96483946Y-62231219D02*
X96579184Y-62231219D01*
X96579184Y-62231219D02*
X96674422Y-62278838D01*
X96674422Y-62278838D02*
X96722041Y-62326457D01*
X96722041Y-62326457D02*
X96769660Y-62421695D01*
X96769660Y-62421695D02*
X96817279Y-62612171D01*
X96817279Y-62612171D02*
X96817279Y-62850266D01*
X96817279Y-62850266D02*
X96769660Y-63040742D01*
X96769660Y-63040742D02*
X96722041Y-63135980D01*
X96722041Y-63135980D02*
X96674422Y-63183600D01*
X96674422Y-63183600D02*
X96579184Y-63231219D01*
X96579184Y-63231219D02*
X96483946Y-63231219D01*
X96483946Y-63231219D02*
X96388708Y-63183600D01*
X96388708Y-63183600D02*
X96341089Y-63135980D01*
X96341089Y-63135980D02*
X96293470Y-63040742D01*
X96293470Y-63040742D02*
X96245851Y-62850266D01*
X96245851Y-62850266D02*
X96245851Y-62612171D01*
X96245851Y-62612171D02*
X96293470Y-62421695D01*
X96293470Y-62421695D02*
X96341089Y-62326457D01*
X96341089Y-62326457D02*
X96388708Y-62278838D01*
X96388708Y-62278838D02*
X96483946Y-62231219D01*
D11*
%TO.C,R10*%
X186790000Y-93677064D02*
X186790000Y-89322936D01*
X190210000Y-93677064D02*
X190210000Y-89322936D01*
%TO.C,TP2*%
X186100000Y-91100000D02*
G75*
G02*
X182600000Y-91100000I-1750000J0D01*
G01*
X182600000Y-91100000D02*
G75*
G02*
X186100000Y-91100000I1750000J0D01*
G01*
%TO.C,U3*%
X176100000Y-93490000D02*
X175300000Y-93490000D01*
X176100000Y-93490000D02*
X176900000Y-93490000D01*
X176100000Y-96610000D02*
X175300000Y-96610000D01*
X176100000Y-96610000D02*
X176900000Y-96610000D01*
X174800000Y-93540000D02*
X174560000Y-93210000D01*
X175040000Y-93210000D01*
X174800000Y-93540000D01*
G36*
X174800000Y-93540000D02*
G01*
X174560000Y-93210000D01*
X175040000Y-93210000D01*
X174800000Y-93540000D01*
G37*
%TO.C,R3*%
X124822936Y-39710000D02*
X129177064Y-39710000D01*
X124822936Y-36290000D02*
X129177064Y-36290000D01*
%TO.C,SW3*%
X100565600Y-52286400D02*
X101895600Y-52286400D01*
X100565600Y-53616400D02*
X100565600Y-52286400D01*
X100565600Y-54886400D02*
X100565600Y-57486400D01*
X100565600Y-54886400D02*
X103225600Y-54886400D01*
X100565600Y-57486400D02*
X103225600Y-57486400D01*
X103225600Y-54886400D02*
X103225600Y-57486400D01*
%TO.C,SW2*%
X100565600Y-48236400D02*
X101895600Y-48236400D01*
X100565600Y-49566400D02*
X100565600Y-48236400D01*
X100565600Y-50836400D02*
X100565600Y-53436400D01*
X100565600Y-50836400D02*
X103225600Y-50836400D01*
X100565600Y-53436400D02*
X103225600Y-53436400D01*
X103225600Y-50836400D02*
X103225600Y-53436400D01*
%TO.C,J3*%
X167520000Y-19820000D02*
X168850000Y-19820000D01*
X167520000Y-21150000D02*
X167520000Y-19820000D01*
X167520000Y-22420000D02*
X167520000Y-35180000D01*
X167520000Y-22420000D02*
X170180000Y-22420000D01*
X167520000Y-35180000D02*
X170180000Y-35180000D01*
X170180000Y-22420000D02*
X170180000Y-35180000D01*
%TO.C,BT2*%
X145620000Y-97630000D02*
X146950000Y-97630000D01*
X145620000Y-98960000D02*
X145620000Y-97630000D01*
X145620000Y-100230000D02*
X145620000Y-102830000D01*
X145620000Y-100230000D02*
X148280000Y-100230000D01*
X145620000Y-102830000D02*
X148280000Y-102830000D01*
X148280000Y-100230000D02*
X148280000Y-102830000D01*
D10*
%TO.C,U9*%
X106185780Y-37034000D02*
X106185780Y-32129000D01*
X106185780Y-37034000D02*
X107543822Y-37034000D01*
X107543822Y-37034000D02*
X107543822Y-32129000D01*
X106185780Y-32129000D02*
X107543822Y-32129000D01*
D12*
X102791624Y-32676500D02*
G75*
G02*
X102541622Y-32676500I-125001J0D01*
G01*
X102541622Y-32676500D02*
G75*
G02*
X102791624Y-32676500I125001J0D01*
G01*
D10*
%TO.C,U8*%
X102580600Y-39126400D02*
X102580600Y-39276400D01*
X102580600Y-39126400D02*
X104380600Y-39126400D01*
X102580600Y-40176400D02*
X102580600Y-41176400D01*
X102580600Y-42076400D02*
X102580600Y-42226400D01*
X102580600Y-42226400D02*
X104380600Y-42226400D01*
X104380600Y-39126400D02*
X104380600Y-39276400D01*
X104380600Y-40176400D02*
X104380600Y-40226400D01*
X104380600Y-41126400D02*
X104380600Y-41176400D01*
X104380600Y-42076400D02*
X104380600Y-42226400D01*
X104730600Y-42176400D02*
G75*
G02*
X104670600Y-42176400I-30000J0D01*
G01*
X104670600Y-42176400D02*
G75*
G02*
X104730600Y-42176400I30000J0D01*
G01*
%TO.C,U7*%
X179660000Y-99170000D02*
X179510000Y-99170000D01*
X179660000Y-99170000D02*
X179660000Y-100970000D01*
X178610000Y-99170000D02*
X177610000Y-99170000D01*
X176710000Y-99170000D02*
X176560000Y-99170000D01*
X176560000Y-99170000D02*
X176560000Y-100970000D01*
X179660000Y-100970000D02*
X179510000Y-100970000D01*
X178610000Y-100970000D02*
X178560000Y-100970000D01*
X177660000Y-100970000D02*
X177610000Y-100970000D01*
X176710000Y-100970000D02*
X176560000Y-100970000D01*
X176640000Y-101290000D02*
G75*
G02*
X176580000Y-101290000I-30000J0D01*
G01*
X176580000Y-101290000D02*
G75*
G02*
X176640000Y-101290000I30000J0D01*
G01*
D11*
%TO.C,U6*%
X106050600Y-60111400D02*
X106050600Y-59936400D01*
X106725600Y-56891400D02*
X106350600Y-56891400D01*
X106725600Y-60111400D02*
X106050600Y-60111400D01*
X108595600Y-56891400D02*
X109270600Y-56891400D01*
X108595600Y-60111400D02*
X109270600Y-60111400D01*
X109270600Y-56891400D02*
X109270600Y-57066400D01*
X109270600Y-60111400D02*
X109270600Y-59936400D01*
X106050600Y-56891400D02*
X105910600Y-56701400D01*
X106190600Y-56701400D01*
X106050600Y-56891400D01*
G36*
X106050600Y-56891400D02*
G01*
X105910600Y-56701400D01*
X106190600Y-56701400D01*
X106050600Y-56891400D01*
G37*
D13*
%TO.C,U5*%
X105681600Y-28874800D02*
X107967600Y-28874800D01*
X107967600Y-25877600D02*
X107129400Y-25877600D01*
X107129400Y-25877600D02*
X106519800Y-25877600D01*
X106519800Y-25877600D02*
X105681600Y-25877600D01*
D14*
X107129400Y-25877600D02*
G75*
G02*
X106519800Y-25877600I-304800J0D01*
G01*
D11*
%TO.C,U4*%
X75785600Y-56391400D02*
X75785600Y-56156400D01*
X75785600Y-59136400D02*
X75785600Y-58661400D01*
X76260600Y-55916400D02*
X76085600Y-55916400D01*
X76260600Y-59136400D02*
X75785600Y-59136400D01*
X78530600Y-55916400D02*
X79005600Y-55916400D01*
X78530600Y-59136400D02*
X79005600Y-59136400D01*
X79005600Y-55916400D02*
X79005600Y-56391400D01*
X79005600Y-59136400D02*
X79005600Y-58661400D01*
X75785600Y-55916400D02*
X75545600Y-55586400D01*
X76025600Y-55586400D01*
X75785600Y-55916400D01*
G36*
X75785600Y-55916400D02*
G01*
X75545600Y-55586400D01*
X76025600Y-55586400D01*
X75785600Y-55916400D01*
G37*
%TO.C,U2*%
X192842000Y-131640000D02*
X192842000Y-125440000D01*
X192842000Y-131640000D02*
X174442000Y-131640000D01*
X192842000Y-106790000D02*
X192842000Y-105790000D01*
X192842000Y-105790000D02*
X191342000Y-105790000D01*
X174442000Y-131640000D02*
X174442000Y-125440000D01*
X174442000Y-105790000D02*
X175942000Y-105790000D01*
X174442000Y-105790000D02*
X174442000Y-106790000D01*
X192842000Y-125265000D02*
X192842000Y-124765000D01*
X193342000Y-124765000D01*
X192842000Y-125265000D01*
G36*
X192842000Y-125265000D02*
G01*
X192842000Y-124765000D01*
X193342000Y-124765000D01*
X192842000Y-125265000D01*
G37*
D10*
%TO.C,U1*%
X193280000Y-98460000D02*
X193280000Y-101400000D01*
X186620000Y-98460000D02*
X193280000Y-98460000D01*
X193280000Y-101400000D02*
X186620000Y-101400000D01*
X186620000Y-101400000D02*
X186620000Y-98460000D01*
X186980000Y-101780000D02*
G75*
G02*
X186920000Y-101780000I-30000J0D01*
G01*
X186920000Y-101780000D02*
G75*
G02*
X186980000Y-101780000I30000J0D01*
G01*
D11*
%TO.C,TP1*%
X208000000Y-75500000D02*
G75*
G02*
X204500000Y-75500000I-1750000J0D01*
G01*
X204500000Y-75500000D02*
G75*
G02*
X208000000Y-75500000I1750000J0D01*
G01*
%TO.C,R15*%
X97628536Y-59041400D02*
X98082664Y-59041400D01*
X97628536Y-60511400D02*
X98082664Y-60511400D01*
%TO.C,R14*%
X97628536Y-56091400D02*
X98082664Y-56091400D01*
X97628536Y-57561400D02*
X98082664Y-57561400D01*
%TO.C,R13*%
X97628536Y-53141400D02*
X98082664Y-53141400D01*
X97628536Y-54611400D02*
X98082664Y-54611400D01*
D10*
%TO.C,Q9*%
X97925600Y-48616400D02*
X97275600Y-48616400D01*
X97925600Y-48616400D02*
X98575600Y-48616400D01*
X97925600Y-51736400D02*
X97275600Y-51736400D01*
X97925600Y-51736400D02*
X98575600Y-51736400D01*
D11*
X96763100Y-48666400D02*
X96523100Y-48336400D01*
X97003100Y-48336400D01*
X96763100Y-48666400D01*
G36*
X96763100Y-48666400D02*
G01*
X96523100Y-48336400D01*
X97003100Y-48336400D01*
X96763100Y-48666400D01*
G37*
D10*
%TO.C,Q8*%
X97925600Y-43991400D02*
X97275600Y-43991400D01*
X97925600Y-43991400D02*
X98575600Y-43991400D01*
X97925600Y-47111400D02*
X97275600Y-47111400D01*
X97925600Y-47111400D02*
X98575600Y-47111400D01*
D11*
X96763100Y-44041400D02*
X96523100Y-43711400D01*
X97003100Y-43711400D01*
X96763100Y-44041400D01*
G36*
X96763100Y-44041400D02*
G01*
X96523100Y-43711400D01*
X97003100Y-43711400D01*
X96763100Y-44041400D01*
G37*
D10*
%TO.C,Q2*%
X184410000Y-97090000D02*
X183760000Y-97090000D01*
X184410000Y-97090000D02*
X185060000Y-97090000D01*
X184410000Y-100210000D02*
X183760000Y-100210000D01*
X184410000Y-100210000D02*
X185060000Y-100210000D01*
D11*
X183247500Y-97140000D02*
X183007500Y-96810000D01*
X183487500Y-96810000D01*
X183247500Y-97140000D01*
G36*
X183247500Y-97140000D02*
G01*
X183007500Y-96810000D01*
X183487500Y-96810000D01*
X183247500Y-97140000D01*
G37*
D15*
%TO.C,Q1*%
X103126600Y-59836400D02*
X103855600Y-59836400D01*
X103855600Y-57655400D02*
X103855600Y-56916400D01*
X103855600Y-59836400D02*
X103855600Y-59097400D01*
X103855600Y-56916400D02*
X103126600Y-56916400D01*
D16*
X101170600Y-57426400D02*
G75*
G02*
X100970600Y-57426400I-100000J0D01*
G01*
X100970600Y-57426400D02*
G75*
G02*
X101170600Y-57426400I100000J0D01*
G01*
D11*
%TO.C,JP8*%
X96255600Y-41676400D02*
X96255600Y-41076400D01*
X96905600Y-40376400D02*
X99705600Y-40376400D01*
X99705600Y-42376400D02*
X96905600Y-42376400D01*
X100355600Y-41076400D02*
X100355600Y-41676400D01*
X96255600Y-41076400D02*
G75*
G02*
X96955600Y-40376400I699999J1D01*
G01*
X96955600Y-42376400D02*
G75*
G02*
X96255600Y-41676400I-1J699999D01*
G01*
X99655600Y-40376400D02*
G75*
G02*
X100355600Y-41076400I0J-700000D01*
G01*
X100355600Y-41676400D02*
G75*
G02*
X99655600Y-42376400I-700000J0D01*
G01*
%TO.C,JP7*%
X96255600Y-38126400D02*
X96255600Y-37526400D01*
X96905600Y-36826400D02*
X99705600Y-36826400D01*
X99705600Y-38826400D02*
X96905600Y-38826400D01*
X100355600Y-37526400D02*
X100355600Y-38126400D01*
X96255600Y-37526400D02*
G75*
G02*
X96955600Y-36826400I699999J1D01*
G01*
X96955600Y-38826400D02*
G75*
G02*
X96255600Y-38126400I-1J699999D01*
G01*
X99655600Y-36826400D02*
G75*
G02*
X100355600Y-37526400I0J-700000D01*
G01*
X100355600Y-38126400D02*
G75*
G02*
X99655600Y-38826400I-700000J0D01*
G01*
%TO.C,JP6*%
X96255600Y-34576400D02*
X96255600Y-33976400D01*
X96905600Y-33276400D02*
X99705600Y-33276400D01*
X99705600Y-35276400D02*
X96905600Y-35276400D01*
X100355600Y-33976400D02*
X100355600Y-34576400D01*
X96255600Y-33976400D02*
G75*
G02*
X96955600Y-33276400I699999J1D01*
G01*
X96955600Y-35276400D02*
G75*
G02*
X96255600Y-34576400I-1J699999D01*
G01*
X99655600Y-33276400D02*
G75*
G02*
X100355600Y-33976400I0J-700000D01*
G01*
X100355600Y-34576400D02*
G75*
G02*
X99655600Y-35276400I-700000J0D01*
G01*
%TO.C,JP5*%
X42495600Y-69626400D02*
X42495600Y-69026400D01*
X43145600Y-68326400D02*
X45945600Y-68326400D01*
X45945600Y-70326400D02*
X43145600Y-70326400D01*
X46595600Y-69026400D02*
X46595600Y-69626400D01*
X42495600Y-69026400D02*
G75*
G02*
X43195600Y-68326400I699999J1D01*
G01*
X43195600Y-70326400D02*
G75*
G02*
X42495600Y-69626400I-1J699999D01*
G01*
X45895600Y-68326400D02*
G75*
G02*
X46595600Y-69026400I0J-700000D01*
G01*
X46595600Y-69626400D02*
G75*
G02*
X45895600Y-70326400I-700000J0D01*
G01*
%TO.C,JP1*%
X106605600Y-40626400D02*
X106605600Y-40026400D01*
X107305600Y-39326400D02*
X108705600Y-39326400D01*
X108705600Y-41326400D02*
X107305600Y-41326400D01*
X109405600Y-40026400D02*
X109405600Y-40626400D01*
X106605600Y-40026400D02*
G75*
G02*
X107305600Y-39326400I699999J1D01*
G01*
X107305600Y-41326400D02*
G75*
G02*
X106605600Y-40626400I-1J699999D01*
G01*
X108705600Y-39326400D02*
G75*
G02*
X109405600Y-40026400I0J-700000D01*
G01*
X109405600Y-40626400D02*
G75*
G02*
X108705600Y-41326400I-700000J0D01*
G01*
%TO.C,J9*%
X155420000Y-42145000D02*
X156750000Y-42145000D01*
X155420000Y-43475000D02*
X155420000Y-42145000D01*
X155420000Y-44745000D02*
X155420000Y-47345000D01*
X155420000Y-44745000D02*
X158080000Y-44745000D01*
X155420000Y-47345000D02*
X158080000Y-47345000D01*
X158080000Y-44745000D02*
X158080000Y-47345000D01*
%TO.C,J8*%
X149340000Y-124330000D02*
X149340000Y-123000000D01*
X150670000Y-124330000D02*
X149340000Y-124330000D01*
X151940000Y-124330000D02*
X167240000Y-124330000D01*
X151940000Y-124330000D02*
X151940000Y-121670000D01*
X167240000Y-124330000D02*
X167240000Y-121670000D01*
X151940000Y-121670000D02*
X167240000Y-121670000D01*
%TO.C,J7*%
X167670000Y-52145000D02*
X169000000Y-52145000D01*
X167670000Y-53475000D02*
X167670000Y-52145000D01*
X167670000Y-54745000D02*
X167670000Y-57345000D01*
X167670000Y-54745000D02*
X170330000Y-54745000D01*
X167670000Y-57345000D02*
X170330000Y-57345000D01*
X170330000Y-54745000D02*
X170330000Y-57345000D01*
%TO.C,J6*%
X145670000Y-119130000D02*
X147000000Y-119130000D01*
X145670000Y-120460000D02*
X145670000Y-119130000D01*
X145670000Y-121730000D02*
X145670000Y-124330000D01*
X145670000Y-121730000D02*
X148330000Y-121730000D01*
X145670000Y-124330000D02*
X148330000Y-124330000D01*
X148330000Y-121730000D02*
X148330000Y-124330000D01*
%TO.C,J5*%
X145670000Y-112880000D02*
X147000000Y-112880000D01*
X145670000Y-114210000D02*
X145670000Y-112880000D01*
X145670000Y-115480000D02*
X145670000Y-118080000D01*
X145670000Y-115480000D02*
X148330000Y-115480000D01*
X145670000Y-118080000D02*
X148330000Y-118080000D01*
X148330000Y-115480000D02*
X148330000Y-118080000D01*
%TO.C,J2*%
X162170000Y-53895000D02*
X163500000Y-53895000D01*
X162170000Y-55225000D02*
X162170000Y-53895000D01*
X162170000Y-56495000D02*
X162170000Y-59095000D01*
X162170000Y-56495000D02*
X164830000Y-56495000D01*
X162170000Y-59095000D02*
X164830000Y-59095000D01*
X164830000Y-56495000D02*
X164830000Y-59095000D01*
D10*
%TO.C,D2*%
X98595600Y-29326400D02*
X98595600Y-31326400D01*
X98595600Y-29326400D02*
X102455600Y-29326400D01*
X98595600Y-31326400D02*
X102455600Y-31326400D01*
%TO.C,D1*%
X98595600Y-25976400D02*
X98595600Y-27976400D01*
X98595600Y-25976400D02*
X102455600Y-25976400D01*
X98595600Y-27976400D02*
X102455600Y-27976400D01*
D11*
%TO.C,Camera_Interface1*%
X75765600Y-33496400D02*
X77095600Y-33496400D01*
X75765600Y-34826400D02*
X75765600Y-33496400D01*
X75765600Y-36096400D02*
X75765600Y-53936400D01*
X75765600Y-36096400D02*
X78365600Y-36096400D01*
X75765600Y-53936400D02*
X80965600Y-53936400D01*
X78365600Y-33496400D02*
X80965600Y-33496400D01*
X78365600Y-36096400D02*
X78365600Y-33496400D01*
X80965600Y-33496400D02*
X80965600Y-53936400D01*
%TO.C,C21*%
X100060600Y-75987400D02*
X100690600Y-75987400D01*
X100375600Y-75672400D02*
X100375600Y-76302400D01*
X103560841Y-74596400D02*
X103560841Y-81056400D01*
X103600841Y-74596400D02*
X103600841Y-81056400D01*
X103640841Y-74596400D02*
X103640841Y-81056400D01*
X103680841Y-74598400D02*
X103680841Y-81054400D01*
X103720841Y-74599400D02*
X103720841Y-81053400D01*
X103760841Y-74602400D02*
X103760841Y-81050400D01*
X103800841Y-74604400D02*
X103800841Y-76786400D01*
X103800841Y-78866400D02*
X103800841Y-81048400D01*
X103840841Y-74608400D02*
X103840841Y-76786400D01*
X103840841Y-78866400D02*
X103840841Y-81044400D01*
X103880841Y-74611400D02*
X103880841Y-76786400D01*
X103880841Y-78866400D02*
X103880841Y-81041400D01*
X103920841Y-74615400D02*
X103920841Y-76786400D01*
X103920841Y-78866400D02*
X103920841Y-81037400D01*
X103960841Y-74620400D02*
X103960841Y-76786400D01*
X103960841Y-78866400D02*
X103960841Y-81032400D01*
X104000841Y-74625400D02*
X104000841Y-76786400D01*
X104000841Y-78866400D02*
X104000841Y-81027400D01*
X104040841Y-74631400D02*
X104040841Y-76786400D01*
X104040841Y-78866400D02*
X104040841Y-81021400D01*
X104080841Y-74637400D02*
X104080841Y-76786400D01*
X104080841Y-78866400D02*
X104080841Y-81015400D01*
X104120841Y-74644400D02*
X104120841Y-76786400D01*
X104120841Y-78866400D02*
X104120841Y-81008400D01*
X104160841Y-74651400D02*
X104160841Y-76786400D01*
X104160841Y-78866400D02*
X104160841Y-81001400D01*
X104200841Y-74659400D02*
X104200841Y-76786400D01*
X104200841Y-78866400D02*
X104200841Y-80993400D01*
X104240841Y-74667400D02*
X104240841Y-76786400D01*
X104240841Y-78866400D02*
X104240841Y-80985400D01*
X104281841Y-74676400D02*
X104281841Y-76786400D01*
X104281841Y-78866400D02*
X104281841Y-80976400D01*
X104321841Y-74685400D02*
X104321841Y-76786400D01*
X104321841Y-78866400D02*
X104321841Y-80967400D01*
X104361841Y-74695400D02*
X104361841Y-76786400D01*
X104361841Y-78866400D02*
X104361841Y-80957400D01*
X104401841Y-74705400D02*
X104401841Y-76786400D01*
X104401841Y-78866400D02*
X104401841Y-80947400D01*
X104441841Y-74716400D02*
X104441841Y-76786400D01*
X104441841Y-78866400D02*
X104441841Y-80936400D01*
X104481841Y-74728400D02*
X104481841Y-76786400D01*
X104481841Y-78866400D02*
X104481841Y-80924400D01*
X104521841Y-74740400D02*
X104521841Y-76786400D01*
X104521841Y-78866400D02*
X104521841Y-80912400D01*
X104561841Y-74752400D02*
X104561841Y-76786400D01*
X104561841Y-78866400D02*
X104561841Y-80900400D01*
X104601841Y-74765400D02*
X104601841Y-76786400D01*
X104601841Y-78866400D02*
X104601841Y-80887400D01*
X104641841Y-74779400D02*
X104641841Y-76786400D01*
X104641841Y-78866400D02*
X104641841Y-80873400D01*
X104681841Y-74793400D02*
X104681841Y-76786400D01*
X104681841Y-78866400D02*
X104681841Y-80859400D01*
X104721841Y-74808400D02*
X104721841Y-76786400D01*
X104721841Y-78866400D02*
X104721841Y-80844400D01*
X104761841Y-74824400D02*
X104761841Y-76786400D01*
X104761841Y-78866400D02*
X104761841Y-80828400D01*
X104801841Y-74840400D02*
X104801841Y-76786400D01*
X104801841Y-78866400D02*
X104801841Y-80812400D01*
X104841841Y-74856400D02*
X104841841Y-76786400D01*
X104841841Y-78866400D02*
X104841841Y-80796400D01*
X104881841Y-74874400D02*
X104881841Y-76786400D01*
X104881841Y-78866400D02*
X104881841Y-80778400D01*
X104921841Y-74892400D02*
X104921841Y-76786400D01*
X104921841Y-78866400D02*
X104921841Y-80760400D01*
X104961841Y-74910400D02*
X104961841Y-76786400D01*
X104961841Y-78866400D02*
X104961841Y-80742400D01*
X105001841Y-74930400D02*
X105001841Y-76786400D01*
X105001841Y-78866400D02*
X105001841Y-80722400D01*
X105041841Y-74950400D02*
X105041841Y-76786400D01*
X105041841Y-78866400D02*
X105041841Y-80702400D01*
X105081841Y-74970400D02*
X105081841Y-76786400D01*
X105081841Y-78866400D02*
X105081841Y-80682400D01*
X105121841Y-74992400D02*
X105121841Y-76786400D01*
X105121841Y-78866400D02*
X105121841Y-80660400D01*
X105161841Y-75014400D02*
X105161841Y-76786400D01*
X105161841Y-78866400D02*
X105161841Y-80638400D01*
X105201841Y-75036400D02*
X105201841Y-76786400D01*
X105201841Y-78866400D02*
X105201841Y-80616400D01*
X105241841Y-75060400D02*
X105241841Y-76786400D01*
X105241841Y-78866400D02*
X105241841Y-80592400D01*
X105281841Y-75084400D02*
X105281841Y-76786400D01*
X105281841Y-78866400D02*
X105281841Y-80568400D01*
X105321841Y-75110400D02*
X105321841Y-76786400D01*
X105321841Y-78866400D02*
X105321841Y-80542400D01*
X105361841Y-75136400D02*
X105361841Y-76786400D01*
X105361841Y-78866400D02*
X105361841Y-80516400D01*
X105401841Y-75162400D02*
X105401841Y-76786400D01*
X105401841Y-78866400D02*
X105401841Y-80490400D01*
X105441841Y-75190400D02*
X105441841Y-76786400D01*
X105441841Y-78866400D02*
X105441841Y-80462400D01*
X105481841Y-75219400D02*
X105481841Y-76786400D01*
X105481841Y-78866400D02*
X105481841Y-80433400D01*
X105521841Y-75248400D02*
X105521841Y-76786400D01*
X105521841Y-78866400D02*
X105521841Y-80404400D01*
X105561841Y-75278400D02*
X105561841Y-76786400D01*
X105561841Y-78866400D02*
X105561841Y-80374400D01*
X105601841Y-75310400D02*
X105601841Y-76786400D01*
X105601841Y-78866400D02*
X105601841Y-80342400D01*
X105641841Y-75342400D02*
X105641841Y-76786400D01*
X105641841Y-78866400D02*
X105641841Y-80310400D01*
X105681841Y-75376400D02*
X105681841Y-76786400D01*
X105681841Y-78866400D02*
X105681841Y-80276400D01*
X105721841Y-75410400D02*
X105721841Y-76786400D01*
X105721841Y-78866400D02*
X105721841Y-80242400D01*
X105761841Y-75446400D02*
X105761841Y-76786400D01*
X105761841Y-78866400D02*
X105761841Y-80206400D01*
X105801841Y-75483400D02*
X105801841Y-76786400D01*
X105801841Y-78866400D02*
X105801841Y-80169400D01*
X105841841Y-75521400D02*
X105841841Y-76786400D01*
X105841841Y-78866400D02*
X105841841Y-80131400D01*
X105881841Y-75561400D02*
X105881841Y-80091400D01*
X105921841Y-75602400D02*
X105921841Y-80050400D01*
X105961841Y-75644400D02*
X105961841Y-80008400D01*
X106001841Y-75689400D02*
X106001841Y-79963400D01*
X106041841Y-75734400D02*
X106041841Y-79918400D01*
X106081841Y-75782400D02*
X106081841Y-79870400D01*
X106121841Y-75831400D02*
X106121841Y-79821400D01*
X106161841Y-75882400D02*
X106161841Y-79770400D01*
X106201841Y-75936400D02*
X106201841Y-79716400D01*
X106241841Y-75992400D02*
X106241841Y-79660400D01*
X106281841Y-76050400D02*
X106281841Y-79602400D01*
X106321841Y-76112400D02*
X106321841Y-79540400D01*
X106361841Y-76176400D02*
X106361841Y-79476400D01*
X106401841Y-76245400D02*
X106401841Y-79407400D01*
X106441841Y-76317400D02*
X106441841Y-79335400D01*
X106481841Y-76394400D02*
X106481841Y-79258400D01*
X106521841Y-76476400D02*
X106521841Y-79176400D01*
X106561841Y-76564400D02*
X106561841Y-79088400D01*
X106601841Y-76661400D02*
X106601841Y-78991400D01*
X106641841Y-76767400D02*
X106641841Y-78885400D01*
X106681841Y-76886400D02*
X106681841Y-78766400D01*
X106721841Y-77024400D02*
X106721841Y-78628400D01*
X106761841Y-77193400D02*
X106761841Y-78459400D01*
X106801841Y-77424400D02*
X106801841Y-78228400D01*
X106830841Y-77826400D02*
G75*
G02*
X100290841Y-77826400I-3270000J0D01*
G01*
X100290841Y-77826400D02*
G75*
G02*
X106830841Y-77826400I3270000J0D01*
G01*
%TO.C,C20*%
X92750600Y-65051400D02*
X93250600Y-65051400D01*
X93000600Y-64801400D02*
X93000600Y-65301400D01*
X95555375Y-63946400D02*
X95555375Y-69106400D01*
X95595375Y-63946400D02*
X95595375Y-69106400D01*
X95635375Y-63947400D02*
X95635375Y-69105400D01*
X95675375Y-63948400D02*
X95675375Y-69104400D01*
X95715375Y-63950400D02*
X95715375Y-69102400D01*
X95755375Y-63953400D02*
X95755375Y-69099400D01*
X95795375Y-63957400D02*
X95795375Y-65486400D01*
X95795375Y-67566400D02*
X95795375Y-69095400D01*
X95835375Y-63961400D02*
X95835375Y-65486400D01*
X95835375Y-67566400D02*
X95835375Y-69091400D01*
X95875375Y-63965400D02*
X95875375Y-65486400D01*
X95875375Y-67566400D02*
X95875375Y-69087400D01*
X95915375Y-63970400D02*
X95915375Y-65486400D01*
X95915375Y-67566400D02*
X95915375Y-69082400D01*
X95955375Y-63976400D02*
X95955375Y-65486400D01*
X95955375Y-67566400D02*
X95955375Y-69076400D01*
X95995375Y-63983400D02*
X95995375Y-65486400D01*
X95995375Y-67566400D02*
X95995375Y-69069400D01*
X96035375Y-63990400D02*
X96035375Y-65486400D01*
X96035375Y-67566400D02*
X96035375Y-69062400D01*
X96075375Y-63998400D02*
X96075375Y-65486400D01*
X96075375Y-67566400D02*
X96075375Y-69054400D01*
X96115375Y-64006400D02*
X96115375Y-65486400D01*
X96115375Y-67566400D02*
X96115375Y-69046400D01*
X96155375Y-64015400D02*
X96155375Y-65486400D01*
X96155375Y-67566400D02*
X96155375Y-69037400D01*
X96195375Y-64025400D02*
X96195375Y-65486400D01*
X96195375Y-67566400D02*
X96195375Y-69027400D01*
X96235375Y-64035400D02*
X96235375Y-65486400D01*
X96235375Y-67566400D02*
X96235375Y-69017400D01*
X96276375Y-64046400D02*
X96276375Y-65486400D01*
X96276375Y-67566400D02*
X96276375Y-69006400D01*
X96316375Y-64058400D02*
X96316375Y-65486400D01*
X96316375Y-67566400D02*
X96316375Y-68994400D01*
X96356375Y-64071400D02*
X96356375Y-65486400D01*
X96356375Y-67566400D02*
X96356375Y-68981400D01*
X96396375Y-64084400D02*
X96396375Y-65486400D01*
X96396375Y-67566400D02*
X96396375Y-68968400D01*
X96436375Y-64098400D02*
X96436375Y-65486400D01*
X96436375Y-67566400D02*
X96436375Y-68954400D01*
X96476375Y-64112400D02*
X96476375Y-65486400D01*
X96476375Y-67566400D02*
X96476375Y-68940400D01*
X96516375Y-64128400D02*
X96516375Y-65486400D01*
X96516375Y-67566400D02*
X96516375Y-68924400D01*
X96556375Y-64144400D02*
X96556375Y-65486400D01*
X96556375Y-67566400D02*
X96556375Y-68908400D01*
X96596375Y-64161400D02*
X96596375Y-65486400D01*
X96596375Y-67566400D02*
X96596375Y-68891400D01*
X96636375Y-64178400D02*
X96636375Y-65486400D01*
X96636375Y-67566400D02*
X96636375Y-68874400D01*
X96676375Y-64197400D02*
X96676375Y-65486400D01*
X96676375Y-67566400D02*
X96676375Y-68855400D01*
X96716375Y-64216400D02*
X96716375Y-65486400D01*
X96716375Y-67566400D02*
X96716375Y-68836400D01*
X96756375Y-64236400D02*
X96756375Y-65486400D01*
X96756375Y-67566400D02*
X96756375Y-68816400D01*
X96796375Y-64258400D02*
X96796375Y-65486400D01*
X96796375Y-67566400D02*
X96796375Y-68794400D01*
X96836375Y-64279400D02*
X96836375Y-65486400D01*
X96836375Y-67566400D02*
X96836375Y-68773400D01*
X96876375Y-64302400D02*
X96876375Y-65486400D01*
X96876375Y-67566400D02*
X96876375Y-68750400D01*
X96916375Y-64326400D02*
X96916375Y-65486400D01*
X96916375Y-67566400D02*
X96916375Y-68726400D01*
X96956375Y-64351400D02*
X96956375Y-65486400D01*
X96956375Y-67566400D02*
X96956375Y-68701400D01*
X96996375Y-64377400D02*
X96996375Y-65486400D01*
X96996375Y-67566400D02*
X96996375Y-68675400D01*
X97036375Y-64404400D02*
X97036375Y-65486400D01*
X97036375Y-67566400D02*
X97036375Y-68648400D01*
X97076375Y-64431400D02*
X97076375Y-65486400D01*
X97076375Y-67566400D02*
X97076375Y-68621400D01*
X97116375Y-64461400D02*
X97116375Y-65486400D01*
X97116375Y-67566400D02*
X97116375Y-68591400D01*
X97156375Y-64491400D02*
X97156375Y-65486400D01*
X97156375Y-67566400D02*
X97156375Y-68561400D01*
X97196375Y-64522400D02*
X97196375Y-65486400D01*
X97196375Y-67566400D02*
X97196375Y-68530400D01*
X97236375Y-64555400D02*
X97236375Y-65486400D01*
X97236375Y-67566400D02*
X97236375Y-68497400D01*
X97276375Y-64589400D02*
X97276375Y-65486400D01*
X97276375Y-67566400D02*
X97276375Y-68463400D01*
X97316375Y-64625400D02*
X97316375Y-65486400D01*
X97316375Y-67566400D02*
X97316375Y-68427400D01*
X97356375Y-64662400D02*
X97356375Y-65486400D01*
X97356375Y-67566400D02*
X97356375Y-68390400D01*
X97396375Y-64700400D02*
X97396375Y-65486400D01*
X97396375Y-67566400D02*
X97396375Y-68352400D01*
X97436375Y-64741400D02*
X97436375Y-65486400D01*
X97436375Y-67566400D02*
X97436375Y-68311400D01*
X97476375Y-64783400D02*
X97476375Y-65486400D01*
X97476375Y-67566400D02*
X97476375Y-68269400D01*
X97516375Y-64827400D02*
X97516375Y-65486400D01*
X97516375Y-67566400D02*
X97516375Y-68225400D01*
X97556375Y-64873400D02*
X97556375Y-65486400D01*
X97556375Y-67566400D02*
X97556375Y-68179400D01*
X97596375Y-64921400D02*
X97596375Y-65486400D01*
X97596375Y-67566400D02*
X97596375Y-68131400D01*
X97636375Y-64972400D02*
X97636375Y-65486400D01*
X97636375Y-67566400D02*
X97636375Y-68080400D01*
X97676375Y-65026400D02*
X97676375Y-65486400D01*
X97676375Y-67566400D02*
X97676375Y-68026400D01*
X97716375Y-65083400D02*
X97716375Y-65486400D01*
X97716375Y-67566400D02*
X97716375Y-67969400D01*
X97756375Y-65143400D02*
X97756375Y-65486400D01*
X97756375Y-67566400D02*
X97756375Y-67909400D01*
X97796375Y-65207400D02*
X97796375Y-65486400D01*
X97796375Y-67566400D02*
X97796375Y-67845400D01*
X97836375Y-65275400D02*
X97836375Y-65486400D01*
X97836375Y-67566400D02*
X97836375Y-67777400D01*
X97876375Y-65348400D02*
X97876375Y-67704400D01*
X97916375Y-65428400D02*
X97916375Y-67624400D01*
X97956375Y-65515400D02*
X97956375Y-67537400D01*
X97996375Y-65611400D02*
X97996375Y-67441400D01*
X98036375Y-65721400D02*
X98036375Y-67331400D01*
X98076375Y-65849400D02*
X98076375Y-67203400D01*
X98116375Y-66008400D02*
X98116375Y-67044400D01*
X98156375Y-66242400D02*
X98156375Y-66810400D01*
X98175375Y-66526400D02*
G75*
G02*
X92935375Y-66526400I-2620000J0D01*
G01*
X92935375Y-66526400D02*
G75*
G02*
X98175375Y-66526400I2620000J0D01*
G01*
D10*
%TO.C,C5*%
X193690000Y-99760000D02*
X193690000Y-101640000D01*
X193690000Y-101640000D02*
X197600000Y-101640000D01*
X197600000Y-99760000D02*
X193690000Y-99760000D01*
%TO.C,C1*%
X193690000Y-97510000D02*
X193690000Y-99390000D01*
X193690000Y-99390000D02*
X197600000Y-99390000D01*
X197600000Y-97510000D02*
X193690000Y-97510000D01*
%TD*%
%LPC*%
%TO.C,JP8*%
G36*
X97555600Y-40626400D02*
G01*
X99055600Y-40626400D01*
X99055600Y-42126400D01*
X97555600Y-42126400D01*
X97555600Y-40626400D01*
G37*
%TO.C,JP7*%
G36*
X97555600Y-37076400D02*
G01*
X99055600Y-37076400D01*
X99055600Y-38576400D01*
X97555600Y-38576400D01*
X97555600Y-37076400D01*
G37*
%TO.C,JP6*%
G36*
X97555600Y-33526400D02*
G01*
X99055600Y-33526400D01*
X99055600Y-35026400D01*
X97555600Y-35026400D01*
X97555600Y-33526400D01*
G37*
%TO.C,JP5*%
G36*
X43795600Y-68576400D02*
G01*
X45295600Y-68576400D01*
X45295600Y-70076400D01*
X43795600Y-70076400D01*
X43795600Y-68576400D01*
G37*
%TO.C,JP1*%
G36*
X107855600Y-39576400D02*
G01*
X108155600Y-39576400D01*
X108155600Y-41076400D01*
X107855600Y-41076400D01*
X107855600Y-39576400D01*
G37*
%TD*%
D17*
%TO.C,R6*%
X193140000Y-96350000D03*
X194960000Y-96350000D03*
%TD*%
D18*
%TO.C,R10*%
X188500000Y-94550000D03*
X188500000Y-88450000D03*
%TD*%
D19*
%TO.C,R17*%
X180000000Y-95950000D03*
X180000000Y-94130000D03*
%TD*%
%TO.C,R9*%
X180000000Y-92510000D03*
X180000000Y-90690000D03*
%TD*%
D20*
%TO.C,TP2*%
X184350000Y-91100000D03*
%TD*%
D21*
%TO.C,U3*%
X174962500Y-94100000D03*
X174962500Y-95050000D03*
X174962500Y-96000000D03*
X177237500Y-96000000D03*
X177237500Y-95050000D03*
X177237500Y-94100000D03*
%TD*%
D22*
%TO.C,R22*%
X182000000Y-94120000D03*
X182000000Y-95940000D03*
%TD*%
D23*
%TO.C,C4*%
X184050000Y-94050000D03*
X184050000Y-95950000D03*
%TD*%
D24*
%TO.C,C2*%
X178300000Y-92300000D03*
X176400000Y-92300000D03*
%TD*%
D25*
%TO.C,C7*%
X170600000Y-91200000D03*
X172500000Y-91200000D03*
%TD*%
D26*
%TO.C,C11*%
X171000000Y-96000000D03*
X171000000Y-94100000D03*
%TD*%
D25*
%TO.C,C12*%
X170600000Y-89100000D03*
X172500000Y-89100000D03*
%TD*%
D26*
%TO.C,C13*%
X168900000Y-96000000D03*
X168900000Y-94100000D03*
%TD*%
D27*
%TO.C,SW5*%
X197137500Y-89575000D03*
X195137500Y-89575000D03*
X193137500Y-89575000D03*
X197137500Y-94075000D03*
X195137500Y-94075000D03*
X193137500Y-94075000D03*
%TD*%
D28*
%TO.C,R3*%
X130050000Y-38000000D03*
X123950000Y-38000000D03*
%TD*%
D29*
%TO.C,SW3*%
X101895600Y-53616400D03*
D30*
X101895600Y-56156400D03*
%TD*%
D29*
%TO.C,SW2*%
X101895600Y-49566400D03*
D30*
X101895600Y-52106400D03*
%TD*%
D29*
%TO.C,J3*%
X168850000Y-21150000D03*
D30*
X168850000Y-23690000D03*
X168850000Y-26230000D03*
X168850000Y-28770000D03*
X168850000Y-31310000D03*
X168850000Y-33850000D03*
%TD*%
D29*
%TO.C,BT2*%
X146950000Y-98960000D03*
D30*
X146950000Y-101500000D03*
%TD*%
D31*
%TO.C,U9*%
X104451202Y-32676500D03*
X104451202Y-33946500D03*
X104451202Y-35216500D03*
X104451202Y-36486500D03*
X109278400Y-36486500D03*
X109278400Y-35216500D03*
X109278400Y-33946500D03*
X109278400Y-32676500D03*
%TD*%
D32*
%TO.C,U8*%
X104780600Y-41626400D03*
X104780600Y-40676400D03*
X104780600Y-39726400D03*
X102180600Y-39726400D03*
X102180600Y-41626400D03*
%TD*%
D33*
%TO.C,U7*%
X177160000Y-101370000D03*
X178110000Y-101370000D03*
X179060000Y-101370000D03*
X179060000Y-98770000D03*
X177160000Y-98770000D03*
%TD*%
D34*
%TO.C,U6*%
X106435600Y-57501400D03*
X106435600Y-58001400D03*
X106435600Y-58501400D03*
X106435600Y-59001400D03*
X106435600Y-59501400D03*
D35*
X107160600Y-59726400D03*
X107660600Y-59726400D03*
X108160600Y-59726400D03*
D34*
X108885600Y-59501400D03*
X108885600Y-59001400D03*
X108885600Y-58501400D03*
X108885600Y-58001400D03*
X108885600Y-57501400D03*
D35*
X108160600Y-57276400D03*
X107660600Y-57276400D03*
X107160600Y-57276400D03*
%TD*%
D36*
%TO.C,U5*%
X104792600Y-26411000D03*
X104792600Y-27046000D03*
X104792600Y-27706400D03*
X104792600Y-28341400D03*
X108856600Y-28341400D03*
X108856600Y-27706400D03*
X108856600Y-27046000D03*
X108856600Y-26411000D03*
%TD*%
D37*
%TO.C,U4*%
X75958100Y-56776400D03*
X75958100Y-57276400D03*
X75958100Y-57776400D03*
X75958100Y-58276400D03*
D38*
X76645600Y-58963900D03*
X77145600Y-58963900D03*
X77645600Y-58963900D03*
X78145600Y-58963900D03*
D37*
X78833100Y-58276400D03*
X78833100Y-57776400D03*
X78833100Y-57276400D03*
X78833100Y-56776400D03*
D38*
X78145600Y-56088900D03*
X77645600Y-56088900D03*
X77145600Y-56088900D03*
X76645600Y-56088900D03*
D39*
X77395600Y-57526400D03*
%TD*%
D40*
%TO.C,U2*%
X192392000Y-124000000D03*
X192392000Y-122730000D03*
X192392000Y-121460000D03*
X192392000Y-120190000D03*
X192392000Y-118920000D03*
X192392000Y-117650000D03*
X192392000Y-116380000D03*
X192392000Y-115110000D03*
X192392000Y-113840000D03*
X192392000Y-112570000D03*
X192392000Y-111300000D03*
X192392000Y-110030000D03*
X192392000Y-108760000D03*
X192392000Y-107490000D03*
D41*
X190627000Y-106240000D03*
X189357000Y-106240000D03*
X188087000Y-106240000D03*
X186817000Y-106240000D03*
X185547000Y-106240000D03*
X184277000Y-106240000D03*
X183007000Y-106240000D03*
X181737000Y-106240000D03*
X180467000Y-106240000D03*
X179197000Y-106240000D03*
X177927000Y-106240000D03*
X176657000Y-106240000D03*
D40*
X174892000Y-107490000D03*
X174892000Y-108760000D03*
X174892000Y-110030000D03*
X174892000Y-111300000D03*
X174892000Y-112570000D03*
X174892000Y-113840000D03*
X174892000Y-115110000D03*
X174892000Y-116380000D03*
X174892000Y-117650000D03*
X174892000Y-118920000D03*
X174892000Y-120190000D03*
X174892000Y-121460000D03*
X174892000Y-122730000D03*
X174892000Y-124000000D03*
D42*
X186542000Y-116980000D03*
X186542000Y-115580000D03*
X185842000Y-117680000D03*
X185842000Y-116280000D03*
X185842000Y-114880000D03*
X185142000Y-116980000D03*
D43*
X185142000Y-116280000D03*
D42*
X185142000Y-115580000D03*
X184442000Y-117680000D03*
X184442000Y-116280000D03*
X184442000Y-114880000D03*
X183742000Y-116980000D03*
X183742000Y-115580000D03*
%TD*%
D44*
%TO.C,U1*%
X187650000Y-103000000D03*
X189950000Y-103000000D03*
X192250000Y-103000000D03*
D45*
X190950000Y-97030000D03*
X189950000Y-97030000D03*
D46*
X189950000Y-97030000D03*
D45*
X188950000Y-97030000D03*
%TD*%
D20*
%TO.C,TP1*%
X206250000Y-75500000D03*
%TD*%
D17*
%TO.C,R26*%
X69615600Y-59826400D03*
X71435600Y-59826400D03*
%TD*%
%TO.C,R25*%
X69615600Y-56876400D03*
X71435600Y-56876400D03*
%TD*%
%TO.C,R24*%
X83265600Y-54626400D03*
X85085600Y-54626400D03*
%TD*%
%TO.C,R23*%
X83265600Y-51676400D03*
X85085600Y-51676400D03*
%TD*%
%TO.C,R21*%
X83265600Y-48726400D03*
X85085600Y-48726400D03*
%TD*%
%TO.C,R20*%
X83265600Y-45776400D03*
X85085600Y-45776400D03*
%TD*%
%TO.C,R19*%
X183290000Y-101400000D03*
X185110000Y-101400000D03*
%TD*%
%TO.C,R18*%
X69615600Y-53926400D03*
X71435600Y-53926400D03*
%TD*%
D19*
%TO.C,R16*%
X175560000Y-99210000D03*
X175560000Y-101030000D03*
%TD*%
D47*
%TO.C,R15*%
X96855600Y-59776400D03*
X98855600Y-59776400D03*
%TD*%
%TO.C,R14*%
X96855600Y-56826400D03*
X98855600Y-56826400D03*
%TD*%
%TO.C,R13*%
X96855600Y-53876400D03*
X98855600Y-53876400D03*
%TD*%
D17*
%TO.C,R12*%
X69615600Y-50976400D03*
X71435600Y-50976400D03*
%TD*%
%TO.C,R11*%
X69615600Y-48026400D03*
X71435600Y-48026400D03*
%TD*%
%TO.C,R8*%
X83265600Y-42826400D03*
X85085600Y-42826400D03*
%TD*%
%TO.C,R7*%
X83265600Y-39876400D03*
X85085600Y-39876400D03*
%TD*%
%TO.C,R5*%
X83265600Y-36926400D03*
X85085600Y-36926400D03*
%TD*%
%TO.C,R4*%
X83265600Y-33976400D03*
X85085600Y-33976400D03*
%TD*%
D22*
%TO.C,R2*%
X180660000Y-99210000D03*
X180660000Y-101030000D03*
%TD*%
D17*
%TO.C,R1*%
X69615600Y-45076400D03*
X71435600Y-45076400D03*
%TD*%
D48*
%TO.C,Q9*%
X96985600Y-49226400D03*
X96985600Y-51126400D03*
X98865600Y-50176400D03*
%TD*%
%TO.C,Q8*%
X96985600Y-44601400D03*
X96985600Y-46501400D03*
X98865600Y-45551400D03*
%TD*%
%TO.C,Q2*%
X183470000Y-97700000D03*
X183470000Y-99600000D03*
X185350000Y-98650000D03*
%TD*%
D49*
%TO.C,Q1*%
X102320600Y-57426400D03*
X102320600Y-59326400D03*
X104090600Y-58376400D03*
%TD*%
D50*
%TO.C,JP8*%
X97005600Y-41376400D03*
D51*
X98305600Y-41376400D03*
D52*
X99605600Y-41376400D03*
%TD*%
D50*
%TO.C,JP7*%
X97005600Y-37826400D03*
D51*
X98305600Y-37826400D03*
D52*
X99605600Y-37826400D03*
%TD*%
D50*
%TO.C,JP6*%
X97005600Y-34276400D03*
D51*
X98305600Y-34276400D03*
D52*
X99605600Y-34276400D03*
%TD*%
D50*
%TO.C,JP5*%
X43245600Y-69326400D03*
D51*
X44545600Y-69326400D03*
D52*
X45845600Y-69326400D03*
%TD*%
D53*
%TO.C,JP1*%
X107355600Y-40326400D03*
D54*
X108655600Y-40326400D03*
%TD*%
D29*
%TO.C,J9*%
X156750000Y-43475000D03*
D30*
X156750000Y-46015000D03*
%TD*%
D29*
%TO.C,J8*%
X150670000Y-123000000D03*
D30*
X153210000Y-123000000D03*
X155750000Y-123000000D03*
X158290000Y-123000000D03*
X160830000Y-123000000D03*
X163370000Y-123000000D03*
X165910000Y-123000000D03*
%TD*%
D29*
%TO.C,J7*%
X169000000Y-53475000D03*
D30*
X169000000Y-56015000D03*
%TD*%
D29*
%TO.C,J6*%
X147000000Y-120460000D03*
D30*
X147000000Y-123000000D03*
%TD*%
D29*
%TO.C,J5*%
X147000000Y-114210000D03*
D30*
X147000000Y-116750000D03*
%TD*%
D55*
%TO.C,J4*%
X194522000Y-106746000D03*
X194522000Y-107596000D03*
X194522000Y-108446000D03*
X194522000Y-109296000D03*
X194522000Y-110146000D03*
X194522000Y-110996000D03*
X194522000Y-111846000D03*
X194522000Y-112696000D03*
X195872000Y-112696000D03*
X195872000Y-111846000D03*
X195872000Y-110996000D03*
X195872000Y-110146000D03*
X195872000Y-109296000D03*
X195872000Y-108446000D03*
X195872000Y-107596000D03*
X195872000Y-106746000D03*
D56*
X195502000Y-105396000D03*
D57*
X198882000Y-105396000D03*
D56*
X195502000Y-114046000D03*
D57*
X198882000Y-114046000D03*
%TD*%
D29*
%TO.C,J2*%
X163500000Y-55225000D03*
D30*
X163500000Y-57765000D03*
%TD*%
D58*
%TO.C,D2*%
X99405600Y-30326400D03*
X102205600Y-30326400D03*
%TD*%
%TO.C,D1*%
X99405600Y-26976400D03*
X102205600Y-26976400D03*
%TD*%
D29*
%TO.C,Camera_Interface1*%
X77095600Y-34826400D03*
D30*
X79635600Y-34826400D03*
X77095600Y-37366400D03*
X79635600Y-37366400D03*
X77095600Y-39906400D03*
X79635600Y-39906400D03*
X77095600Y-42446400D03*
X79635600Y-42446400D03*
X77095600Y-44986400D03*
X79635600Y-44986400D03*
X77095600Y-47526400D03*
X79635600Y-47526400D03*
X77095600Y-50066400D03*
X79635600Y-50066400D03*
X77095600Y-52606400D03*
X79635600Y-52606400D03*
%TD*%
D25*
%TO.C,C29*%
X92305600Y-46226400D03*
X94205600Y-46226400D03*
%TD*%
%TO.C,C28*%
X92305600Y-43176400D03*
X94205600Y-43176400D03*
%TD*%
%TO.C,C27*%
X92305600Y-40126400D03*
X94205600Y-40126400D03*
%TD*%
D59*
%TO.C,C26*%
X76115600Y-85026400D03*
X79075600Y-85026400D03*
%TD*%
%TO.C,C25*%
X76115600Y-81676400D03*
X79075600Y-81676400D03*
%TD*%
%TO.C,C24*%
X76115600Y-78326400D03*
X79075600Y-78326400D03*
%TD*%
%TO.C,C23*%
X76115600Y-74976400D03*
X79075600Y-74976400D03*
%TD*%
%TO.C,C22*%
X76115600Y-71626400D03*
X79075600Y-71626400D03*
%TD*%
D60*
%TO.C,C21*%
X102310841Y-77826400D03*
D61*
X104810841Y-77826400D03*
%TD*%
D60*
%TO.C,C20*%
X94305375Y-66526400D03*
D61*
X96805375Y-66526400D03*
%TD*%
D59*
%TO.C,C19*%
X76115600Y-68276400D03*
X79075600Y-68276400D03*
%TD*%
%TO.C,C18*%
X76115600Y-64926400D03*
X79075600Y-64926400D03*
%TD*%
D25*
%TO.C,C17*%
X92305600Y-37076400D03*
X94205600Y-37076400D03*
%TD*%
D23*
%TO.C,C16*%
X199050000Y-119100000D03*
X199050000Y-121000000D03*
%TD*%
D25*
%TO.C,C15*%
X168050000Y-107000000D03*
X169950000Y-107000000D03*
%TD*%
%TO.C,C14*%
X69595600Y-35976400D03*
X71495600Y-35976400D03*
%TD*%
%TO.C,C10*%
X92305600Y-34026400D03*
X94205600Y-34026400D03*
%TD*%
%TO.C,C9*%
X194050000Y-103000000D03*
X195950000Y-103000000D03*
%TD*%
%TO.C,C8*%
X69595600Y-32926400D03*
X71495600Y-32926400D03*
%TD*%
%TO.C,C6*%
X69595600Y-29876400D03*
X71495600Y-29876400D03*
%TD*%
D62*
%TO.C,C5*%
X194650000Y-100700000D03*
X197350000Y-100700000D03*
%TD*%
D25*
%TO.C,C3*%
X69595600Y-26826400D03*
X71495600Y-26826400D03*
%TD*%
D62*
%TO.C,C1*%
X194650000Y-98450000D03*
X197350000Y-98450000D03*
%TD*%
%LPD*%
M02*
