%TF.GenerationSoftware,KiCad,Pcbnew,9.0.0*%
%TF.CreationDate,2026-02-26T19:26:21+01:00*%
%TF.ProjectId,LaserOps_PCB,4c617365-724f-4707-935f-5043422e6b69,rev?*%
%TF.SameCoordinates,Original*%
%TF.FileFunction,Copper,L3,Inr*%
%TF.FilePolarity,Positive*%
%FSLAX46Y46*%
G04 Gerber Fmt 4.6, Leading zero omitted, Abs format (unit mm)*
G04 Created by KiCad (PCBNEW 9.0.0) date 2026-02-26 19:26:21*
%MOMM*%
%LPD*%
G01*
G04 APERTURE LIST*
%TA.AperFunction,ComponentPad*%
%ADD10C,1.800000*%
%TD*%
%TA.AperFunction,ComponentPad*%
%ADD11R,1.700000X1.700000*%
%TD*%
%TA.AperFunction,ComponentPad*%
%ADD12O,1.700000X1.700000*%
%TD*%
%TA.AperFunction,HeatsinkPad*%
%ADD13C,0.600000*%
%TD*%
%TA.AperFunction,ComponentPad*%
%ADD14C,0.500000*%
%TD*%
%TA.AperFunction,ComponentPad*%
%ADD15C,0.700000*%
%TD*%
%TA.AperFunction,ComponentPad*%
%ADD16O,2.400000X0.900000*%
%TD*%
%TA.AperFunction,ComponentPad*%
%ADD17O,1.700000X0.900000*%
%TD*%
%TA.AperFunction,ComponentPad*%
%ADD18R,1.600000X1.600000*%
%TD*%
%TA.AperFunction,ComponentPad*%
%ADD19C,1.600000*%
%TD*%
%TA.AperFunction,ViaPad*%
%ADD20C,0.800000*%
%TD*%
G04 APERTURE END LIST*
D10*
%TO.N,Net-(BT2-+)*%
%TO.C,SW5*%
X197137500Y-89575000D03*
%TO.N,+BATT*%
X195137500Y-89575000D03*
%TO.N,Net-(R6-Pad1)*%
X193137500Y-89575000D03*
%TO.N,unconnected-(SW5-A-Pad4)*%
X197137500Y-94075000D03*
%TO.N,+3.3V*%
X195137500Y-94075000D03*
%TO.N,Net-(R6-Pad1)*%
X193137500Y-94075000D03*
%TD*%
D11*
%TO.N,+3.3V*%
%TO.C,SW3*%
X101895600Y-53616400D03*
D12*
%TO.N,Reload*%
X101895600Y-56156400D03*
%TD*%
D11*
%TO.N,+3.3V*%
%TO.C,SW2*%
X101895600Y-49566400D03*
D12*
%TO.N,Trigger*%
X101895600Y-52106400D03*
%TD*%
D11*
%TO.N,Net-(J3-Pin_1)*%
%TO.C,J3*%
X168850000Y-21150000D03*
D12*
%TO.N,Net-(J3-Pin_2)*%
X168850000Y-23690000D03*
%TO.N,+3.3V*%
X168850000Y-26230000D03*
%TO.N,IR_Signal*%
X168850000Y-28770000D03*
%TO.N,Hit_Lamp*%
X168850000Y-31310000D03*
%TO.N,GND*%
X168850000Y-33850000D03*
%TD*%
D11*
%TO.N,Net-(BT2-+)*%
%TO.C,BT2*%
X146950000Y-98960000D03*
D12*
%TO.N,GND*%
X146950000Y-101500000D03*
%TD*%
D13*
%TO.N,GND*%
%TO.C,U2*%
X186542000Y-116980000D03*
X186542000Y-115580000D03*
X185842000Y-117680000D03*
X185842000Y-116280000D03*
X185842000Y-114880000D03*
X185142000Y-116980000D03*
X185142000Y-115580000D03*
X184442000Y-117680000D03*
X184442000Y-116280000D03*
X184442000Y-114880000D03*
X183742000Y-116980000D03*
X183742000Y-115580000D03*
%TD*%
D14*
%TO.N,Net-(Q2-D)*%
%TO.C,U1*%
X190950000Y-97030000D03*
X189950000Y-97030000D03*
X188950000Y-97030000D03*
%TD*%
D11*
%TO.N,+BATT*%
%TO.C,J9*%
X156750000Y-43475000D03*
D12*
%TO.N,Net-(J9-Pin_2)*%
X156750000Y-46015000D03*
%TD*%
D11*
%TO.N,GND*%
%TO.C,J8*%
X150670000Y-123000000D03*
D12*
%TO.N,IO37*%
X153210000Y-123000000D03*
%TO.N,Net-(J8-Pin_3)*%
X155750000Y-123000000D03*
%TO.N,Net-(J8-Pin_4)*%
X158290000Y-123000000D03*
%TO.N,IO36*%
X160830000Y-123000000D03*
%TO.N,+3.3V*%
X163370000Y-123000000D03*
%TO.N,IO35*%
X165910000Y-123000000D03*
%TD*%
D11*
%TO.N,Net-(J7-Pin_1)*%
%TO.C,J7*%
X169000000Y-53475000D03*
D12*
%TO.N,Net-(J7-Pin_2)*%
X169000000Y-56015000D03*
%TD*%
D11*
%TO.N,Net-(J6-Pin_1)*%
%TO.C,J6*%
X147000000Y-120460000D03*
D12*
%TO.N,+BATT*%
X147000000Y-123000000D03*
%TD*%
D11*
%TO.N,Net-(J5-Pin_1)*%
%TO.C,J5*%
X147000000Y-114210000D03*
D12*
%TO.N,+BATT*%
X147000000Y-116750000D03*
%TD*%
D15*
%TO.N,GND*%
%TO.C,J4*%
X194522000Y-106746000D03*
%TO.N,+5V*%
X194522000Y-107596000D03*
%TO.N,Net-(J4-CC1)*%
X194522000Y-108446000D03*
%TO.N,/\u00B5C/USB_D+*%
X194522000Y-109296000D03*
%TO.N,/\u00B5C/USB_D-*%
X194522000Y-110146000D03*
%TO.N,N/C*%
X194522000Y-110996000D03*
%TO.N,+5V*%
X194522000Y-111846000D03*
%TO.N,GND*%
X194522000Y-112696000D03*
X195872000Y-112696000D03*
%TO.N,+5V*%
X195872000Y-111846000D03*
%TO.N,Net-(J4-CC2)*%
X195872000Y-110996000D03*
%TO.N,/\u00B5C/USB_D+*%
X195872000Y-110146000D03*
%TO.N,/\u00B5C/USB_D-*%
X195872000Y-109296000D03*
%TO.N,N/C*%
X195872000Y-108446000D03*
%TO.N,+5V*%
X195872000Y-107596000D03*
%TO.N,GND*%
X195872000Y-106746000D03*
D16*
X195502000Y-105396000D03*
D17*
X198882000Y-105396000D03*
D16*
X195502000Y-114046000D03*
D17*
X198882000Y-114046000D03*
%TD*%
D11*
%TO.N,Net-(J2-Pin_1)*%
%TO.C,J2*%
X163500000Y-55225000D03*
D12*
%TO.N,Net-(J2-Pin_2)*%
X163500000Y-57765000D03*
%TD*%
D11*
%TO.N,+3.3V*%
%TO.C,Camera_Interface1*%
X77095600Y-34826400D03*
D12*
%TO.N,SCL*%
X79635600Y-34826400D03*
%TO.N,CAM_VS*%
X77095600Y-37366400D03*
%TO.N,CAM_PC*%
X79635600Y-37366400D03*
%TO.N,CAM_D7*%
X77095600Y-39906400D03*
%TO.N,CAM_D5*%
X79635600Y-39906400D03*
%TO.N,CAM_D3*%
X77095600Y-42446400D03*
%TO.N,CAM_D1*%
X79635600Y-42446400D03*
%TO.N,CAM_PD*%
X77095600Y-44986400D03*
%TO.N,CAM_D0*%
X79635600Y-44986400D03*
%TO.N,CAM_D2*%
X77095600Y-47526400D03*
%TO.N,CAM_D4*%
X79635600Y-47526400D03*
%TO.N,CAM_D6*%
X77095600Y-50066400D03*
%TO.N,CAM_HS*%
X79635600Y-50066400D03*
%TO.N,SDA*%
X77095600Y-52606400D03*
%TO.N,GND*%
X79635600Y-52606400D03*
%TD*%
D18*
%TO.N,+BATT*%
%TO.C,C21*%
X102310841Y-77826400D03*
D19*
%TO.N,GND*%
X104810841Y-77826400D03*
%TD*%
D18*
%TO.N,+BATT*%
%TO.C,C20*%
X94305375Y-66526400D03*
D19*
%TO.N,GND*%
X96805375Y-66526400D03*
%TD*%
D20*
%TO.N,+3.3V*%
X178130000Y-98750000D03*
%TO.N,GND*%
X177460000Y-100120000D03*
X185700000Y-102900000D03*
%TO.N,+3.3V*%
X185200000Y-99810000D03*
%TO.N,GND*%
X196400000Y-96350000D03*
%TO.N,+BATT*%
X176500000Y-97000000D03*
%TO.N,+3.3V*%
X192250000Y-91750000D03*
%TO.N,GND*%
X173900000Y-91200000D03*
X171000000Y-92950000D03*
X168900000Y-92950000D03*
%TO.N,Net-(C12-Pad1)*%
X168200000Y-89100000D03*
%TO.N,GND*%
X175550000Y-89050000D03*
X173900000Y-89100000D03*
%TO.N,Net-(U3-SW)*%
X173000000Y-95050000D03*
%TO.N,GND*%
X197350000Y-106100000D03*
X197300000Y-113100000D03*
%TO.N,+3.3V*%
X193800000Y-122730000D03*
%TO.N,GND*%
X168050000Y-107000000D03*
X174892000Y-124000000D03*
X193800000Y-124000000D03*
X199000000Y-117800000D03*
%TO.N,/\u00B5C/Boot*%
X172900000Y-107000000D03*
%TO.N,/\u00B5C/EN*%
X197600000Y-124000000D03*
%TD*%
%TA.AperFunction,Conductor*%
%TO.N,+3.3V*%
G36*
X200942539Y-87020185D02*
G01*
X200988294Y-87072989D01*
X200999500Y-87124500D01*
X200999500Y-124875500D01*
X200979815Y-124942539D01*
X200927011Y-124988294D01*
X200875500Y-124999500D01*
X198133774Y-124999500D01*
X198066735Y-124979815D01*
X198020980Y-124927011D01*
X198011036Y-124857853D01*
X198040061Y-124794297D01*
X198064883Y-124772398D01*
X198109965Y-124742274D01*
X198174035Y-124699464D01*
X198299464Y-124574035D01*
X198398013Y-124426547D01*
X198465894Y-124262666D01*
X198500500Y-124088691D01*
X198500500Y-123911309D01*
X198500500Y-123911306D01*
X198500499Y-123911304D01*
X198465896Y-123737341D01*
X198465893Y-123737332D01*
X198453560Y-123707558D01*
X198431147Y-123653447D01*
X198398016Y-123573459D01*
X198398009Y-123573446D01*
X198299464Y-123425965D01*
X198299461Y-123425961D01*
X198174038Y-123300538D01*
X198174034Y-123300535D01*
X198026553Y-123201990D01*
X198026540Y-123201983D01*
X197862667Y-123134106D01*
X197862658Y-123134103D01*
X197688694Y-123099500D01*
X197688691Y-123099500D01*
X197511309Y-123099500D01*
X197511306Y-123099500D01*
X197337341Y-123134103D01*
X197337332Y-123134106D01*
X197173459Y-123201983D01*
X197173446Y-123201990D01*
X197025965Y-123300535D01*
X197025961Y-123300538D01*
X196900538Y-123425961D01*
X196900535Y-123425965D01*
X196801990Y-123573446D01*
X196801983Y-123573459D01*
X196734106Y-123737332D01*
X196734103Y-123737341D01*
X196699500Y-123911304D01*
X196699500Y-124088695D01*
X196734103Y-124262658D01*
X196734106Y-124262667D01*
X196801983Y-124426540D01*
X196801990Y-124426553D01*
X196900535Y-124574034D01*
X196900538Y-124574038D01*
X197025961Y-124699461D01*
X197025965Y-124699464D01*
X197135117Y-124772398D01*
X197179922Y-124826010D01*
X197188629Y-124895335D01*
X197158474Y-124958363D01*
X197099031Y-124995082D01*
X197066226Y-124999500D01*
X194333774Y-124999500D01*
X194266735Y-124979815D01*
X194220980Y-124927011D01*
X194211036Y-124857853D01*
X194240061Y-124794297D01*
X194264883Y-124772398D01*
X194309965Y-124742274D01*
X194374035Y-124699464D01*
X194499464Y-124574035D01*
X194598013Y-124426547D01*
X194665894Y-124262666D01*
X194700500Y-124088691D01*
X194700500Y-123911309D01*
X194700500Y-123911306D01*
X194700499Y-123911304D01*
X194665896Y-123737341D01*
X194665893Y-123737332D01*
X194653560Y-123707558D01*
X194631147Y-123653447D01*
X194598016Y-123573459D01*
X194598009Y-123573446D01*
X194499464Y-123425965D01*
X194499461Y-123425961D01*
X194374038Y-123300538D01*
X194374034Y-123300535D01*
X194226553Y-123201990D01*
X194226540Y-123201983D01*
X194062667Y-123134106D01*
X194062658Y-123134103D01*
X193888694Y-123099500D01*
X193888691Y-123099500D01*
X193711309Y-123099500D01*
X193711306Y-123099500D01*
X193537341Y-123134103D01*
X193537332Y-123134106D01*
X193373459Y-123201983D01*
X193373446Y-123201990D01*
X193225965Y-123300535D01*
X193225961Y-123300538D01*
X193100538Y-123425961D01*
X193100535Y-123425965D01*
X193001990Y-123573446D01*
X193001983Y-123573459D01*
X192934106Y-123737332D01*
X192934103Y-123737341D01*
X192899500Y-123911304D01*
X192899500Y-124088695D01*
X192934103Y-124262658D01*
X192934106Y-124262667D01*
X193001983Y-124426540D01*
X193001990Y-124426553D01*
X193100535Y-124574034D01*
X193100538Y-124574038D01*
X193225961Y-124699461D01*
X193225965Y-124699464D01*
X193335117Y-124772398D01*
X193379922Y-124826010D01*
X193388629Y-124895335D01*
X193358474Y-124958363D01*
X193299031Y-124995082D01*
X193266226Y-124999500D01*
X175425774Y-124999500D01*
X175358735Y-124979815D01*
X175312980Y-124927011D01*
X175303036Y-124857853D01*
X175332061Y-124794297D01*
X175356883Y-124772398D01*
X175401965Y-124742274D01*
X175466035Y-124699464D01*
X175591464Y-124574035D01*
X175690013Y-124426547D01*
X175757894Y-124262666D01*
X175792500Y-124088691D01*
X175792500Y-123911309D01*
X175792500Y-123911306D01*
X175792499Y-123911304D01*
X175757896Y-123737341D01*
X175757893Y-123737332D01*
X175745560Y-123707558D01*
X175723147Y-123653447D01*
X175690016Y-123573459D01*
X175690009Y-123573446D01*
X175591464Y-123425965D01*
X175591461Y-123425961D01*
X175466038Y-123300538D01*
X175466034Y-123300535D01*
X175318553Y-123201990D01*
X175318540Y-123201983D01*
X175154667Y-123134106D01*
X175154658Y-123134103D01*
X174980694Y-123099500D01*
X174980691Y-123099500D01*
X174803309Y-123099500D01*
X174803306Y-123099500D01*
X174629341Y-123134103D01*
X174629332Y-123134106D01*
X174465459Y-123201983D01*
X174465446Y-123201990D01*
X174317965Y-123300535D01*
X174317961Y-123300538D01*
X174192538Y-123425961D01*
X174192535Y-123425965D01*
X174093990Y-123573446D01*
X174093983Y-123573459D01*
X174026106Y-123737332D01*
X174026103Y-123737341D01*
X173991500Y-123911304D01*
X173991500Y-124088695D01*
X174026103Y-124262658D01*
X174026106Y-124262667D01*
X174093983Y-124426540D01*
X174093990Y-124426553D01*
X174192535Y-124574034D01*
X174192538Y-124574038D01*
X174317961Y-124699461D01*
X174317965Y-124699464D01*
X174427117Y-124772398D01*
X174471922Y-124826010D01*
X174480629Y-124895335D01*
X174450474Y-124958363D01*
X174391031Y-124995082D01*
X174358226Y-124999500D01*
X145124500Y-124999500D01*
X145057461Y-124979815D01*
X145011706Y-124927011D01*
X145000500Y-124875500D01*
X145000500Y-119562135D01*
X145649500Y-119562135D01*
X145649500Y-121357870D01*
X145649501Y-121357876D01*
X145655908Y-121417483D01*
X145706202Y-121552328D01*
X145706206Y-121552335D01*
X145792452Y-121667544D01*
X145792455Y-121667547D01*
X145907664Y-121753793D01*
X145907671Y-121753797D01*
X146039082Y-121802810D01*
X146095016Y-121844681D01*
X146119433Y-121910145D01*
X146104582Y-121978418D01*
X146083431Y-122006673D01*
X145969889Y-122120215D01*
X145844951Y-122292179D01*
X145748444Y-122481585D01*
X145682753Y-122683760D01*
X145649500Y-122893713D01*
X145649500Y-123106286D01*
X145682753Y-123316239D01*
X145748444Y-123518414D01*
X145844951Y-123707820D01*
X145969890Y-123879786D01*
X146120213Y-124030109D01*
X146292179Y-124155048D01*
X146292181Y-124155049D01*
X146292184Y-124155051D01*
X146481588Y-124251557D01*
X146683757Y-124317246D01*
X146893713Y-124350500D01*
X146893714Y-124350500D01*
X147106286Y-124350500D01*
X147106287Y-124350500D01*
X147316243Y-124317246D01*
X147518412Y-124251557D01*
X147707816Y-124155051D01*
X147794138Y-124092335D01*
X147879786Y-124030109D01*
X147879788Y-124030106D01*
X147879792Y-124030104D01*
X148030104Y-123879792D01*
X148030106Y-123879788D01*
X148030109Y-123879786D01*
X148155048Y-123707820D01*
X148155047Y-123707820D01*
X148155051Y-123707816D01*
X148251557Y-123518412D01*
X148317246Y-123316243D01*
X148350500Y-123106287D01*
X148350500Y-122893713D01*
X148317246Y-122683757D01*
X148251557Y-122481588D01*
X148155051Y-122292184D01*
X148144369Y-122277482D01*
X148071518Y-122177209D01*
X148071514Y-122177205D01*
X148030104Y-122120208D01*
X148012031Y-122102135D01*
X149319500Y-122102135D01*
X149319500Y-123897870D01*
X149319501Y-123897876D01*
X149325908Y-123957483D01*
X149376202Y-124092328D01*
X149376206Y-124092335D01*
X149462452Y-124207544D01*
X149462455Y-124207547D01*
X149577664Y-124293793D01*
X149577671Y-124293797D01*
X149712517Y-124344091D01*
X149712516Y-124344091D01*
X149719444Y-124344835D01*
X149772127Y-124350500D01*
X151567872Y-124350499D01*
X151627483Y-124344091D01*
X151762331Y-124293796D01*
X151877546Y-124207546D01*
X151963796Y-124092331D01*
X152012810Y-123960916D01*
X152054681Y-123904984D01*
X152120145Y-123880566D01*
X152188418Y-123895417D01*
X152216673Y-123916569D01*
X152330213Y-124030109D01*
X152502179Y-124155048D01*
X152502181Y-124155049D01*
X152502184Y-124155051D01*
X152691588Y-124251557D01*
X152893757Y-124317246D01*
X153103713Y-124350500D01*
X153103714Y-124350500D01*
X153316286Y-124350500D01*
X153316287Y-124350500D01*
X153526243Y-124317246D01*
X153728412Y-124251557D01*
X153917816Y-124155051D01*
X154004138Y-124092335D01*
X154089786Y-124030109D01*
X154089788Y-124030106D01*
X154089792Y-124030104D01*
X154240104Y-123879792D01*
X154240106Y-123879788D01*
X154240109Y-123879786D01*
X154365048Y-123707820D01*
X154365047Y-123707820D01*
X154365051Y-123707816D01*
X154369514Y-123699054D01*
X154417488Y-123648259D01*
X154485308Y-123631463D01*
X154551444Y-123653999D01*
X154590486Y-123699056D01*
X154594951Y-123707820D01*
X154719890Y-123879786D01*
X154870213Y-124030109D01*
X155042179Y-124155048D01*
X155042181Y-124155049D01*
X155042184Y-124155051D01*
X155231588Y-124251557D01*
X155433757Y-124317246D01*
X155643713Y-124350500D01*
X155643714Y-124350500D01*
X155856286Y-124350500D01*
X155856287Y-124350500D01*
X156066243Y-124317246D01*
X156268412Y-124251557D01*
X156457816Y-124155051D01*
X156544138Y-124092335D01*
X156629786Y-124030109D01*
X156629788Y-124030106D01*
X156629792Y-124030104D01*
X156780104Y-123879792D01*
X156780106Y-123879788D01*
X156780109Y-123879786D01*
X156905048Y-123707820D01*
X156905047Y-123707820D01*
X156905051Y-123707816D01*
X156909514Y-123699054D01*
X156957488Y-123648259D01*
X157025308Y-123631463D01*
X157091444Y-123653999D01*
X157130486Y-123699056D01*
X157134951Y-123707820D01*
X157259890Y-123879786D01*
X157410213Y-124030109D01*
X157582179Y-124155048D01*
X157582181Y-124155049D01*
X157582184Y-124155051D01*
X157771588Y-124251557D01*
X157973757Y-124317246D01*
X158183713Y-124350500D01*
X158183714Y-124350500D01*
X158396286Y-124350500D01*
X158396287Y-124350500D01*
X158606243Y-124317246D01*
X158808412Y-124251557D01*
X158997816Y-124155051D01*
X159084138Y-124092335D01*
X159169786Y-124030109D01*
X159169788Y-124030106D01*
X159169792Y-124030104D01*
X159320104Y-123879792D01*
X159320106Y-123879788D01*
X159320109Y-123879786D01*
X159445048Y-123707820D01*
X159445047Y-123707820D01*
X159445051Y-123707816D01*
X159449514Y-123699054D01*
X159497488Y-123648259D01*
X159565308Y-123631463D01*
X159631444Y-123653999D01*
X159670486Y-123699056D01*
X159674951Y-123707820D01*
X159799890Y-123879786D01*
X159950213Y-124030109D01*
X160122179Y-124155048D01*
X160122181Y-124155049D01*
X160122184Y-124155051D01*
X160311588Y-124251557D01*
X160513757Y-124317246D01*
X160723713Y-124350500D01*
X160723714Y-124350500D01*
X160936286Y-124350500D01*
X160936287Y-124350500D01*
X161146243Y-124317246D01*
X161348412Y-124251557D01*
X161537816Y-124155051D01*
X161624138Y-124092335D01*
X161709786Y-124030109D01*
X161709788Y-124030106D01*
X161709792Y-124030104D01*
X161860104Y-123879792D01*
X161860106Y-123879788D01*
X161860109Y-123879786D01*
X161963605Y-123737334D01*
X161985051Y-123707816D01*
X161989793Y-123698508D01*
X162037763Y-123647711D01*
X162105583Y-123630911D01*
X162171719Y-123653445D01*
X162210763Y-123698500D01*
X162215377Y-123707555D01*
X162340272Y-123879459D01*
X162340276Y-123879464D01*
X162490535Y-124029723D01*
X162490540Y-124029727D01*
X162662442Y-124154620D01*
X162851782Y-124251095D01*
X163053871Y-124316757D01*
X163120000Y-124327231D01*
X163120000Y-123433012D01*
X163177007Y-123465925D01*
X163304174Y-123500000D01*
X163435826Y-123500000D01*
X163562993Y-123465925D01*
X163620000Y-123433012D01*
X163620000Y-124327230D01*
X163686126Y-124316757D01*
X163686129Y-124316757D01*
X163888217Y-124251095D01*
X164077557Y-124154620D01*
X164249459Y-124029727D01*
X164249464Y-124029723D01*
X164399723Y-123879464D01*
X164399727Y-123879459D01*
X164524620Y-123707558D01*
X164529232Y-123698507D01*
X164577205Y-123647709D01*
X164645025Y-123630912D01*
X164711161Y-123653447D01*
X164750204Y-123698504D01*
X164754949Y-123707817D01*
X164879890Y-123879786D01*
X165030213Y-124030109D01*
X165202179Y-124155048D01*
X165202181Y-124155049D01*
X165202184Y-124155051D01*
X165391588Y-124251557D01*
X165593757Y-124317246D01*
X165803713Y-124350500D01*
X165803714Y-124350500D01*
X166016286Y-124350500D01*
X166016287Y-124350500D01*
X166226243Y-124317246D01*
X166428412Y-124251557D01*
X166617816Y-124155051D01*
X166704138Y-124092335D01*
X166789786Y-124030109D01*
X166789788Y-124030106D01*
X166789792Y-124030104D01*
X166940104Y-123879792D01*
X166940106Y-123879788D01*
X166940109Y-123879786D01*
X167065048Y-123707820D01*
X167065047Y-123707820D01*
X167065051Y-123707816D01*
X167161557Y-123518412D01*
X167227246Y-123316243D01*
X167260500Y-123106287D01*
X167260500Y-122893713D01*
X167227246Y-122683757D01*
X167161557Y-122481588D01*
X167065051Y-122292184D01*
X167065049Y-122292181D01*
X167065048Y-122292179D01*
X166940109Y-122120213D01*
X166789786Y-121969890D01*
X166617820Y-121844951D01*
X166428414Y-121748444D01*
X166428413Y-121748443D01*
X166428412Y-121748443D01*
X166226243Y-121682754D01*
X166226241Y-121682753D01*
X166226240Y-121682753D01*
X166064957Y-121657208D01*
X166016287Y-121649500D01*
X165803713Y-121649500D01*
X165755042Y-121657208D01*
X165593760Y-121682753D01*
X165391585Y-121748444D01*
X165202179Y-121844951D01*
X165030213Y-121969890D01*
X164879890Y-122120213D01*
X164754949Y-122292182D01*
X164750202Y-122301499D01*
X164702227Y-122352293D01*
X164634405Y-122369087D01*
X164568271Y-122346548D01*
X164529234Y-122301495D01*
X164524622Y-122292444D01*
X164399727Y-122120540D01*
X164399723Y-122120535D01*
X164249464Y-121970276D01*
X164249459Y-121970272D01*
X164077557Y-121845379D01*
X163888215Y-121748903D01*
X163686124Y-121683241D01*
X163620000Y-121672768D01*
X163620000Y-122566988D01*
X163562993Y-122534075D01*
X163435826Y-122500000D01*
X163304174Y-122500000D01*
X163177007Y-122534075D01*
X163120000Y-122566988D01*
X163120000Y-121672768D01*
X163119999Y-121672768D01*
X163053875Y-121683241D01*
X162851784Y-121748903D01*
X162662442Y-121845379D01*
X162490540Y-121970272D01*
X162490535Y-121970276D01*
X162340276Y-122120535D01*
X162340272Y-122120540D01*
X162215378Y-122292443D01*
X162210762Y-122301502D01*
X162162784Y-122352295D01*
X162094963Y-122369087D01*
X162028829Y-122346546D01*
X161989794Y-122301493D01*
X161985051Y-122292184D01*
X161985049Y-122292181D01*
X161985048Y-122292179D01*
X161860109Y-122120213D01*
X161709786Y-121969890D01*
X161537820Y-121844951D01*
X161348414Y-121748444D01*
X161348413Y-121748443D01*
X161348412Y-121748443D01*
X161146243Y-121682754D01*
X161146241Y-121682753D01*
X161146240Y-121682753D01*
X160984957Y-121657208D01*
X160936287Y-121649500D01*
X160723713Y-121649500D01*
X160675042Y-121657208D01*
X160513760Y-121682753D01*
X160311585Y-121748444D01*
X160122179Y-121844951D01*
X159950213Y-121969890D01*
X159799890Y-122120213D01*
X159674949Y-122292182D01*
X159670484Y-122300946D01*
X159622509Y-122351742D01*
X159554688Y-122368536D01*
X159488553Y-122345998D01*
X159449516Y-122300946D01*
X159445050Y-122292182D01*
X159320109Y-122120213D01*
X159169786Y-121969890D01*
X158997820Y-121844951D01*
X158808414Y-121748444D01*
X158808413Y-121748443D01*
X158808412Y-121748443D01*
X158606243Y-121682754D01*
X158606241Y-121682753D01*
X158606240Y-121682753D01*
X158444957Y-121657208D01*
X158396287Y-121649500D01*
X158183713Y-121649500D01*
X158135042Y-121657208D01*
X157973760Y-121682753D01*
X157771585Y-121748444D01*
X157582179Y-121844951D01*
X157410213Y-121969890D01*
X157259890Y-122120213D01*
X157134949Y-122292182D01*
X157130484Y-122300946D01*
X157082509Y-122351742D01*
X157014688Y-122368536D01*
X156948553Y-122345998D01*
X156909516Y-122300946D01*
X156905050Y-122292182D01*
X156780109Y-122120213D01*
X156629786Y-121969890D01*
X156457820Y-121844951D01*
X156268414Y-121748444D01*
X156268413Y-121748443D01*
X156268412Y-121748443D01*
X156066243Y-121682754D01*
X156066241Y-121682753D01*
X156066240Y-121682753D01*
X155904957Y-121657208D01*
X155856287Y-121649500D01*
X155643713Y-121649500D01*
X155595042Y-121657208D01*
X155433760Y-121682753D01*
X155231585Y-121748444D01*
X155042179Y-121844951D01*
X154870213Y-121969890D01*
X154719890Y-122120213D01*
X154594949Y-122292182D01*
X154590484Y-122300946D01*
X154542509Y-122351742D01*
X154474688Y-122368536D01*
X154408553Y-122345998D01*
X154369516Y-122300946D01*
X154365050Y-122292182D01*
X154240109Y-122120213D01*
X154089786Y-121969890D01*
X153917820Y-121844951D01*
X153728414Y-121748444D01*
X153728413Y-121748443D01*
X153728412Y-121748443D01*
X153526243Y-121682754D01*
X153526241Y-121682753D01*
X153526240Y-121682753D01*
X153364957Y-121657208D01*
X153316287Y-121649500D01*
X153103713Y-121649500D01*
X153055042Y-121657208D01*
X152893760Y-121682753D01*
X152691585Y-121748444D01*
X152502179Y-121844951D01*
X152330215Y-121969889D01*
X152216673Y-122083431D01*
X152155350Y-122116915D01*
X152085658Y-122111931D01*
X152029725Y-122070059D01*
X152012810Y-122039082D01*
X151963797Y-121907671D01*
X151963793Y-121907664D01*
X151877547Y-121792455D01*
X151877544Y-121792452D01*
X151762335Y-121706206D01*
X151762328Y-121706202D01*
X151627482Y-121655908D01*
X151627483Y-121655908D01*
X151567883Y-121649501D01*
X151567881Y-121649500D01*
X151567873Y-121649500D01*
X151567864Y-121649500D01*
X149772129Y-121649500D01*
X149772123Y-121649501D01*
X149712516Y-121655908D01*
X149577671Y-121706202D01*
X149577664Y-121706206D01*
X149462455Y-121792452D01*
X149462452Y-121792455D01*
X149376206Y-121907664D01*
X149376202Y-121907671D01*
X149325908Y-122042517D01*
X149319501Y-122102116D01*
X149319500Y-122102135D01*
X148012031Y-122102135D01*
X147914489Y-122004593D01*
X147912525Y-122002434D01*
X147898474Y-121973535D01*
X147883084Y-121945350D01*
X147883300Y-121942325D01*
X147881974Y-121939598D01*
X147885776Y-121907703D01*
X147888068Y-121875658D01*
X147889886Y-121873229D01*
X147890245Y-121870219D01*
X147910688Y-121845441D01*
X147929940Y-121819725D01*
X147933519Y-121817770D01*
X147934711Y-121816326D01*
X147938223Y-121815201D01*
X147960915Y-121802810D01*
X148092331Y-121753796D01*
X148207546Y-121667546D01*
X148293796Y-121552331D01*
X148344091Y-121417483D01*
X148350500Y-121357873D01*
X148350499Y-119562128D01*
X148344091Y-119502517D01*
X148293796Y-119367669D01*
X148293795Y-119367668D01*
X148293793Y-119367664D01*
X148207547Y-119252455D01*
X148207544Y-119252452D01*
X148092335Y-119166206D01*
X148092328Y-119166202D01*
X147957482Y-119115908D01*
X147957483Y-119115908D01*
X147897883Y-119109501D01*
X147897881Y-119109500D01*
X147897873Y-119109500D01*
X147897864Y-119109500D01*
X146102129Y-119109500D01*
X146102123Y-119109501D01*
X146042516Y-119115908D01*
X145907671Y-119166202D01*
X145907664Y-119166206D01*
X145792455Y-119252452D01*
X145792452Y-119252455D01*
X145706206Y-119367664D01*
X145706202Y-119367671D01*
X145655908Y-119502517D01*
X145649501Y-119562116D01*
X145649501Y-119562123D01*
X145649500Y-119562135D01*
X145000500Y-119562135D01*
X145000500Y-113312135D01*
X145649500Y-113312135D01*
X145649500Y-115107870D01*
X145649501Y-115107876D01*
X145655908Y-115167483D01*
X145706202Y-115302328D01*
X145706206Y-115302335D01*
X145792452Y-115417544D01*
X145792455Y-115417547D01*
X145907664Y-115503793D01*
X145907671Y-115503797D01*
X146039082Y-115552810D01*
X146095016Y-115594681D01*
X146119433Y-115660145D01*
X146104582Y-115728418D01*
X146083431Y-115756673D01*
X145969889Y-115870215D01*
X145844951Y-116042179D01*
X145748444Y-116231585D01*
X145682753Y-116433760D01*
X145649500Y-116643713D01*
X145649500Y-116856286D01*
X145681581Y-117058842D01*
X145682754Y-117066243D01*
X145730601Y-117213501D01*
X145748444Y-117268414D01*
X145844951Y-117457820D01*
X145969890Y-117629786D01*
X146120213Y-117780109D01*
X146292179Y-117905048D01*
X146292181Y-117905049D01*
X146292184Y-117905051D01*
X146481588Y-118001557D01*
X146683757Y-118067246D01*
X146893713Y-118100500D01*
X146893714Y-118100500D01*
X147106286Y-118100500D01*
X147106287Y-118100500D01*
X147316243Y-118067246D01*
X147518412Y-118001557D01*
X147707816Y-117905051D01*
X147778301Y-117853841D01*
X147879786Y-117780109D01*
X147879788Y-117780106D01*
X147879792Y-117780104D01*
X148030104Y-117629792D01*
X148030106Y-117629788D01*
X148030109Y-117629786D01*
X148155048Y-117457820D01*
X148155047Y-117457820D01*
X148155051Y-117457816D01*
X148251557Y-117268412D01*
X148317246Y-117066243D01*
X148350500Y-116856287D01*
X148350500Y-116643713D01*
X148317246Y-116433757D01*
X148251557Y-116231588D01*
X148155051Y-116042184D01*
X148155049Y-116042181D01*
X148155048Y-116042179D01*
X148030109Y-115870213D01*
X147916569Y-115756673D01*
X147883084Y-115695350D01*
X147888068Y-115625658D01*
X147929940Y-115569725D01*
X147960915Y-115552810D01*
X148092331Y-115503796D01*
X148095862Y-115501153D01*
X182941500Y-115501153D01*
X182941500Y-115658846D01*
X182972261Y-115813489D01*
X182972264Y-115813501D01*
X183032602Y-115959172D01*
X183032609Y-115959185D01*
X183120210Y-116090288D01*
X183120213Y-116090292D01*
X183222240Y-116192319D01*
X183255725Y-116253642D01*
X183250741Y-116323334D01*
X183222240Y-116367681D01*
X183120213Y-116469707D01*
X183120210Y-116469711D01*
X183032609Y-116600814D01*
X183032602Y-116600827D01*
X182972264Y-116746498D01*
X182972261Y-116746510D01*
X182941500Y-116901153D01*
X182941500Y-117058846D01*
X182972261Y-117213489D01*
X182972264Y-117213501D01*
X183032602Y-117359172D01*
X183032609Y-117359185D01*
X183120210Y-117490288D01*
X183120213Y-117490292D01*
X183231707Y-117601786D01*
X183231711Y-117601789D01*
X183362814Y-117689390D01*
X183362827Y-117689397D01*
X183472082Y-117734651D01*
X183508503Y-117749737D01*
X183563831Y-117760742D01*
X183625740Y-117793126D01*
X183660315Y-117853841D01*
X183661256Y-117858166D01*
X183672261Y-117913492D01*
X183672264Y-117913501D01*
X183732602Y-118059172D01*
X183732609Y-118059185D01*
X183820210Y-118190288D01*
X183820213Y-118190292D01*
X183931707Y-118301786D01*
X183931711Y-118301789D01*
X184062814Y-118389390D01*
X184062827Y-118389397D01*
X184208498Y-118449735D01*
X184208503Y-118449737D01*
X184363153Y-118480499D01*
X184363156Y-118480500D01*
X184363158Y-118480500D01*
X184520844Y-118480500D01*
X184520845Y-118480499D01*
X184675497Y-118449737D01*
X184821179Y-118389394D01*
X184952289Y-118301789D01*
X184952292Y-118301786D01*
X185054319Y-118199760D01*
X185115642Y-118166275D01*
X185185334Y-118171259D01*
X185229681Y-118199760D01*
X185331707Y-118301786D01*
X185331711Y-118301789D01*
X185462814Y-118389390D01*
X185462827Y-118389397D01*
X185608498Y-118449735D01*
X185608503Y-118449737D01*
X185763153Y-118480499D01*
X185763156Y-118480500D01*
X185763158Y-118480500D01*
X185920844Y-118480500D01*
X185920845Y-118480499D01*
X186075497Y-118449737D01*
X186221179Y-118389394D01*
X186352289Y-118301789D01*
X186463789Y-118190289D01*
X186551394Y-118059179D01*
X186611737Y-117913497D01*
X186622743Y-117858166D01*
X186655125Y-117796258D01*
X186715841Y-117761683D01*
X186720118Y-117760752D01*
X186775497Y-117749737D01*
X186868283Y-117711304D01*
X198099500Y-117711304D01*
X198099500Y-117888695D01*
X198134103Y-118062658D01*
X198134106Y-118062667D01*
X198201983Y-118226540D01*
X198201990Y-118226553D01*
X198300535Y-118374034D01*
X198300538Y-118374038D01*
X198425961Y-118499461D01*
X198425965Y-118499464D01*
X198573446Y-118598009D01*
X198573459Y-118598016D01*
X198696363Y-118648923D01*
X198737334Y-118665894D01*
X198737336Y-118665894D01*
X198737341Y-118665896D01*
X198911304Y-118700499D01*
X198911307Y-118700500D01*
X198911309Y-118700500D01*
X199088693Y-118700500D01*
X199088694Y-118700499D01*
X199146682Y-118688964D01*
X199262658Y-118665896D01*
X199262661Y-118665894D01*
X199262666Y-118665894D01*
X199426547Y-118598013D01*
X199574035Y-118499464D01*
X199699464Y-118374035D01*
X199798013Y-118226547D01*
X199865894Y-118062666D01*
X199866587Y-118059185D01*
X199900499Y-117888695D01*
X199900500Y-117888693D01*
X199900500Y-117711306D01*
X199900499Y-117711304D01*
X199865896Y-117537341D01*
X199865893Y-117537332D01*
X199798016Y-117373459D01*
X199798009Y-117373446D01*
X199699464Y-117225965D01*
X199699461Y-117225961D01*
X199574038Y-117100538D01*
X199574034Y-117100535D01*
X199426553Y-117001990D01*
X199426540Y-117001983D01*
X199262667Y-116934106D01*
X199262658Y-116934103D01*
X199088694Y-116899500D01*
X199088691Y-116899500D01*
X198911309Y-116899500D01*
X198911306Y-116899500D01*
X198737341Y-116934103D01*
X198737332Y-116934106D01*
X198573459Y-117001983D01*
X198573446Y-117001990D01*
X198425965Y-117100535D01*
X198425961Y-117100538D01*
X198300538Y-117225961D01*
X198300535Y-117225965D01*
X198201990Y-117373446D01*
X198201983Y-117373459D01*
X198134106Y-117537332D01*
X198134103Y-117537341D01*
X198099500Y-117711304D01*
X186868283Y-117711304D01*
X186921179Y-117689394D01*
X187010389Y-117629786D01*
X187051802Y-117602115D01*
X187052112Y-117601907D01*
X187052289Y-117601789D01*
X187163789Y-117490289D01*
X187251394Y-117359179D01*
X187311737Y-117213497D01*
X187342500Y-117058842D01*
X187342500Y-116901158D01*
X187342500Y-116901155D01*
X187342499Y-116901153D01*
X187342170Y-116899500D01*
X187311737Y-116746503D01*
X187311735Y-116746498D01*
X187251397Y-116600827D01*
X187251390Y-116600814D01*
X187163789Y-116469711D01*
X187163786Y-116469707D01*
X187061760Y-116367681D01*
X187028275Y-116306358D01*
X187033259Y-116236666D01*
X187061760Y-116192319D01*
X187163786Y-116090292D01*
X187163789Y-116090289D01*
X187251394Y-115959179D01*
X187311737Y-115813497D01*
X187342500Y-115658842D01*
X187342500Y-115501158D01*
X187342500Y-115501155D01*
X187342499Y-115501153D01*
X187311737Y-115346503D01*
X187293442Y-115302335D01*
X187251397Y-115200827D01*
X187251390Y-115200814D01*
X187163789Y-115069711D01*
X187163786Y-115069707D01*
X187052292Y-114958213D01*
X187052288Y-114958210D01*
X186921185Y-114870609D01*
X186921172Y-114870602D01*
X186775501Y-114810264D01*
X186775492Y-114810261D01*
X186720166Y-114799256D01*
X186658256Y-114766870D01*
X186623682Y-114706154D01*
X186622750Y-114701874D01*
X186611737Y-114646503D01*
X186596651Y-114610082D01*
X186551397Y-114500827D01*
X186551390Y-114500814D01*
X186463789Y-114369711D01*
X186463786Y-114369707D01*
X186352292Y-114258213D01*
X186352288Y-114258210D01*
X186221185Y-114170609D01*
X186221172Y-114170602D01*
X186075501Y-114110264D01*
X186075489Y-114110261D01*
X185920845Y-114079500D01*
X185920842Y-114079500D01*
X185763158Y-114079500D01*
X185763155Y-114079500D01*
X185608510Y-114110261D01*
X185608498Y-114110264D01*
X185462827Y-114170602D01*
X185462814Y-114170609D01*
X185331711Y-114258210D01*
X185331707Y-114258213D01*
X185229681Y-114360240D01*
X185168358Y-114393725D01*
X185098666Y-114388741D01*
X185054319Y-114360240D01*
X184952292Y-114258213D01*
X184952288Y-114258210D01*
X184821185Y-114170609D01*
X184821172Y-114170602D01*
X184675501Y-114110264D01*
X184675489Y-114110261D01*
X184520845Y-114079500D01*
X184520842Y-114079500D01*
X184363158Y-114079500D01*
X184363155Y-114079500D01*
X184208510Y-114110261D01*
X184208498Y-114110264D01*
X184062827Y-114170602D01*
X184062814Y-114170609D01*
X183931711Y-114258210D01*
X183931707Y-114258213D01*
X183820213Y-114369707D01*
X183820210Y-114369711D01*
X183732609Y-114500814D01*
X183732602Y-114500827D01*
X183672264Y-114646498D01*
X183672262Y-114646505D01*
X183661256Y-114701833D01*
X183628870Y-114763743D01*
X183568153Y-114798316D01*
X183563833Y-114799256D01*
X183508505Y-114810262D01*
X183508498Y-114810264D01*
X183362827Y-114870602D01*
X183362814Y-114870609D01*
X183231711Y-114958210D01*
X183231707Y-114958213D01*
X183120213Y-115069707D01*
X183120210Y-115069711D01*
X183032609Y-115200814D01*
X183032602Y-115200827D01*
X182972264Y-115346498D01*
X182972261Y-115346510D01*
X182941500Y-115501153D01*
X148095862Y-115501153D01*
X148207546Y-115417546D01*
X148293796Y-115302331D01*
X148344091Y-115167483D01*
X148350500Y-115107873D01*
X148350499Y-113312128D01*
X148344091Y-113252517D01*
X148325876Y-113203681D01*
X148293797Y-113117671D01*
X148293793Y-113117664D01*
X148207547Y-113002455D01*
X148207544Y-113002452D01*
X148092335Y-112916206D01*
X148092328Y-112916202D01*
X147957482Y-112865908D01*
X147957483Y-112865908D01*
X147897883Y-112859501D01*
X147897881Y-112859500D01*
X147897873Y-112859500D01*
X147897864Y-112859500D01*
X146102129Y-112859500D01*
X146102123Y-112859501D01*
X146042516Y-112865908D01*
X145907671Y-112916202D01*
X145907664Y-112916206D01*
X145792455Y-113002452D01*
X145792452Y-113002455D01*
X145706206Y-113117664D01*
X145706202Y-113117671D01*
X145655908Y-113252517D01*
X145649501Y-113312116D01*
X145649500Y-113312135D01*
X145000500Y-113312135D01*
X145000500Y-106911304D01*
X167149500Y-106911304D01*
X167149500Y-107088695D01*
X167184103Y-107262658D01*
X167184106Y-107262667D01*
X167251983Y-107426540D01*
X167251990Y-107426553D01*
X167350535Y-107574034D01*
X167350538Y-107574038D01*
X167475961Y-107699461D01*
X167475965Y-107699464D01*
X167623446Y-107798009D01*
X167623459Y-107798016D01*
X167734684Y-107844086D01*
X167787334Y-107865894D01*
X167787336Y-107865894D01*
X167787341Y-107865896D01*
X167961304Y-107900499D01*
X167961307Y-107900500D01*
X167961309Y-107900500D01*
X168138693Y-107900500D01*
X168138694Y-107900499D01*
X168196682Y-107888964D01*
X168312658Y-107865896D01*
X168312661Y-107865894D01*
X168312666Y-107865894D01*
X168476547Y-107798013D01*
X168624035Y-107699464D01*
X168749464Y-107574035D01*
X168848013Y-107426547D01*
X168915894Y-107262666D01*
X168950500Y-107088691D01*
X168950500Y-106911309D01*
X168950500Y-106911306D01*
X168950499Y-106911304D01*
X171999500Y-106911304D01*
X171999500Y-107088695D01*
X172034103Y-107262658D01*
X172034106Y-107262667D01*
X172101983Y-107426540D01*
X172101990Y-107426553D01*
X172200535Y-107574034D01*
X172200538Y-107574038D01*
X172325961Y-107699461D01*
X172325965Y-107699464D01*
X172473446Y-107798009D01*
X172473459Y-107798016D01*
X172584684Y-107844086D01*
X172637334Y-107865894D01*
X172637336Y-107865894D01*
X172637341Y-107865896D01*
X172811304Y-107900499D01*
X172811307Y-107900500D01*
X172811309Y-107900500D01*
X172988693Y-107900500D01*
X172988694Y-107900499D01*
X173046682Y-107888964D01*
X173162658Y-107865896D01*
X173162661Y-107865894D01*
X173162666Y-107865894D01*
X173326547Y-107798013D01*
X173474035Y-107699464D01*
X173599464Y-107574035D01*
X173698013Y-107426547D01*
X173765894Y-107262666D01*
X173800500Y-107088691D01*
X173800500Y-106911309D01*
X173800500Y-106911306D01*
X173800499Y-106911304D01*
X173765896Y-106737341D01*
X173765893Y-106737332D01*
X173751918Y-106703593D01*
X173734785Y-106662228D01*
X193671500Y-106662228D01*
X193671500Y-106829771D01*
X193704182Y-106994074D01*
X193704185Y-106994086D01*
X193757810Y-107123548D01*
X193765279Y-107193017D01*
X193757810Y-107218452D01*
X193704185Y-107347913D01*
X193704182Y-107347925D01*
X193671500Y-107512228D01*
X193671500Y-107679771D01*
X193704182Y-107844074D01*
X193704185Y-107844086D01*
X193757810Y-107973548D01*
X193765279Y-108043017D01*
X193757810Y-108068452D01*
X193704185Y-108197913D01*
X193704182Y-108197925D01*
X193671500Y-108362228D01*
X193671500Y-108529771D01*
X193704182Y-108694074D01*
X193704185Y-108694086D01*
X193757810Y-108823548D01*
X193765279Y-108893017D01*
X193757810Y-108918452D01*
X193704185Y-109047913D01*
X193704182Y-109047925D01*
X193671500Y-109212228D01*
X193671500Y-109379771D01*
X193704182Y-109544074D01*
X193704185Y-109544086D01*
X193757810Y-109673548D01*
X193765279Y-109743017D01*
X193757810Y-109768452D01*
X193704185Y-109897913D01*
X193704182Y-109897925D01*
X193671500Y-110062228D01*
X193671500Y-110229771D01*
X193704182Y-110394074D01*
X193704185Y-110394086D01*
X193757810Y-110523548D01*
X193765279Y-110593017D01*
X193757810Y-110618452D01*
X193704185Y-110747913D01*
X193704182Y-110747925D01*
X193671500Y-110912228D01*
X193671500Y-111079771D01*
X193704182Y-111244074D01*
X193704185Y-111244086D01*
X193757810Y-111373548D01*
X193765279Y-111443017D01*
X193757810Y-111468452D01*
X193704185Y-111597913D01*
X193704182Y-111597925D01*
X193671500Y-111762228D01*
X193671500Y-111929771D01*
X193704182Y-112094074D01*
X193704185Y-112094086D01*
X193757810Y-112223548D01*
X193765279Y-112293017D01*
X193757810Y-112318452D01*
X193704185Y-112447913D01*
X193704182Y-112447925D01*
X193671500Y-112612228D01*
X193671500Y-112779771D01*
X193704182Y-112944074D01*
X193704184Y-112944082D01*
X193768295Y-113098860D01*
X193861373Y-113238162D01*
X193961608Y-113338397D01*
X193995093Y-113399720D01*
X193990109Y-113469412D01*
X193977030Y-113494968D01*
X193909680Y-113595764D01*
X193909676Y-113595771D01*
X193838027Y-113768748D01*
X193838025Y-113768756D01*
X193801500Y-113952379D01*
X193801500Y-114139620D01*
X193838025Y-114323243D01*
X193838027Y-114323251D01*
X193909676Y-114496228D01*
X193909681Y-114496237D01*
X194013697Y-114651907D01*
X194013700Y-114651911D01*
X194146088Y-114784299D01*
X194146092Y-114784302D01*
X194301762Y-114888318D01*
X194301768Y-114888321D01*
X194301769Y-114888322D01*
X194474749Y-114959973D01*
X194658379Y-114996499D01*
X194658383Y-114996500D01*
X194658384Y-114996500D01*
X196345617Y-114996500D01*
X196345618Y-114996499D01*
X196529251Y-114959973D01*
X196702231Y-114888322D01*
X196857908Y-114784302D01*
X196990302Y-114651908D01*
X197094322Y-114496231D01*
X197165973Y-114323251D01*
X197202500Y-114139616D01*
X197202500Y-114124500D01*
X197204765Y-114116784D01*
X197203492Y-114108843D01*
X197214468Y-114083739D01*
X197222185Y-114057461D01*
X197228261Y-114052195D01*
X197231484Y-114044826D01*
X197254289Y-114029642D01*
X197274989Y-114011706D01*
X197284436Y-114009570D01*
X197289643Y-114006104D01*
X197320582Y-114001399D01*
X197324492Y-114000516D01*
X197325480Y-114000500D01*
X197388691Y-114000500D01*
X197394294Y-113999385D01*
X197405492Y-113999204D01*
X197428783Y-114005635D01*
X197452855Y-114007780D01*
X197461858Y-114014768D01*
X197472841Y-114017801D01*
X197488955Y-114035801D01*
X197508049Y-114050621D01*
X197511845Y-114061368D01*
X197519445Y-114069857D01*
X197523270Y-114093714D01*
X197531320Y-114116502D01*
X197531500Y-114123188D01*
X197531500Y-114139620D01*
X197568025Y-114323243D01*
X197568027Y-114323251D01*
X197639676Y-114496228D01*
X197639681Y-114496237D01*
X197743697Y-114651907D01*
X197743700Y-114651911D01*
X197876088Y-114784299D01*
X197876092Y-114784302D01*
X198031762Y-114888318D01*
X198031768Y-114888321D01*
X198031769Y-114888322D01*
X198204749Y-114959973D01*
X198388379Y-114996499D01*
X198388383Y-114996500D01*
X198388384Y-114996500D01*
X199375617Y-114996500D01*
X199375618Y-114996499D01*
X199559251Y-114959973D01*
X199732231Y-114888322D01*
X199887908Y-114784302D01*
X200020302Y-114651908D01*
X200124322Y-114496231D01*
X200195973Y-114323251D01*
X200232500Y-114139616D01*
X200232500Y-113952384D01*
X200195973Y-113768749D01*
X200124322Y-113595769D01*
X200124319Y-113595764D01*
X200124318Y-113595762D01*
X200020302Y-113440092D01*
X200020299Y-113440088D01*
X199887911Y-113307700D01*
X199887907Y-113307697D01*
X199732237Y-113203681D01*
X199732228Y-113203676D01*
X199559251Y-113132027D01*
X199559243Y-113132025D01*
X199375620Y-113095500D01*
X199375616Y-113095500D01*
X198388384Y-113095500D01*
X198345375Y-113104054D01*
X198275783Y-113097825D01*
X198220607Y-113054961D01*
X198199569Y-113006627D01*
X198165896Y-112837341D01*
X198165893Y-112837332D01*
X198098016Y-112673459D01*
X198098009Y-112673446D01*
X197999464Y-112525965D01*
X197999461Y-112525961D01*
X197874038Y-112400538D01*
X197874034Y-112400535D01*
X197726553Y-112301990D01*
X197726540Y-112301983D01*
X197562667Y-112234106D01*
X197562658Y-112234103D01*
X197388694Y-112199500D01*
X197388691Y-112199500D01*
X197211309Y-112199500D01*
X197211306Y-112199500D01*
X197037341Y-112234103D01*
X197037332Y-112234106D01*
X196873459Y-112301983D01*
X196873448Y-112301989D01*
X196840350Y-112324105D01*
X196773672Y-112344982D01*
X196706292Y-112326497D01*
X196659603Y-112274518D01*
X196648427Y-112205548D01*
X196656899Y-112173549D01*
X196689816Y-112094082D01*
X196722500Y-111929767D01*
X196722500Y-111762233D01*
X196689816Y-111597918D01*
X196636188Y-111468451D01*
X196628720Y-111398984D01*
X196636189Y-111373547D01*
X196689816Y-111244082D01*
X196722500Y-111079767D01*
X196722500Y-110912233D01*
X196689816Y-110747918D01*
X196636188Y-110618451D01*
X196628720Y-110548984D01*
X196636189Y-110523547D01*
X196689816Y-110394082D01*
X196722500Y-110229767D01*
X196722500Y-110062233D01*
X196689816Y-109897918D01*
X196636188Y-109768451D01*
X196628720Y-109698984D01*
X196636189Y-109673547D01*
X196689816Y-109544082D01*
X196722500Y-109379767D01*
X196722500Y-109212233D01*
X196689816Y-109047918D01*
X196636188Y-108918451D01*
X196628720Y-108848984D01*
X196636189Y-108823547D01*
X196689816Y-108694082D01*
X196722500Y-108529767D01*
X196722500Y-108362233D01*
X196689816Y-108197918D01*
X196636188Y-108068451D01*
X196628720Y-107998984D01*
X196636189Y-107973547D01*
X196689816Y-107844082D01*
X196722500Y-107679767D01*
X196722500Y-107512233D01*
X196689816Y-107347918D01*
X196636188Y-107218451D01*
X196633233Y-107190967D01*
X196626945Y-107164045D01*
X196629252Y-107153936D01*
X196628720Y-107148984D01*
X196633920Y-107129447D01*
X196634980Y-107126465D01*
X196689816Y-106994082D01*
X196699649Y-106944643D01*
X196702675Y-106936138D01*
X196718092Y-106914872D01*
X196730271Y-106891590D01*
X196738279Y-106887029D01*
X196743687Y-106879571D01*
X196768156Y-106870016D01*
X196790987Y-106857015D01*
X196800188Y-106857508D01*
X196808770Y-106854157D01*
X196834521Y-106859348D01*
X196860756Y-106860754D01*
X196873743Y-106867254D01*
X196877262Y-106867964D01*
X196879503Y-106870137D01*
X196888396Y-106874589D01*
X196907014Y-106887029D01*
X196923453Y-106898013D01*
X196923455Y-106898014D01*
X196923459Y-106898016D01*
X197015496Y-106936138D01*
X197087334Y-106965894D01*
X197087336Y-106965894D01*
X197087341Y-106965896D01*
X197261304Y-107000499D01*
X197261307Y-107000500D01*
X197261309Y-107000500D01*
X197438693Y-107000500D01*
X197438694Y-107000499D01*
X197496682Y-106988964D01*
X197612658Y-106965896D01*
X197612661Y-106965894D01*
X197612666Y-106965894D01*
X197776547Y-106898013D01*
X197924035Y-106799464D01*
X198049464Y-106674035D01*
X198148013Y-106526547D01*
X198148014Y-106526544D01*
X198148016Y-106526541D01*
X198196267Y-106410050D01*
X198240107Y-106355646D01*
X198306401Y-106333581D01*
X198335019Y-106335884D01*
X198362392Y-106341329D01*
X198388383Y-106346500D01*
X198388384Y-106346500D01*
X199375617Y-106346500D01*
X199375618Y-106346499D01*
X199559251Y-106309973D01*
X199732231Y-106238322D01*
X199887908Y-106134302D01*
X200020302Y-106001908D01*
X200124322Y-105846231D01*
X200195973Y-105673251D01*
X200232500Y-105489616D01*
X200232500Y-105302384D01*
X200195973Y-105118749D01*
X200124322Y-104945769D01*
X200124321Y-104945768D01*
X200124318Y-104945762D01*
X200020302Y-104790092D01*
X200020299Y-104790088D01*
X199887911Y-104657700D01*
X199887907Y-104657697D01*
X199732237Y-104553681D01*
X199732228Y-104553676D01*
X199559251Y-104482027D01*
X199559243Y-104482025D01*
X199375620Y-104445500D01*
X199375616Y-104445500D01*
X198388384Y-104445500D01*
X198388379Y-104445500D01*
X198204756Y-104482025D01*
X198204748Y-104482027D01*
X198031771Y-104553676D01*
X198031762Y-104553681D01*
X197876092Y-104657697D01*
X197876088Y-104657700D01*
X197743700Y-104790088D01*
X197743697Y-104790092D01*
X197639681Y-104945762D01*
X197639676Y-104945772D01*
X197566013Y-105123609D01*
X197553321Y-105139358D01*
X197544849Y-105157721D01*
X197531848Y-105166005D01*
X197522172Y-105178013D01*
X197502979Y-105184400D01*
X197485925Y-105195268D01*
X197464360Y-105197253D01*
X197455877Y-105200077D01*
X197450971Y-105200155D01*
X197441805Y-105200119D01*
X197438691Y-105199500D01*
X197282052Y-105199500D01*
X197281794Y-105199499D01*
X197248447Y-105189567D01*
X197215236Y-105179815D01*
X197215072Y-105179626D01*
X197214832Y-105179555D01*
X197192117Y-105153135D01*
X197169481Y-105127011D01*
X197169299Y-105126594D01*
X197169282Y-105126574D01*
X197169277Y-105126544D01*
X197167714Y-105122953D01*
X197165972Y-105118748D01*
X197094322Y-104945769D01*
X197094321Y-104945768D01*
X197094318Y-104945762D01*
X196990302Y-104790092D01*
X196990299Y-104790088D01*
X196857911Y-104657700D01*
X196857907Y-104657697D01*
X196702237Y-104553681D01*
X196702228Y-104553676D01*
X196529251Y-104482027D01*
X196529243Y-104482025D01*
X196345620Y-104445500D01*
X196345616Y-104445500D01*
X194658384Y-104445500D01*
X194658379Y-104445500D01*
X194474756Y-104482025D01*
X194474748Y-104482027D01*
X194301771Y-104553676D01*
X194301762Y-104553681D01*
X194146092Y-104657697D01*
X194146088Y-104657700D01*
X194013700Y-104790088D01*
X194013697Y-104790092D01*
X193909681Y-104945762D01*
X193909676Y-104945771D01*
X193838027Y-105118748D01*
X193838025Y-105118756D01*
X193801500Y-105302379D01*
X193801500Y-105489620D01*
X193838025Y-105673243D01*
X193838027Y-105673251D01*
X193909676Y-105846228D01*
X193909681Y-105846237D01*
X193977029Y-105947030D01*
X193997907Y-106013708D01*
X193979422Y-106081088D01*
X193961609Y-106103602D01*
X193861373Y-106203838D01*
X193768295Y-106343139D01*
X193704184Y-106497917D01*
X193704182Y-106497925D01*
X193671500Y-106662228D01*
X173734785Y-106662228D01*
X173698016Y-106573458D01*
X173698009Y-106573446D01*
X173599464Y-106425965D01*
X173599461Y-106425961D01*
X173474038Y-106300538D01*
X173474034Y-106300535D01*
X173326553Y-106201990D01*
X173326540Y-106201983D01*
X173162667Y-106134106D01*
X173162658Y-106134103D01*
X172988694Y-106099500D01*
X172988691Y-106099500D01*
X172811309Y-106099500D01*
X172811306Y-106099500D01*
X172637341Y-106134103D01*
X172637332Y-106134106D01*
X172473459Y-106201983D01*
X172473446Y-106201990D01*
X172325965Y-106300535D01*
X172325961Y-106300538D01*
X172200538Y-106425961D01*
X172200535Y-106425965D01*
X172101990Y-106573446D01*
X172101983Y-106573459D01*
X172034106Y-106737332D01*
X172034103Y-106737341D01*
X171999500Y-106911304D01*
X168950499Y-106911304D01*
X168915896Y-106737341D01*
X168915893Y-106737332D01*
X168848016Y-106573459D01*
X168848009Y-106573446D01*
X168749464Y-106425965D01*
X168749461Y-106425961D01*
X168624038Y-106300538D01*
X168624034Y-106300535D01*
X168476553Y-106201990D01*
X168476540Y-106201983D01*
X168312667Y-106134106D01*
X168312658Y-106134103D01*
X168138694Y-106099500D01*
X168138691Y-106099500D01*
X167961309Y-106099500D01*
X167961306Y-106099500D01*
X167787341Y-106134103D01*
X167787332Y-106134106D01*
X167623459Y-106201983D01*
X167623446Y-106201990D01*
X167475965Y-106300535D01*
X167475961Y-106300538D01*
X167350538Y-106425961D01*
X167350535Y-106425965D01*
X167251990Y-106573446D01*
X167251983Y-106573459D01*
X167184106Y-106737332D01*
X167184103Y-106737341D01*
X167149500Y-106911304D01*
X145000500Y-106911304D01*
X145000500Y-98062135D01*
X145599500Y-98062135D01*
X145599500Y-99857870D01*
X145599501Y-99857876D01*
X145605908Y-99917483D01*
X145656202Y-100052328D01*
X145656206Y-100052335D01*
X145742452Y-100167544D01*
X145742455Y-100167547D01*
X145857664Y-100253793D01*
X145857671Y-100253797D01*
X145989082Y-100302810D01*
X146045016Y-100344681D01*
X146069433Y-100410145D01*
X146054582Y-100478418D01*
X146033431Y-100506673D01*
X145919889Y-100620215D01*
X145794951Y-100792179D01*
X145698444Y-100981585D01*
X145632753Y-101183760D01*
X145599500Y-101393713D01*
X145599500Y-101606286D01*
X145632753Y-101816239D01*
X145698444Y-102018414D01*
X145794951Y-102207820D01*
X145919890Y-102379786D01*
X146070213Y-102530109D01*
X146242179Y-102655048D01*
X146242181Y-102655049D01*
X146242184Y-102655051D01*
X146431588Y-102751557D01*
X146633757Y-102817246D01*
X146843713Y-102850500D01*
X146843714Y-102850500D01*
X147056286Y-102850500D01*
X147056287Y-102850500D01*
X147266243Y-102817246D01*
X147468412Y-102751557D01*
X147657816Y-102655051D01*
X147679789Y-102639086D01*
X147829786Y-102530109D01*
X147829788Y-102530106D01*
X147829792Y-102530104D01*
X147980104Y-102379792D01*
X147980106Y-102379788D01*
X147980109Y-102379786D01*
X148105048Y-102207820D01*
X148105047Y-102207820D01*
X148105051Y-102207816D01*
X148201557Y-102018412D01*
X148267246Y-101816243D01*
X148300500Y-101606287D01*
X148300500Y-101393713D01*
X148267246Y-101183757D01*
X148201557Y-100981588D01*
X148105051Y-100792184D01*
X148105049Y-100792181D01*
X148105048Y-100792179D01*
X147980109Y-100620213D01*
X147866569Y-100506673D01*
X147833084Y-100445350D01*
X147838068Y-100375658D01*
X147879940Y-100319725D01*
X147910915Y-100302810D01*
X148042331Y-100253796D01*
X148157546Y-100167546D01*
X148243796Y-100052331D01*
X148294091Y-99917483D01*
X148300500Y-99857873D01*
X148300499Y-98062128D01*
X148294091Y-98002517D01*
X148243796Y-97867669D01*
X148243795Y-97867668D01*
X148243793Y-97867664D01*
X148157547Y-97752455D01*
X148157544Y-97752452D01*
X148042335Y-97666206D01*
X148042328Y-97666202D01*
X147907482Y-97615908D01*
X147907483Y-97615908D01*
X147847883Y-97609501D01*
X147847881Y-97609500D01*
X147847873Y-97609500D01*
X147847864Y-97609500D01*
X146052129Y-97609500D01*
X146052123Y-97609501D01*
X145992516Y-97615908D01*
X145857671Y-97666202D01*
X145857664Y-97666206D01*
X145742455Y-97752452D01*
X145742452Y-97752455D01*
X145656206Y-97867664D01*
X145656202Y-97867671D01*
X145605908Y-98002517D01*
X145599501Y-98062116D01*
X145599501Y-98062123D01*
X145599500Y-98062135D01*
X145000500Y-98062135D01*
X145000500Y-96911304D01*
X175599500Y-96911304D01*
X175599500Y-97088695D01*
X175634103Y-97262658D01*
X175634106Y-97262667D01*
X175701983Y-97426540D01*
X175701990Y-97426553D01*
X175800535Y-97574034D01*
X175800538Y-97574038D01*
X175925961Y-97699461D01*
X175925965Y-97699464D01*
X176073446Y-97798009D01*
X176073459Y-97798016D01*
X176196363Y-97848923D01*
X176237334Y-97865894D01*
X176237336Y-97865894D01*
X176237341Y-97865896D01*
X176411304Y-97900499D01*
X176411307Y-97900500D01*
X176411309Y-97900500D01*
X176588693Y-97900500D01*
X176588694Y-97900499D01*
X176646682Y-97888964D01*
X176762658Y-97865896D01*
X176762661Y-97865894D01*
X176762666Y-97865894D01*
X176926547Y-97798013D01*
X177074035Y-97699464D01*
X177199464Y-97574035D01*
X177298013Y-97426547D01*
X177365894Y-97262666D01*
X177368315Y-97250499D01*
X177397471Y-97103920D01*
X188199499Y-97103920D01*
X188228340Y-97248907D01*
X188228343Y-97248917D01*
X188284912Y-97385488D01*
X188284919Y-97385501D01*
X188367048Y-97508415D01*
X188367051Y-97508419D01*
X188471580Y-97612948D01*
X188471584Y-97612951D01*
X188594498Y-97695080D01*
X188594511Y-97695087D01*
X188731082Y-97751656D01*
X188731087Y-97751658D01*
X188731091Y-97751658D01*
X188731092Y-97751659D01*
X188876079Y-97780500D01*
X188876082Y-97780500D01*
X189023920Y-97780500D01*
X189121462Y-97761096D01*
X189168913Y-97751658D01*
X189305495Y-97695084D01*
X189381111Y-97644559D01*
X189447786Y-97623682D01*
X189515166Y-97642166D01*
X189518848Y-97644531D01*
X189594505Y-97695084D01*
X189594507Y-97695085D01*
X189594511Y-97695087D01*
X189731082Y-97751656D01*
X189731087Y-97751658D01*
X189731091Y-97751658D01*
X189731092Y-97751659D01*
X189876079Y-97780500D01*
X189876082Y-97780500D01*
X190023920Y-97780500D01*
X190121462Y-97761096D01*
X190168913Y-97751658D01*
X190305495Y-97695084D01*
X190381111Y-97644559D01*
X190447786Y-97623682D01*
X190515166Y-97642166D01*
X190518848Y-97644531D01*
X190594505Y-97695084D01*
X190594507Y-97695085D01*
X190594511Y-97695087D01*
X190731082Y-97751656D01*
X190731087Y-97751658D01*
X190731091Y-97751658D01*
X190731092Y-97751659D01*
X190876079Y-97780500D01*
X190876082Y-97780500D01*
X191023920Y-97780500D01*
X191121462Y-97761096D01*
X191168913Y-97751658D01*
X191305495Y-97695084D01*
X191428416Y-97612951D01*
X191532951Y-97508416D01*
X191615084Y-97385495D01*
X191671658Y-97248913D01*
X191700500Y-97103918D01*
X191700500Y-96956082D01*
X191700500Y-96956079D01*
X191671659Y-96811092D01*
X191671658Y-96811091D01*
X191671658Y-96811087D01*
X191657348Y-96776540D01*
X191615087Y-96674511D01*
X191615080Y-96674498D01*
X191532951Y-96551584D01*
X191532948Y-96551580D01*
X191428419Y-96447051D01*
X191428415Y-96447048D01*
X191305501Y-96364919D01*
X191305488Y-96364912D01*
X191168917Y-96308343D01*
X191168907Y-96308340D01*
X191023920Y-96279500D01*
X191023918Y-96279500D01*
X190876082Y-96279500D01*
X190876080Y-96279500D01*
X190731092Y-96308340D01*
X190731082Y-96308343D01*
X190594511Y-96364912D01*
X190594498Y-96364919D01*
X190518891Y-96415439D01*
X190452213Y-96436317D01*
X190384833Y-96417832D01*
X190381109Y-96415439D01*
X190305501Y-96364919D01*
X190305488Y-96364912D01*
X190168917Y-96308343D01*
X190168907Y-96308340D01*
X190023920Y-96279500D01*
X190023918Y-96279500D01*
X189876082Y-96279500D01*
X189876080Y-96279500D01*
X189731092Y-96308340D01*
X189731082Y-96308343D01*
X189594511Y-96364912D01*
X189594498Y-96364919D01*
X189518891Y-96415439D01*
X189452213Y-96436317D01*
X189384833Y-96417832D01*
X189381109Y-96415439D01*
X189305501Y-96364919D01*
X189305488Y-96364912D01*
X189168917Y-96308343D01*
X189168907Y-96308340D01*
X189023920Y-96279500D01*
X189023918Y-96279500D01*
X188876082Y-96279500D01*
X188876080Y-96279500D01*
X188731092Y-96308340D01*
X188731082Y-96308343D01*
X188594511Y-96364912D01*
X188594498Y-96364919D01*
X188471584Y-96447048D01*
X188471580Y-96447051D01*
X188367051Y-96551580D01*
X188367048Y-96551584D01*
X188284919Y-96674498D01*
X188284912Y-96674511D01*
X188228343Y-96811082D01*
X188228340Y-96811092D01*
X188199500Y-96956079D01*
X188199500Y-96956082D01*
X188199500Y-97103918D01*
X188199500Y-97103920D01*
X188199499Y-97103920D01*
X177397471Y-97103920D01*
X177400499Y-97088695D01*
X177400500Y-97088693D01*
X177400500Y-96911306D01*
X177400499Y-96911304D01*
X177365896Y-96737341D01*
X177365893Y-96737332D01*
X177298016Y-96573459D01*
X177298009Y-96573446D01*
X177199464Y-96425965D01*
X177199461Y-96425961D01*
X177074038Y-96300538D01*
X177074034Y-96300535D01*
X176926553Y-96201990D01*
X176926540Y-96201983D01*
X176762667Y-96134106D01*
X176762658Y-96134103D01*
X176588694Y-96099500D01*
X176588691Y-96099500D01*
X176411309Y-96099500D01*
X176411306Y-96099500D01*
X176237341Y-96134103D01*
X176237332Y-96134106D01*
X176073459Y-96201983D01*
X176073446Y-96201990D01*
X175925965Y-96300535D01*
X175925961Y-96300538D01*
X175800538Y-96425961D01*
X175800535Y-96425965D01*
X175701990Y-96573446D01*
X175701983Y-96573459D01*
X175634106Y-96737332D01*
X175634103Y-96737341D01*
X175599500Y-96911304D01*
X145000500Y-96911304D01*
X145000500Y-94961304D01*
X172099500Y-94961304D01*
X172099500Y-95138695D01*
X172134103Y-95312658D01*
X172134106Y-95312667D01*
X172201983Y-95476540D01*
X172201990Y-95476553D01*
X172300535Y-95624034D01*
X172300538Y-95624038D01*
X172425961Y-95749461D01*
X172425965Y-95749464D01*
X172573446Y-95848009D01*
X172573459Y-95848016D01*
X172696363Y-95898923D01*
X172737334Y-95915894D01*
X172737336Y-95915894D01*
X172737341Y-95915896D01*
X172911304Y-95950499D01*
X172911307Y-95950500D01*
X172911309Y-95950500D01*
X173088693Y-95950500D01*
X173088694Y-95950499D01*
X173146682Y-95938964D01*
X173262658Y-95915896D01*
X173262661Y-95915894D01*
X173262666Y-95915894D01*
X173426547Y-95848013D01*
X173574035Y-95749464D01*
X173699464Y-95624035D01*
X173798013Y-95476547D01*
X173865894Y-95312666D01*
X173873907Y-95272386D01*
X173899594Y-95143247D01*
X173900500Y-95138691D01*
X173900500Y-94961309D01*
X173900500Y-94961306D01*
X173900499Y-94961304D01*
X173865896Y-94787341D01*
X173865893Y-94787332D01*
X173798016Y-94623459D01*
X173798009Y-94623446D01*
X173699464Y-94475965D01*
X173699461Y-94475961D01*
X173574038Y-94350538D01*
X173574034Y-94350535D01*
X173426553Y-94251990D01*
X173426540Y-94251983D01*
X173262667Y-94184106D01*
X173262658Y-94184103D01*
X173088694Y-94149500D01*
X173088691Y-94149500D01*
X172911309Y-94149500D01*
X172911306Y-94149500D01*
X172737341Y-94184103D01*
X172737332Y-94184106D01*
X172573459Y-94251983D01*
X172573446Y-94251990D01*
X172425965Y-94350535D01*
X172425961Y-94350538D01*
X172300538Y-94475961D01*
X172300535Y-94475965D01*
X172201990Y-94623446D01*
X172201983Y-94623459D01*
X172134106Y-94787332D01*
X172134103Y-94787341D01*
X172099500Y-94961304D01*
X145000500Y-94961304D01*
X145000500Y-94051569D01*
X145020185Y-93984530D01*
X145036102Y-93964778D01*
X191737000Y-93964778D01*
X191737000Y-94185221D01*
X191771485Y-94402952D01*
X191839603Y-94612603D01*
X191839604Y-94612606D01*
X191907622Y-94746096D01*
X191928634Y-94787334D01*
X191939687Y-94809025D01*
X192069252Y-94987358D01*
X192069256Y-94987363D01*
X192225136Y-95143243D01*
X192225141Y-95143247D01*
X192339132Y-95226065D01*
X192403478Y-95272815D01*
X192531875Y-95338237D01*
X192599893Y-95372895D01*
X192599896Y-95372896D01*
X192704721Y-95406955D01*
X192809549Y-95441015D01*
X193027278Y-95475500D01*
X193027279Y-95475500D01*
X193247721Y-95475500D01*
X193247722Y-95475500D01*
X193465451Y-95441015D01*
X193675106Y-95372895D01*
X193871522Y-95272815D01*
X194049865Y-95143242D01*
X194205742Y-94987365D01*
X194335315Y-94809022D01*
X194435395Y-94612606D01*
X194435396Y-94612603D01*
X194503515Y-94402952D01*
X194503516Y-94402946D01*
X194506154Y-94386287D01*
X194536079Y-94323151D01*
X194540947Y-94317996D01*
X194695361Y-94163582D01*
X194718167Y-94248694D01*
X194777410Y-94351306D01*
X194861194Y-94435090D01*
X194963806Y-94494333D01*
X195048914Y-94517137D01*
X194339985Y-95226065D01*
X194339985Y-95226066D01*
X194403743Y-95272388D01*
X194600089Y-95372432D01*
X194809664Y-95440526D01*
X195027319Y-95475000D01*
X195247681Y-95475000D01*
X195465335Y-95440526D01*
X195674910Y-95372432D01*
X195871260Y-95272386D01*
X195935013Y-95226066D01*
X195935014Y-95226066D01*
X195226085Y-94517138D01*
X195311194Y-94494333D01*
X195413806Y-94435090D01*
X195497590Y-94351306D01*
X195556833Y-94248694D01*
X195579638Y-94163583D01*
X195734052Y-94317997D01*
X195767537Y-94379320D01*
X195768844Y-94386278D01*
X195771485Y-94402954D01*
X195839603Y-94612603D01*
X195839604Y-94612606D01*
X195907622Y-94746096D01*
X195928634Y-94787334D01*
X195939687Y-94809025D01*
X196069252Y-94987358D01*
X196069256Y-94987363D01*
X196225136Y-95143243D01*
X196225141Y-95143247D01*
X196345236Y-95230501D01*
X196387902Y-95285831D01*
X196393881Y-95355444D01*
X196361276Y-95417239D01*
X196300437Y-95451596D01*
X196296543Y-95452436D01*
X196137340Y-95484104D01*
X196137332Y-95484106D01*
X195973459Y-95551983D01*
X195973446Y-95551990D01*
X195825965Y-95650535D01*
X195825961Y-95650538D01*
X195700538Y-95775961D01*
X195700535Y-95775965D01*
X195601990Y-95923446D01*
X195601983Y-95923459D01*
X195534106Y-96087332D01*
X195534103Y-96087341D01*
X195499500Y-96261304D01*
X195499500Y-96438695D01*
X195534103Y-96612658D01*
X195534106Y-96612667D01*
X195601983Y-96776540D01*
X195601990Y-96776553D01*
X195700535Y-96924034D01*
X195700538Y-96924038D01*
X195825961Y-97049461D01*
X195825965Y-97049464D01*
X195973446Y-97148009D01*
X195973459Y-97148016D01*
X196096363Y-97198923D01*
X196137334Y-97215894D01*
X196137336Y-97215894D01*
X196137341Y-97215896D01*
X196311304Y-97250499D01*
X196311307Y-97250500D01*
X196311309Y-97250500D01*
X196488693Y-97250500D01*
X196488694Y-97250499D01*
X196546682Y-97238964D01*
X196662658Y-97215896D01*
X196662661Y-97215894D01*
X196662666Y-97215894D01*
X196826547Y-97148013D01*
X196974035Y-97049464D01*
X197099464Y-96924035D01*
X197198013Y-96776547D01*
X197265894Y-96612666D01*
X197273696Y-96573446D01*
X197300499Y-96438695D01*
X197300500Y-96438693D01*
X197300500Y-96261306D01*
X197300499Y-96261304D01*
X197265896Y-96087341D01*
X197265893Y-96087332D01*
X197198016Y-95923459D01*
X197198009Y-95923446D01*
X197099464Y-95775965D01*
X197099461Y-95775961D01*
X197010681Y-95687181D01*
X196977196Y-95625858D01*
X196982180Y-95556166D01*
X197024052Y-95500233D01*
X197089516Y-95475816D01*
X197098362Y-95475500D01*
X197247721Y-95475500D01*
X197247722Y-95475500D01*
X197465451Y-95441015D01*
X197675106Y-95372895D01*
X197871522Y-95272815D01*
X198049865Y-95143242D01*
X198205742Y-94987365D01*
X198335315Y-94809022D01*
X198435395Y-94612606D01*
X198503515Y-94402951D01*
X198538000Y-94185222D01*
X198538000Y-93964778D01*
X198503515Y-93747049D01*
X198469455Y-93642221D01*
X198435396Y-93537396D01*
X198435395Y-93537393D01*
X198400737Y-93469375D01*
X198335315Y-93340978D01*
X198318760Y-93318192D01*
X198205747Y-93162641D01*
X198205743Y-93162636D01*
X198049863Y-93006756D01*
X198049858Y-93006752D01*
X197871525Y-92877187D01*
X197871524Y-92877186D01*
X197871522Y-92877185D01*
X197808596Y-92845122D01*
X197675106Y-92777104D01*
X197675103Y-92777103D01*
X197465452Y-92708985D01*
X197356586Y-92691742D01*
X197247722Y-92674500D01*
X197027278Y-92674500D01*
X196954701Y-92685995D01*
X196809547Y-92708985D01*
X196599896Y-92777103D01*
X196599893Y-92777104D01*
X196403474Y-92877187D01*
X196225141Y-93006752D01*
X196225136Y-93006756D01*
X196069256Y-93162636D01*
X196069252Y-93162641D01*
X195939687Y-93340974D01*
X195839604Y-93537393D01*
X195839603Y-93537396D01*
X195771486Y-93747044D01*
X195768844Y-93763722D01*
X195738911Y-93826855D01*
X195734052Y-93832000D01*
X195579637Y-93986414D01*
X195556833Y-93901306D01*
X195497590Y-93798694D01*
X195413806Y-93714910D01*
X195311194Y-93655667D01*
X195226083Y-93632861D01*
X195935013Y-92923932D01*
X195871256Y-92877611D01*
X195674910Y-92777567D01*
X195465335Y-92709473D01*
X195247681Y-92675000D01*
X195027319Y-92675000D01*
X194809664Y-92709473D01*
X194600089Y-92777567D01*
X194403733Y-92877616D01*
X194339985Y-92923931D01*
X194339985Y-92923932D01*
X195048914Y-93632861D01*
X194963806Y-93655667D01*
X194861194Y-93714910D01*
X194777410Y-93798694D01*
X194718167Y-93901306D01*
X194695361Y-93986415D01*
X194540947Y-93832001D01*
X194507462Y-93770678D01*
X194506155Y-93763717D01*
X194503515Y-93747050D01*
X194503514Y-93747045D01*
X194435396Y-93537396D01*
X194435395Y-93537393D01*
X194400737Y-93469375D01*
X194335315Y-93340978D01*
X194318760Y-93318192D01*
X194205747Y-93162641D01*
X194205743Y-93162636D01*
X194049863Y-93006756D01*
X194049858Y-93006752D01*
X193871525Y-92877187D01*
X193871524Y-92877186D01*
X193871522Y-92877185D01*
X193808596Y-92845122D01*
X193675106Y-92777104D01*
X193675103Y-92777103D01*
X193465452Y-92708985D01*
X193356586Y-92691742D01*
X193247722Y-92674500D01*
X193027278Y-92674500D01*
X192954701Y-92685995D01*
X192809547Y-92708985D01*
X192599896Y-92777103D01*
X192599893Y-92777104D01*
X192403474Y-92877187D01*
X192225141Y-93006752D01*
X192225136Y-93006756D01*
X192069256Y-93162636D01*
X192069252Y-93162641D01*
X191939687Y-93340974D01*
X191839604Y-93537393D01*
X191839603Y-93537396D01*
X191771485Y-93747047D01*
X191737000Y-93964778D01*
X145036102Y-93964778D01*
X145036819Y-93963888D01*
X146139403Y-92861304D01*
X167999500Y-92861304D01*
X167999500Y-93038695D01*
X168034103Y-93212658D01*
X168034106Y-93212667D01*
X168101983Y-93376540D01*
X168101990Y-93376553D01*
X168200535Y-93524034D01*
X168200538Y-93524038D01*
X168325961Y-93649461D01*
X168325965Y-93649464D01*
X168473446Y-93748009D01*
X168473459Y-93748016D01*
X168595809Y-93798694D01*
X168637334Y-93815894D01*
X168637336Y-93815894D01*
X168637341Y-93815896D01*
X168811304Y-93850499D01*
X168811307Y-93850500D01*
X168811309Y-93850500D01*
X168988693Y-93850500D01*
X168988694Y-93850499D01*
X169050074Y-93838290D01*
X169162658Y-93815896D01*
X169162661Y-93815894D01*
X169162666Y-93815894D01*
X169326547Y-93748013D01*
X169474035Y-93649464D01*
X169599464Y-93524035D01*
X169698013Y-93376547D01*
X169765894Y-93212666D01*
X169800500Y-93038691D01*
X169800500Y-92861309D01*
X169800500Y-92861306D01*
X169800499Y-92861304D01*
X170099500Y-92861304D01*
X170099500Y-93038695D01*
X170134103Y-93212658D01*
X170134106Y-93212667D01*
X170201983Y-93376540D01*
X170201990Y-93376553D01*
X170300535Y-93524034D01*
X170300538Y-93524038D01*
X170425961Y-93649461D01*
X170425965Y-93649464D01*
X170573446Y-93748009D01*
X170573459Y-93748016D01*
X170695809Y-93798694D01*
X170737334Y-93815894D01*
X170737336Y-93815894D01*
X170737341Y-93815896D01*
X170911304Y-93850499D01*
X170911307Y-93850500D01*
X170911309Y-93850500D01*
X171088693Y-93850500D01*
X171088694Y-93850499D01*
X171106192Y-93847018D01*
X171150077Y-93838290D01*
X171150082Y-93838289D01*
X171213547Y-93825664D01*
X171262666Y-93815894D01*
X171426547Y-93748013D01*
X171574035Y-93649464D01*
X171699464Y-93524035D01*
X171798013Y-93376547D01*
X171865894Y-93212666D01*
X171900500Y-93038691D01*
X171900500Y-92861309D01*
X171900500Y-92861306D01*
X171900499Y-92861304D01*
X171865896Y-92687341D01*
X171865893Y-92687332D01*
X171798016Y-92523459D01*
X171798009Y-92523446D01*
X171699464Y-92375965D01*
X171699461Y-92375961D01*
X171574038Y-92250538D01*
X171574034Y-92250535D01*
X171426553Y-92151990D01*
X171426540Y-92151983D01*
X171262667Y-92084106D01*
X171262658Y-92084103D01*
X171088694Y-92049500D01*
X171088691Y-92049500D01*
X170911309Y-92049500D01*
X170911306Y-92049500D01*
X170737341Y-92084103D01*
X170737332Y-92084106D01*
X170573459Y-92151983D01*
X170573446Y-92151990D01*
X170425965Y-92250535D01*
X170425961Y-92250538D01*
X170300538Y-92375961D01*
X170300535Y-92375965D01*
X170201990Y-92523446D01*
X170201983Y-92523459D01*
X170134106Y-92687332D01*
X170134103Y-92687341D01*
X170099500Y-92861304D01*
X169800499Y-92861304D01*
X169765896Y-92687341D01*
X169765893Y-92687332D01*
X169698016Y-92523459D01*
X169698009Y-92523446D01*
X169599464Y-92375965D01*
X169599461Y-92375961D01*
X169474038Y-92250538D01*
X169474034Y-92250535D01*
X169326553Y-92151990D01*
X169326540Y-92151983D01*
X169162667Y-92084106D01*
X169162658Y-92084103D01*
X168988694Y-92049500D01*
X168988691Y-92049500D01*
X168811309Y-92049500D01*
X168811306Y-92049500D01*
X168637341Y-92084103D01*
X168637332Y-92084106D01*
X168473459Y-92151983D01*
X168473446Y-92151990D01*
X168325965Y-92250535D01*
X168325961Y-92250538D01*
X168200538Y-92375961D01*
X168200535Y-92375965D01*
X168101990Y-92523446D01*
X168101983Y-92523459D01*
X168034106Y-92687332D01*
X168034103Y-92687341D01*
X167999500Y-92861304D01*
X146139403Y-92861304D01*
X147889403Y-91111304D01*
X172999500Y-91111304D01*
X172999500Y-91288695D01*
X173034103Y-91462658D01*
X173034106Y-91462667D01*
X173101983Y-91626540D01*
X173101990Y-91626553D01*
X173200535Y-91774034D01*
X173200538Y-91774038D01*
X173325961Y-91899461D01*
X173325965Y-91899464D01*
X173473446Y-91998009D01*
X173473459Y-91998016D01*
X173596363Y-92048923D01*
X173637334Y-92065894D01*
X173637336Y-92065894D01*
X173637341Y-92065896D01*
X173811304Y-92100499D01*
X173811307Y-92100500D01*
X173811309Y-92100500D01*
X173988693Y-92100500D01*
X173988694Y-92100499D01*
X174071124Y-92084103D01*
X174162658Y-92065896D01*
X174162661Y-92065894D01*
X174162666Y-92065894D01*
X174326547Y-91998013D01*
X174474035Y-91899464D01*
X174599464Y-91774035D01*
X174698013Y-91626547D01*
X174765894Y-91462666D01*
X174800500Y-91288691D01*
X174800500Y-91111309D01*
X174800500Y-91111306D01*
X174800499Y-91111304D01*
X174765896Y-90937341D01*
X174765893Y-90937332D01*
X174698016Y-90773459D01*
X174698009Y-90773446D01*
X174599464Y-90625965D01*
X174599461Y-90625961D01*
X174474038Y-90500538D01*
X174474034Y-90500535D01*
X174326553Y-90401990D01*
X174326540Y-90401983D01*
X174162667Y-90334106D01*
X174162658Y-90334103D01*
X173988694Y-90299500D01*
X173988691Y-90299500D01*
X173811309Y-90299500D01*
X173811306Y-90299500D01*
X173637341Y-90334103D01*
X173637332Y-90334106D01*
X173473459Y-90401983D01*
X173473446Y-90401990D01*
X173325965Y-90500535D01*
X173325961Y-90500538D01*
X173200538Y-90625961D01*
X173200535Y-90625965D01*
X173101990Y-90773446D01*
X173101983Y-90773459D01*
X173034106Y-90937332D01*
X173034103Y-90937341D01*
X172999500Y-91111304D01*
X147889403Y-91111304D01*
X149989403Y-89011304D01*
X167299500Y-89011304D01*
X167299500Y-89188695D01*
X167334103Y-89362658D01*
X167334106Y-89362667D01*
X167401983Y-89526540D01*
X167401990Y-89526553D01*
X167500535Y-89674034D01*
X167500538Y-89674038D01*
X167625961Y-89799461D01*
X167625965Y-89799464D01*
X167773446Y-89898009D01*
X167773459Y-89898016D01*
X167896363Y-89948923D01*
X167937334Y-89965894D01*
X167937336Y-89965894D01*
X167937341Y-89965896D01*
X168111304Y-90000499D01*
X168111307Y-90000500D01*
X168111309Y-90000500D01*
X168288693Y-90000500D01*
X168288694Y-90000499D01*
X168346682Y-89988964D01*
X168462658Y-89965896D01*
X168462661Y-89965894D01*
X168462666Y-89965894D01*
X168614623Y-89902952D01*
X168626540Y-89898016D01*
X168626540Y-89898015D01*
X168626547Y-89898013D01*
X168774035Y-89799464D01*
X168899464Y-89674035D01*
X168998013Y-89526547D01*
X169065894Y-89362666D01*
X169075840Y-89312667D01*
X169100499Y-89188695D01*
X169100500Y-89188693D01*
X169100500Y-89011306D01*
X169100499Y-89011304D01*
X172999500Y-89011304D01*
X172999500Y-89188695D01*
X173034103Y-89362658D01*
X173034106Y-89362667D01*
X173101983Y-89526540D01*
X173101990Y-89526553D01*
X173200535Y-89674034D01*
X173200538Y-89674038D01*
X173325961Y-89799461D01*
X173325965Y-89799464D01*
X173473446Y-89898009D01*
X173473459Y-89898016D01*
X173596363Y-89948923D01*
X173637334Y-89965894D01*
X173637336Y-89965894D01*
X173637341Y-89965896D01*
X173811304Y-90000499D01*
X173811307Y-90000500D01*
X173811309Y-90000500D01*
X173988693Y-90000500D01*
X173988694Y-90000499D01*
X174046682Y-89988964D01*
X174162658Y-89965896D01*
X174162661Y-89965894D01*
X174162666Y-89965894D01*
X174314623Y-89902952D01*
X174326540Y-89898016D01*
X174326540Y-89898015D01*
X174326547Y-89898013D01*
X174474035Y-89799464D01*
X174599464Y-89674035D01*
X174615202Y-89650480D01*
X174638602Y-89615462D01*
X174692214Y-89570656D01*
X174761539Y-89561949D01*
X174824566Y-89592103D01*
X174844804Y-89615458D01*
X174850534Y-89624033D01*
X174850538Y-89624038D01*
X174975961Y-89749461D01*
X174975965Y-89749464D01*
X175123446Y-89848009D01*
X175123459Y-89848016D01*
X175244155Y-89898009D01*
X175287334Y-89915894D01*
X175287336Y-89915894D01*
X175287341Y-89915896D01*
X175461304Y-89950499D01*
X175461307Y-89950500D01*
X175461309Y-89950500D01*
X175638693Y-89950500D01*
X175638694Y-89950499D01*
X175696682Y-89938964D01*
X175812658Y-89915896D01*
X175812661Y-89915894D01*
X175812666Y-89915894D01*
X175976547Y-89848013D01*
X176124035Y-89749464D01*
X176249464Y-89624035D01*
X176348013Y-89476547D01*
X176352888Y-89464778D01*
X191737000Y-89464778D01*
X191737000Y-89685222D01*
X191747175Y-89749464D01*
X191771485Y-89902952D01*
X191839603Y-90112603D01*
X191839604Y-90112606D01*
X191907622Y-90246096D01*
X191934833Y-90299500D01*
X191939687Y-90309025D01*
X192069252Y-90487358D01*
X192069256Y-90487363D01*
X192225136Y-90643243D01*
X192225141Y-90643247D01*
X192380692Y-90756260D01*
X192403478Y-90772815D01*
X192531875Y-90838237D01*
X192599893Y-90872895D01*
X192599896Y-90872896D01*
X192704721Y-90906955D01*
X192809549Y-90941015D01*
X193027278Y-90975500D01*
X193027279Y-90975500D01*
X193247721Y-90975500D01*
X193247722Y-90975500D01*
X193465451Y-90941015D01*
X193675106Y-90872895D01*
X193871522Y-90772815D01*
X194049865Y-90643242D01*
X194049871Y-90643235D01*
X194053561Y-90640085D01*
X194054236Y-90640875D01*
X194111142Y-90609803D01*
X194180834Y-90614787D01*
X194220998Y-90640600D01*
X194221439Y-90640085D01*
X194225141Y-90643247D01*
X194380692Y-90756260D01*
X194403478Y-90772815D01*
X194531875Y-90838237D01*
X194599893Y-90872895D01*
X194599896Y-90872896D01*
X194704721Y-90906955D01*
X194809549Y-90941015D01*
X195027278Y-90975500D01*
X195027279Y-90975500D01*
X195247721Y-90975500D01*
X195247722Y-90975500D01*
X195465451Y-90941015D01*
X195675106Y-90872895D01*
X195871522Y-90772815D01*
X196049865Y-90643242D01*
X196049871Y-90643235D01*
X196053561Y-90640085D01*
X196054236Y-90640875D01*
X196111142Y-90609803D01*
X196180834Y-90614787D01*
X196220998Y-90640600D01*
X196221439Y-90640085D01*
X196225141Y-90643247D01*
X196380692Y-90756260D01*
X196403478Y-90772815D01*
X196531875Y-90838237D01*
X196599893Y-90872895D01*
X196599896Y-90872896D01*
X196704721Y-90906955D01*
X196809549Y-90941015D01*
X197027278Y-90975500D01*
X197027279Y-90975500D01*
X197247721Y-90975500D01*
X197247722Y-90975500D01*
X197465451Y-90941015D01*
X197675106Y-90872895D01*
X197871522Y-90772815D01*
X198049865Y-90643242D01*
X198205742Y-90487365D01*
X198335315Y-90309022D01*
X198435395Y-90112606D01*
X198503515Y-89902951D01*
X198538000Y-89685222D01*
X198538000Y-89464778D01*
X198503515Y-89247049D01*
X198435395Y-89037394D01*
X198435395Y-89037393D01*
X198396625Y-88961304D01*
X198335315Y-88840978D01*
X198296339Y-88787332D01*
X198205747Y-88662641D01*
X198205743Y-88662636D01*
X198049863Y-88506756D01*
X198049858Y-88506752D01*
X197871525Y-88377187D01*
X197871524Y-88377186D01*
X197871522Y-88377185D01*
X197808596Y-88345122D01*
X197675106Y-88277104D01*
X197675103Y-88277103D01*
X197465452Y-88208985D01*
X197356586Y-88191742D01*
X197247722Y-88174500D01*
X197027278Y-88174500D01*
X196966647Y-88184103D01*
X196809547Y-88208985D01*
X196599896Y-88277103D01*
X196599893Y-88277104D01*
X196403474Y-88377187D01*
X196225141Y-88506752D01*
X196221439Y-88509915D01*
X196220763Y-88509124D01*
X196163858Y-88540197D01*
X196094166Y-88535213D01*
X196054001Y-88509399D01*
X196053561Y-88509915D01*
X196049858Y-88506752D01*
X195871525Y-88377187D01*
X195871524Y-88377186D01*
X195871522Y-88377185D01*
X195808596Y-88345122D01*
X195675106Y-88277104D01*
X195675103Y-88277103D01*
X195465452Y-88208985D01*
X195356586Y-88191742D01*
X195247722Y-88174500D01*
X195027278Y-88174500D01*
X194966647Y-88184103D01*
X194809547Y-88208985D01*
X194599896Y-88277103D01*
X194599893Y-88277104D01*
X194403474Y-88377187D01*
X194225141Y-88506752D01*
X194221439Y-88509915D01*
X194220763Y-88509124D01*
X194163858Y-88540197D01*
X194094166Y-88535213D01*
X194054001Y-88509399D01*
X194053561Y-88509915D01*
X194049858Y-88506752D01*
X193871525Y-88377187D01*
X193871524Y-88377186D01*
X193871522Y-88377185D01*
X193808596Y-88345122D01*
X193675106Y-88277104D01*
X193675103Y-88277103D01*
X193465452Y-88208985D01*
X193356586Y-88191742D01*
X193247722Y-88174500D01*
X193027278Y-88174500D01*
X192966647Y-88184103D01*
X192809547Y-88208985D01*
X192599896Y-88277103D01*
X192599893Y-88277104D01*
X192403474Y-88377187D01*
X192225141Y-88506752D01*
X192225136Y-88506756D01*
X192069256Y-88662636D01*
X192069252Y-88662641D01*
X191939687Y-88840974D01*
X191839604Y-89037393D01*
X191839603Y-89037396D01*
X191771485Y-89247047D01*
X191761092Y-89312666D01*
X191737000Y-89464778D01*
X176352888Y-89464778D01*
X176415894Y-89312666D01*
X176450500Y-89138691D01*
X176450500Y-88961309D01*
X176450500Y-88961306D01*
X176450499Y-88961304D01*
X176415896Y-88787341D01*
X176415893Y-88787332D01*
X176348016Y-88623459D01*
X176348009Y-88623446D01*
X176249464Y-88475965D01*
X176249461Y-88475961D01*
X176124038Y-88350538D01*
X176124034Y-88350535D01*
X175976553Y-88251990D01*
X175976540Y-88251983D01*
X175812667Y-88184106D01*
X175812658Y-88184103D01*
X175638694Y-88149500D01*
X175638691Y-88149500D01*
X175461309Y-88149500D01*
X175461306Y-88149500D01*
X175287341Y-88184103D01*
X175287332Y-88184106D01*
X175123459Y-88251983D01*
X175123446Y-88251990D01*
X174975965Y-88350535D01*
X174975961Y-88350538D01*
X174850538Y-88475961D01*
X174811397Y-88534540D01*
X174757784Y-88579344D01*
X174688459Y-88588051D01*
X174625432Y-88557896D01*
X174605192Y-88534537D01*
X174599465Y-88525966D01*
X174599461Y-88525961D01*
X174474038Y-88400538D01*
X174474034Y-88400535D01*
X174326553Y-88301990D01*
X174326540Y-88301983D01*
X174162667Y-88234106D01*
X174162658Y-88234103D01*
X173988694Y-88199500D01*
X173988691Y-88199500D01*
X173811309Y-88199500D01*
X173811306Y-88199500D01*
X173637341Y-88234103D01*
X173637332Y-88234106D01*
X173473459Y-88301983D01*
X173473446Y-88301990D01*
X173325965Y-88400535D01*
X173325961Y-88400538D01*
X173200538Y-88525961D01*
X173200535Y-88525965D01*
X173101990Y-88673446D01*
X173101983Y-88673459D01*
X173034106Y-88837332D01*
X173034103Y-88837341D01*
X172999500Y-89011304D01*
X169100499Y-89011304D01*
X169065896Y-88837341D01*
X169065893Y-88837332D01*
X168998016Y-88673459D01*
X168998009Y-88673446D01*
X168899464Y-88525965D01*
X168899461Y-88525961D01*
X168774038Y-88400538D01*
X168774034Y-88400535D01*
X168626553Y-88301990D01*
X168626540Y-88301983D01*
X168462667Y-88234106D01*
X168462658Y-88234103D01*
X168288694Y-88199500D01*
X168288691Y-88199500D01*
X168111309Y-88199500D01*
X168111306Y-88199500D01*
X167937341Y-88234103D01*
X167937332Y-88234106D01*
X167773459Y-88301983D01*
X167773446Y-88301990D01*
X167625965Y-88400535D01*
X167625961Y-88400538D01*
X167500538Y-88525961D01*
X167500535Y-88525965D01*
X167401990Y-88673446D01*
X167401983Y-88673459D01*
X167334106Y-88837332D01*
X167334103Y-88837341D01*
X167299500Y-89011304D01*
X149989403Y-89011304D01*
X151963888Y-87036819D01*
X152025211Y-87003334D01*
X152051569Y-87000500D01*
X200875500Y-87000500D01*
X200942539Y-87020185D01*
G37*
%TD.AperFunction*%
%TD*%
M02*
