%TF.GenerationSoftware,KiCad,Pcbnew,9.0.0*%
%TF.CreationDate,2026-02-26T19:26:21+01:00*%
%TF.ProjectId,LaserOps_PCB,4c617365-724f-4707-935f-5043422e6b69,rev?*%
%TF.SameCoordinates,Original*%
%TF.FileFunction,Other,Comment*%
%FSLAX46Y46*%
G04 Gerber Fmt 4.6, Leading zero omitted, Abs format (unit mm)*
G04 Created by KiCad (PCBNEW 9.0.0) date 2026-02-26 19:26:21*
%MOMM*%
%LPD*%
G01*
G04 APERTURE LIST*
%ADD10C,0.150000*%
G04 APERTURE END LIST*
D10*
X171499142Y-138577438D02*
X171499142Y-136577438D01*
X172641999Y-138577438D02*
X171784856Y-137434580D01*
X172641999Y-136577438D02*
X171499142Y-137720295D01*
X173499142Y-137529819D02*
X174165809Y-137529819D01*
X174451523Y-138577438D02*
X173499142Y-138577438D01*
X173499142Y-138577438D02*
X173499142Y-136577438D01*
X173499142Y-136577438D02*
X174451523Y-136577438D01*
X175308666Y-137529819D02*
X175975333Y-137529819D01*
X176261047Y-138577438D02*
X175308666Y-138577438D01*
X175308666Y-138577438D02*
X175308666Y-136577438D01*
X175308666Y-136577438D02*
X176261047Y-136577438D01*
X177118190Y-138577438D02*
X177118190Y-136577438D01*
X177118190Y-136577438D02*
X177880095Y-136577438D01*
X177880095Y-136577438D02*
X178070571Y-136672676D01*
X178070571Y-136672676D02*
X178165809Y-136767914D01*
X178165809Y-136767914D02*
X178261047Y-136958390D01*
X178261047Y-136958390D02*
X178261047Y-137244104D01*
X178261047Y-137244104D02*
X178165809Y-137434580D01*
X178165809Y-137434580D02*
X178070571Y-137529819D01*
X178070571Y-137529819D02*
X177880095Y-137625057D01*
X177880095Y-137625057D02*
X177118190Y-137625057D01*
X179118190Y-137815533D02*
X180642000Y-137815533D01*
X181975332Y-136577438D02*
X182356285Y-136577438D01*
X182356285Y-136577438D02*
X182546761Y-136672676D01*
X182546761Y-136672676D02*
X182737237Y-136863152D01*
X182737237Y-136863152D02*
X182832475Y-137244104D01*
X182832475Y-137244104D02*
X182832475Y-137910771D01*
X182832475Y-137910771D02*
X182737237Y-138291723D01*
X182737237Y-138291723D02*
X182546761Y-138482200D01*
X182546761Y-138482200D02*
X182356285Y-138577438D01*
X182356285Y-138577438D02*
X181975332Y-138577438D01*
X181975332Y-138577438D02*
X181784856Y-138482200D01*
X181784856Y-138482200D02*
X181594380Y-138291723D01*
X181594380Y-138291723D02*
X181499142Y-137910771D01*
X181499142Y-137910771D02*
X181499142Y-137244104D01*
X181499142Y-137244104D02*
X181594380Y-136863152D01*
X181594380Y-136863152D02*
X181784856Y-136672676D01*
X181784856Y-136672676D02*
X181975332Y-136577438D01*
X183689618Y-136577438D02*
X183689618Y-138196485D01*
X183689618Y-138196485D02*
X183784856Y-138386961D01*
X183784856Y-138386961D02*
X183880094Y-138482200D01*
X183880094Y-138482200D02*
X184070570Y-138577438D01*
X184070570Y-138577438D02*
X184451523Y-138577438D01*
X184451523Y-138577438D02*
X184641999Y-138482200D01*
X184641999Y-138482200D02*
X184737237Y-138386961D01*
X184737237Y-138386961D02*
X184832475Y-138196485D01*
X184832475Y-138196485D02*
X184832475Y-136577438D01*
X185499142Y-136577438D02*
X186641999Y-136577438D01*
X186070570Y-138577438D02*
X186070570Y-136577438D01*
X188642000Y-136577438D02*
X189975333Y-136577438D01*
X189975333Y-136577438D02*
X188642000Y-138577438D01*
X188642000Y-138577438D02*
X189975333Y-138577438D01*
X191118190Y-136577438D02*
X191499143Y-136577438D01*
X191499143Y-136577438D02*
X191689619Y-136672676D01*
X191689619Y-136672676D02*
X191880095Y-136863152D01*
X191880095Y-136863152D02*
X191975333Y-137244104D01*
X191975333Y-137244104D02*
X191975333Y-137910771D01*
X191975333Y-137910771D02*
X191880095Y-138291723D01*
X191880095Y-138291723D02*
X191689619Y-138482200D01*
X191689619Y-138482200D02*
X191499143Y-138577438D01*
X191499143Y-138577438D02*
X191118190Y-138577438D01*
X191118190Y-138577438D02*
X190927714Y-138482200D01*
X190927714Y-138482200D02*
X190737238Y-138291723D01*
X190737238Y-138291723D02*
X190642000Y-137910771D01*
X190642000Y-137910771D02*
X190642000Y-137244104D01*
X190642000Y-137244104D02*
X190737238Y-136863152D01*
X190737238Y-136863152D02*
X190927714Y-136672676D01*
X190927714Y-136672676D02*
X191118190Y-136577438D01*
X192832476Y-138577438D02*
X192832476Y-136577438D01*
X192832476Y-136577438D02*
X193975333Y-138577438D01*
X193975333Y-138577438D02*
X193975333Y-136577438D01*
X194927714Y-137529819D02*
X195594381Y-137529819D01*
X195880095Y-138577438D02*
X194927714Y-138577438D01*
X194927714Y-138577438D02*
X194927714Y-136577438D01*
X194927714Y-136577438D02*
X195880095Y-136577438D01*
X180930095Y-128349104D02*
X181406285Y-128349104D01*
X180834857Y-128634819D02*
X181168190Y-127634819D01*
X181168190Y-127634819D02*
X181501523Y-128634819D01*
X181834857Y-127968152D02*
X181834857Y-128634819D01*
X181834857Y-128063390D02*
X181882476Y-128015771D01*
X181882476Y-128015771D02*
X181977714Y-127968152D01*
X181977714Y-127968152D02*
X182120571Y-127968152D01*
X182120571Y-127968152D02*
X182215809Y-128015771D01*
X182215809Y-128015771D02*
X182263428Y-128111009D01*
X182263428Y-128111009D02*
X182263428Y-128634819D01*
X182596762Y-127968152D02*
X182977714Y-127968152D01*
X182739619Y-127634819D02*
X182739619Y-128491961D01*
X182739619Y-128491961D02*
X182787238Y-128587200D01*
X182787238Y-128587200D02*
X182882476Y-128634819D01*
X182882476Y-128634819D02*
X182977714Y-128634819D01*
X183692000Y-128587200D02*
X183596762Y-128634819D01*
X183596762Y-128634819D02*
X183406286Y-128634819D01*
X183406286Y-128634819D02*
X183311048Y-128587200D01*
X183311048Y-128587200D02*
X183263429Y-128491961D01*
X183263429Y-128491961D02*
X183263429Y-128111009D01*
X183263429Y-128111009D02*
X183311048Y-128015771D01*
X183311048Y-128015771D02*
X183406286Y-127968152D01*
X183406286Y-127968152D02*
X183596762Y-127968152D01*
X183596762Y-127968152D02*
X183692000Y-128015771D01*
X183692000Y-128015771D02*
X183739619Y-128111009D01*
X183739619Y-128111009D02*
X183739619Y-128206247D01*
X183739619Y-128206247D02*
X183263429Y-128301485D01*
X184168191Y-127968152D02*
X184168191Y-128634819D01*
X184168191Y-128063390D02*
X184215810Y-128015771D01*
X184215810Y-128015771D02*
X184311048Y-127968152D01*
X184311048Y-127968152D02*
X184453905Y-127968152D01*
X184453905Y-127968152D02*
X184549143Y-128015771D01*
X184549143Y-128015771D02*
X184596762Y-128111009D01*
X184596762Y-128111009D02*
X184596762Y-128634819D01*
X185072953Y-127968152D02*
X185072953Y-128634819D01*
X185072953Y-128063390D02*
X185120572Y-128015771D01*
X185120572Y-128015771D02*
X185215810Y-127968152D01*
X185215810Y-127968152D02*
X185358667Y-127968152D01*
X185358667Y-127968152D02*
X185453905Y-128015771D01*
X185453905Y-128015771D02*
X185501524Y-128111009D01*
X185501524Y-128111009D02*
X185501524Y-128634819D01*
X186406286Y-128634819D02*
X186406286Y-128111009D01*
X186406286Y-128111009D02*
X186358667Y-128015771D01*
X186358667Y-128015771D02*
X186263429Y-127968152D01*
X186263429Y-127968152D02*
X186072953Y-127968152D01*
X186072953Y-127968152D02*
X185977715Y-128015771D01*
X186406286Y-128587200D02*
X186311048Y-128634819D01*
X186311048Y-128634819D02*
X186072953Y-128634819D01*
X186072953Y-128634819D02*
X185977715Y-128587200D01*
X185977715Y-128587200D02*
X185930096Y-128491961D01*
X185930096Y-128491961D02*
X185930096Y-128396723D01*
X185930096Y-128396723D02*
X185977715Y-128301485D01*
X185977715Y-128301485D02*
X186072953Y-128253866D01*
X186072953Y-128253866D02*
X186311048Y-128253866D01*
X186311048Y-128253866D02*
X186406286Y-128206247D01*
M02*
