%TF.GenerationSoftware,KiCad,Pcbnew,9.0.0*%
%TF.CreationDate,2026-02-26T19:26:21+01:00*%
%TF.ProjectId,LaserOps_PCB,4c617365-724f-4707-935f-5043422e6b69,rev?*%
%TF.SameCoordinates,Original*%
%TF.FileFunction,Copper,L4,Bot*%
%TF.FilePolarity,Positive*%
%FSLAX46Y46*%
G04 Gerber Fmt 4.6, Leading zero omitted, Abs format (unit mm)*
G04 Created by KiCad (PCBNEW 9.0.0) date 2026-02-26 19:26:21*
%MOMM*%
%LPD*%
G01*
G04 APERTURE LIST*
G04 Aperture macros list*
%AMRoundRect*
0 Rectangle with rounded corners*
0 $1 Rounding radius*
0 $2 $3 $4 $5 $6 $7 $8 $9 X,Y pos of 4 corners*
0 Add a 4 corners polygon primitive as box body*
4,1,4,$2,$3,$4,$5,$6,$7,$8,$9,$2,$3,0*
0 Add four circle primitives for the rounded corners*
1,1,$1+$1,$2,$3*
1,1,$1+$1,$4,$5*
1,1,$1+$1,$6,$7*
1,1,$1+$1,$8,$9*
0 Add four rect primitives between the rounded corners*
20,1,$1+$1,$2,$3,$4,$5,0*
20,1,$1+$1,$4,$5,$6,$7,0*
20,1,$1+$1,$6,$7,$8,$9,0*
20,1,$1+$1,$8,$9,$2,$3,0*%
%AMFreePoly0*
4,1,11,1.467500,1.700000,0.527500,0.844500,0.527500,-0.844500,1.467500,-1.700000,1.467500,-2.755000,0.527500,-2.755000,-0.527500,-1.700000,-0.527500,1.700000,0.527500,2.755000,1.467500,2.755000,1.467500,1.700000,1.467500,1.700000,$1*%
%AMFreePoly1*
4,1,11,0.527500,1.700000,0.527500,-1.700000,-0.527500,-2.755000,-1.467500,-2.755000,-1.467500,-1.700000,-0.527500,-0.844500,-0.527500,0.844500,-1.467500,1.700000,-1.467500,2.755000,-0.527500,2.755000,0.527500,1.700000,0.527500,1.700000,$1*%
G04 Aperture macros list end*
%TA.AperFunction,SMDPad,CuDef*%
%ADD10FreePoly0,90.000000*%
%TD*%
%TA.AperFunction,SMDPad,CuDef*%
%ADD11FreePoly1,90.000000*%
%TD*%
%TA.AperFunction,ComponentPad*%
%ADD12C,1.800000*%
%TD*%
%TA.AperFunction,ComponentPad*%
%ADD13R,1.700000X1.700000*%
%TD*%
%TA.AperFunction,ComponentPad*%
%ADD14O,1.700000X1.700000*%
%TD*%
%TA.AperFunction,HeatsinkPad*%
%ADD15C,0.600000*%
%TD*%
%TA.AperFunction,ComponentPad*%
%ADD16C,0.500000*%
%TD*%
%TA.AperFunction,SMDPad,CuDef*%
%ADD17RoundRect,0.250000X-1.550000X0.920000X-1.550000X-0.920000X1.550000X-0.920000X1.550000X0.920000X0*%
%TD*%
%TA.AperFunction,SMDPad,CuDef*%
%ADD18R,1.500000X1.500000*%
%TD*%
%TA.AperFunction,ComponentPad*%
%ADD19C,0.700000*%
%TD*%
%TA.AperFunction,ComponentPad*%
%ADD20O,2.400000X0.900000*%
%TD*%
%TA.AperFunction,ComponentPad*%
%ADD21O,1.700000X0.900000*%
%TD*%
%TA.AperFunction,ComponentPad*%
%ADD22R,1.600000X1.600000*%
%TD*%
%TA.AperFunction,ComponentPad*%
%ADD23C,1.600000*%
%TD*%
%TA.AperFunction,ViaPad*%
%ADD24C,0.800000*%
%TD*%
%TA.AperFunction,Conductor*%
%ADD25C,0.500000*%
%TD*%
%TA.AperFunction,Conductor*%
%ADD26C,0.250000*%
%TD*%
%TA.AperFunction,Conductor*%
%ADD27C,0.200000*%
%TD*%
G04 APERTURE END LIST*
D10*
%TO.P,L1,1,1*%
%TO.N,Net-(U3-SW)*%
X169150000Y-95177500D03*
D11*
%TO.P,L1,2,2*%
%TO.N,Net-(C12-Pad1)*%
X169150000Y-90722500D03*
%TD*%
D12*
%TO.P,SW5,1,A*%
%TO.N,Net-(BT2-+)*%
X197137500Y-89575000D03*
%TO.P,SW5,2,B*%
%TO.N,+BATT*%
X195137500Y-89575000D03*
%TO.P,SW5,3,C*%
%TO.N,Net-(R6-Pad1)*%
X193137500Y-89575000D03*
%TO.P,SW5,4,A*%
%TO.N,unconnected-(SW5-A-Pad4)*%
X197137500Y-94075000D03*
%TO.P,SW5,5,B*%
%TO.N,+3.3V*%
X195137500Y-94075000D03*
%TO.P,SW5,6,C*%
%TO.N,Net-(R6-Pad1)*%
X193137500Y-94075000D03*
%TD*%
D13*
%TO.P,SW3,1,1*%
%TO.N,+3.3V*%
X101895600Y-53616400D03*
D14*
%TO.P,SW3,2,2*%
%TO.N,Reload*%
X101895600Y-56156400D03*
%TD*%
D13*
%TO.P,SW2,1,1*%
%TO.N,+3.3V*%
X101895600Y-49566400D03*
D14*
%TO.P,SW2,2,2*%
%TO.N,Trigger*%
X101895600Y-52106400D03*
%TD*%
D13*
%TO.P,J3,1,Pin_1*%
%TO.N,Net-(J3-Pin_1)*%
X168850000Y-21150000D03*
D14*
%TO.P,J3,2,Pin_2*%
%TO.N,Net-(J3-Pin_2)*%
X168850000Y-23690000D03*
%TO.P,J3,3,Pin_3*%
%TO.N,+3.3V*%
X168850000Y-26230000D03*
%TO.P,J3,4,Pin_4*%
%TO.N,IR_Signal*%
X168850000Y-28770000D03*
%TO.P,J3,5,Pin_5*%
%TO.N,Hit_Lamp*%
X168850000Y-31310000D03*
%TO.P,J3,6,Pin_6*%
%TO.N,GND*%
X168850000Y-33850000D03*
%TD*%
D13*
%TO.P,BT2,1,+*%
%TO.N,Net-(BT2-+)*%
X146950000Y-98960000D03*
D14*
%TO.P,BT2,2,-*%
%TO.N,GND*%
X146950000Y-101500000D03*
%TD*%
D15*
%TO.P,U2,41,GND*%
%TO.N,GND*%
X186542000Y-116980000D03*
X186542000Y-115580000D03*
X185842000Y-117680000D03*
X185842000Y-116280000D03*
X185842000Y-114880000D03*
X185142000Y-116980000D03*
X185142000Y-115580000D03*
X184442000Y-117680000D03*
X184442000Y-116280000D03*
X184442000Y-114880000D03*
X183742000Y-116980000D03*
X183742000Y-115580000D03*
%TD*%
D16*
%TO.P,U1,4,VOUT*%
%TO.N,Net-(Q2-D)*%
X190950000Y-97030000D03*
X189950000Y-97030000D03*
D17*
X189950000Y-97030000D03*
D16*
X188950000Y-97030000D03*
%TD*%
D18*
%TO.P,SW6,1,1*%
%TO.N,GND*%
X165100000Y-107000000D03*
%TO.P,SW6,2,2*%
%TO.N,/\u00B5C/Boot*%
X172900000Y-107000000D03*
%TD*%
%TO.P,SW4,1,1*%
%TO.N,GND*%
X199000000Y-116200000D03*
%TO.P,SW4,2,2*%
%TO.N,/\u00B5C/EN*%
X199000000Y-124000000D03*
%TD*%
D13*
%TO.P,J9,1,Pin_1*%
%TO.N,+BATT*%
X156750000Y-43475000D03*
D14*
%TO.P,J9,2,Pin_2*%
%TO.N,Net-(J9-Pin_2)*%
X156750000Y-46015000D03*
%TD*%
D13*
%TO.P,J8,1,Pin_1*%
%TO.N,GND*%
X150670000Y-123000000D03*
D14*
%TO.P,J8,2,Pin_2*%
%TO.N,IO37*%
X153210000Y-123000000D03*
%TO.P,J8,3,Pin_3*%
%TO.N,Net-(J8-Pin_3)*%
X155750000Y-123000000D03*
%TO.P,J8,4,Pin_4*%
%TO.N,Net-(J8-Pin_4)*%
X158290000Y-123000000D03*
%TO.P,J8,5,Pin_5*%
%TO.N,IO36*%
X160830000Y-123000000D03*
%TO.P,J8,6,Pin_6*%
%TO.N,+3.3V*%
X163370000Y-123000000D03*
%TO.P,J8,7,Pin_7*%
%TO.N,IO35*%
X165910000Y-123000000D03*
%TD*%
D13*
%TO.P,J7,1,Pin_1*%
%TO.N,Net-(J7-Pin_1)*%
X169000000Y-53475000D03*
D14*
%TO.P,J7,2,Pin_2*%
%TO.N,Net-(J7-Pin_2)*%
X169000000Y-56015000D03*
%TD*%
D13*
%TO.P,J6,1,Pin_1*%
%TO.N,Net-(J6-Pin_1)*%
X147000000Y-120460000D03*
D14*
%TO.P,J6,2,Pin_2*%
%TO.N,+BATT*%
X147000000Y-123000000D03*
%TD*%
D13*
%TO.P,J5,1,Pin_1*%
%TO.N,Net-(J5-Pin_1)*%
X147000000Y-114210000D03*
D14*
%TO.P,J5,2,Pin_2*%
%TO.N,+BATT*%
X147000000Y-116750000D03*
%TD*%
D19*
%TO.P,J4,A1,GND*%
%TO.N,GND*%
X194522000Y-106746000D03*
%TO.P,J4,A4,VBUS*%
%TO.N,+5V*%
X194522000Y-107596000D03*
%TO.P,J4,A5,CC1*%
%TO.N,Net-(J4-CC1)*%
X194522000Y-108446000D03*
%TO.P,J4,A6,D+*%
%TO.N,/\u00B5C/USB_D+*%
X194522000Y-109296000D03*
%TO.P,J4,A7,D-*%
%TO.N,/\u00B5C/USB_D-*%
X194522000Y-110146000D03*
%TO.P,J4,A8*%
%TO.N,N/C*%
X194522000Y-110996000D03*
%TO.P,J4,A9,VBUS*%
%TO.N,+5V*%
X194522000Y-111846000D03*
%TO.P,J4,A12,GND*%
%TO.N,GND*%
X194522000Y-112696000D03*
%TO.P,J4,B1,GND*%
X195872000Y-112696000D03*
%TO.P,J4,B4,VBUS*%
%TO.N,+5V*%
X195872000Y-111846000D03*
%TO.P,J4,B5,CC2*%
%TO.N,Net-(J4-CC2)*%
X195872000Y-110996000D03*
%TO.P,J4,B6,D+*%
%TO.N,/\u00B5C/USB_D+*%
X195872000Y-110146000D03*
%TO.P,J4,B7,D-*%
%TO.N,/\u00B5C/USB_D-*%
X195872000Y-109296000D03*
%TO.P,J4,B8*%
%TO.N,N/C*%
X195872000Y-108446000D03*
%TO.P,J4,B9,VBUS*%
%TO.N,+5V*%
X195872000Y-107596000D03*
%TO.P,J4,B12,GND*%
%TO.N,GND*%
X195872000Y-106746000D03*
D20*
%TO.P,J4,S1,SHIELD*%
X195502000Y-105396000D03*
D21*
X198882000Y-105396000D03*
D20*
X195502000Y-114046000D03*
D21*
X198882000Y-114046000D03*
%TD*%
D13*
%TO.P,J2,1,Pin_1*%
%TO.N,Net-(J2-Pin_1)*%
X163500000Y-55225000D03*
D14*
%TO.P,J2,2,Pin_2*%
%TO.N,Net-(J2-Pin_2)*%
X163500000Y-57765000D03*
%TD*%
D13*
%TO.P,Camera_Interface1,1,Pin_1*%
%TO.N,+3.3V*%
X77095600Y-34826400D03*
D14*
%TO.P,Camera_Interface1,2,Pin_2*%
%TO.N,SCL*%
X79635600Y-34826400D03*
%TO.P,Camera_Interface1,3,Pin_3*%
%TO.N,CAM_VS*%
X77095600Y-37366400D03*
%TO.P,Camera_Interface1,4,Pin_4*%
%TO.N,CAM_PC*%
X79635600Y-37366400D03*
%TO.P,Camera_Interface1,5,Pin_5*%
%TO.N,CAM_D7*%
X77095600Y-39906400D03*
%TO.P,Camera_Interface1,6,Pin_6*%
%TO.N,CAM_D5*%
X79635600Y-39906400D03*
%TO.P,Camera_Interface1,7,Pin_7*%
%TO.N,CAM_D3*%
X77095600Y-42446400D03*
%TO.P,Camera_Interface1,8,Pin_8*%
%TO.N,CAM_D1*%
X79635600Y-42446400D03*
%TO.P,Camera_Interface1,9,Pin_9*%
%TO.N,CAM_PD*%
X77095600Y-44986400D03*
%TO.P,Camera_Interface1,10,Pin_10*%
%TO.N,CAM_D0*%
X79635600Y-44986400D03*
%TO.P,Camera_Interface1,11,Pin_11*%
%TO.N,CAM_D2*%
X77095600Y-47526400D03*
%TO.P,Camera_Interface1,12,Pin_12*%
%TO.N,CAM_D4*%
X79635600Y-47526400D03*
%TO.P,Camera_Interface1,13,Pin_13*%
%TO.N,CAM_D6*%
X77095600Y-50066400D03*
%TO.P,Camera_Interface1,14,Pin_14*%
%TO.N,CAM_HS*%
X79635600Y-50066400D03*
%TO.P,Camera_Interface1,15,Pin_15*%
%TO.N,SDA*%
X77095600Y-52606400D03*
%TO.P,Camera_Interface1,16,Pin_16*%
%TO.N,GND*%
X79635600Y-52606400D03*
%TD*%
D22*
%TO.P,C21,1*%
%TO.N,+BATT*%
X102310841Y-77826400D03*
D23*
%TO.P,C21,2*%
%TO.N,GND*%
X104810841Y-77826400D03*
%TD*%
D22*
%TO.P,C20,1*%
%TO.N,+BATT*%
X94305375Y-66526400D03*
D23*
%TO.P,C20,2*%
%TO.N,GND*%
X96805375Y-66526400D03*
%TD*%
D24*
%TO.N,+3.3V*%
X178130000Y-98750000D03*
%TO.N,GND*%
X177460000Y-100120000D03*
X185700000Y-102900000D03*
%TO.N,+3.3V*%
X185200000Y-99810000D03*
%TO.N,GND*%
X196400000Y-96350000D03*
%TO.N,+BATT*%
X176500000Y-97000000D03*
%TO.N,+3.3V*%
X192250000Y-91750000D03*
%TO.N,GND*%
X173900000Y-91200000D03*
X171000000Y-92950000D03*
X168900000Y-92950000D03*
%TO.N,Net-(C12-Pad1)*%
X168200000Y-89100000D03*
%TO.N,GND*%
X175550000Y-89050000D03*
X173900000Y-89100000D03*
%TO.N,Net-(U3-SW)*%
X173000000Y-95050000D03*
%TO.N,GND*%
X197350000Y-106100000D03*
X197300000Y-113100000D03*
%TO.N,+3.3V*%
X193800000Y-122730000D03*
%TO.N,GND*%
X168050000Y-107000000D03*
X174892000Y-124000000D03*
X193800000Y-124000000D03*
X199000000Y-117800000D03*
%TO.N,/\u00B5C/Boot*%
X172900000Y-107000000D03*
%TO.N,/\u00B5C/EN*%
X197600000Y-124000000D03*
%TD*%
D25*
%TO.N,Net-(BT2-+)*%
X146950000Y-94930000D02*
X146950000Y-98960000D01*
X153556000Y-88324000D02*
X146950000Y-94930000D01*
X195886500Y-88324000D02*
X153556000Y-88324000D01*
X197137500Y-89575000D02*
X195886500Y-88324000D01*
%TO.N,+BATT*%
X177500000Y-97000000D02*
X176500000Y-97000000D01*
X194024000Y-92476000D02*
X182024000Y-92476000D01*
X194500000Y-92000000D02*
X194024000Y-92476000D01*
X195137500Y-91362500D02*
X194500000Y-92000000D01*
X195137500Y-89575000D02*
X195137500Y-91362500D01*
X182024000Y-92476000D02*
X177500000Y-97000000D01*
D26*
%TO.N,Net-(U3-SW)*%
X172450000Y-96150000D02*
X173000000Y-95600000D01*
X173000000Y-95600000D02*
X173000000Y-95050000D01*
X169150000Y-95950000D02*
X169350000Y-96150000D01*
X169150000Y-95177500D02*
X169150000Y-95950000D01*
X169350000Y-96150000D02*
X172450000Y-96150000D01*
%TO.N,Net-(C12-Pad1)*%
X168200000Y-89100000D02*
X169150000Y-90050000D01*
X169150000Y-90050000D02*
X169150000Y-90722500D01*
D27*
%TO.N,/\u00B5C/USB_D+*%
X194592654Y-109296000D02*
X194522000Y-109296000D01*
X195872000Y-110146000D02*
X195442654Y-110146000D01*
X195442654Y-110146000D02*
X194592654Y-109296000D01*
D26*
%TO.N,+5V*%
X194522000Y-111846000D02*
X195872000Y-111846000D01*
X195872000Y-107596000D02*
X194522000Y-107596000D01*
%TO.N,GND*%
X194522000Y-106746000D02*
X195872000Y-106746000D01*
X196704000Y-106746000D02*
X195872000Y-106746000D01*
X197350000Y-106100000D02*
X196704000Y-106746000D01*
X195502000Y-105396000D02*
X196646000Y-105396000D01*
X196646000Y-105396000D02*
X197350000Y-106100000D01*
X198054000Y-105396000D02*
X197350000Y-106100000D01*
X198882000Y-105396000D02*
X198054000Y-105396000D01*
X194522000Y-112696000D02*
X195872000Y-112696000D01*
X196896000Y-112696000D02*
X197300000Y-113100000D01*
X195872000Y-112696000D02*
X196896000Y-112696000D01*
X196354000Y-114046000D02*
X197300000Y-113100000D01*
X195502000Y-114046000D02*
X196354000Y-114046000D01*
X198246000Y-114046000D02*
X197300000Y-113100000D01*
X198882000Y-114046000D02*
X198246000Y-114046000D01*
X199000000Y-114164000D02*
X198882000Y-114046000D01*
%TO.N,/\u00B5C/EN*%
X197600000Y-124000000D02*
X199000000Y-124000000D01*
%TO.N,GND*%
X199000000Y-117800000D02*
X199000000Y-116200000D01*
%TD*%
M02*
